<?xml version="1.0" standalone="no"?>
<!DOCTYPE svg PUBLIC "-//W3C//DTD SVG 1.1//EN" "http://www.w3.org/Graphics/SVG/1.1/DTD/svg11.dtd" >
<svg xmlns="http://www.w3.org/2000/svg" xmlns:xlink="http://www.w3.org/1999/xlink" version="1.1">
<metadata>
Created by FontForge 20201107 at Tue Mar  2 09:32:40 2021
 By 
Typeface (c) ARToni. 2021. All Rights Reserved
</metadata>
<defs>
<font id="HidayatullahDEMO" horiz-adv-x="0" >
  <font-face 
    font-family="Hidayatullah DEMO"
    font-weight="700"
    font-stretch="normal"
    units-per-em="2048"
    panose-1="2 0 6 0 0 0 0 0 0 0"
    ascent="1638"
    descent="-410"
    x-height="1225"
    cap-height="1753"
    bbox="-1553 -795 4168 2269"
    underline-thickness="150"
    underline-position="-292"
    unicode-range="U+0020-FB05"
  />
<missing-glyph horiz-adv-x="1024" 
 />
    <glyph glyph-name="uniFB00" unicode="ff" horiz-adv-x="1128" 
d="M775 -623v1642h-302v-1294q0 -115 -105 -180l-33 -19q-53 -27 -96 -59.5t-76 -89.5v1642h-123l22 47q29 63 105 63l3 22q18 124 79 206.5t143.5 138.5t164 98t140.5 84t76 98q89 -61 104 -167q2 -18 2 -35q0 -82 -54 -149q-33 -41 -58 -89q-17 79 -85 118q-28 14 -58 14
q-27 0 -58 -14q-48 -25 -69.5 -75t-21.5 -103l-2 -147h306l3 22q18 124 79 206.5t143.5 138.5t164 98t140.5 84t76 98q54 -39 98 -75q61 -53 89.5 -112t28.5 -114q0 -83 -57 -141t-158 -58q0 53 -22 103t-70 75q-28 14 -58 14q-27 0 -58 -14q-48 -25 -69.5 -75t-21.5 -103
q0 -68 -2 -142v-5h154l-22 -46q-34 -64 -100 -64h-32v-1294q0 -115 -105 -180l-33 -19q-53 -27 -96 -59.5t-76 -89.5z" />
    <glyph glyph-name="uniFB01" unicode="fi" horiz-adv-x="1184" 
d="M1063 -14q-68 0 -126.5 22t-94.5 70q-67 92 -67 242v560q0 114 105 180l31 17q54 28 97.5 60.5t76.5 90.5v-884q0 -51 8 -84t32.5 -49t71.5 -16q48 0 81 28.5t51 71.5t21 90h90q-16 -132 -60 -210q-78 -144 -207 -176q-55 -13 -110 -13zM163 -623v1642h-123l1 3
q22 53 45.5 80t80.5 27q17 141 83 231q58 78 136 131.5t160 96.5l42 23q57 30 113 72t73 102q6 28 6 56v8l369 -370l-219 -219l-139 139t-163 69h-6q-26 0 -56 -14q-48 -25 -69.5 -75t-21.5 -103l-2 -147h154l-22 -46q-34 -64 -100 -64h-32v-1294q0 -115 -105 -180
q-17 -10 -33 -18q-53 -28 -96 -60t-76 -90z" />
    <glyph glyph-name="uniFB02" unicode="fl" horiz-adv-x="1183" 
d="M163 -623v1643h-123l22 46q29 64 105 64l3 21q31 216 224 346q82 56 163 98t140 84t76 97q67 -47 120 -96q89 -87 124 -150q54 -98 67 -259v-927q0 -86 24 -117.5t88 -31.5q65 0 105.5 54.5t47.5 135.5h90q-55 -398 -366 -398q-165 0 -232 91.5t-67 241.5v956
q0 54 -22 103.5t-70 74.5q-28 14 -58 14q-27 0 -58 -14q-48 -25 -69.5 -74.5t-21.5 -103.5q0 -67 -2 -145v-1h154l-22 -47q-34 -63 -100 -63h-32v-1295q0 -114 -105 -180l-33 -19q-53 -27 -96 -59.5t-76 -89.5z" />
    <glyph glyph-name="uniFB03" unicode="ffi" horiz-adv-x="1797" 
d="M775 -623v1642h-302v-1294q0 -115 -105 -180l-33 -19q-53 -27 -96 -59.5t-76 -89.5v1642h-123l22 47q29 63 105 63l3 22q18 124 79 206.5t144 138.5t164 98t140 84t76 98q89 -61 104 -167q2 -18 2 -35q0 -82 -54 -149q-33 -41 -58 -89q-16 66 -56.5 99t-85.5 33
q-56 0 -101.5 -48.5t-48.5 -143.5l-2 -147h306q15 130 72.5 215t138.5 141.5t167 101.5l38 21q57 30 115 73t76 104q6 33 6 64l370 -370l-220 -219q-70 70 -138.5 139t-166.5 69q-27 0 -58 -14q-48 -25 -70 -75t-22 -103l-2 -147h154l-22 -46q-34 -64 -99 -64h-33v-1294
q0 -115 -105 -180l-33 -19q-53 -27 -96 -59.5t-76 -89.5zM1676 -14q-68 0 -127 22t-95 70q-67 92 -67 242v560q0 114 106 180l33 18q53 28 95.5 60t75.5 90v-884q0 -51 8 -84t32.5 -49t71.5 -16q48 0 81 28.5t51 71.5t21 90h91q-18 -132 -61 -210q-78 -144 -206 -176
q-55 -13 -110 -13z" />
    <glyph glyph-name="uniFB04" unicode="ffl" horiz-adv-x="1797" 
d="M775 -623v1642h-302v-1294q0 -115 -105 -180l-33 -19q-53 -27 -96 -59.5t-76 -89.5v1642h-123l22 47q29 63 105 63l3 22q18 124 79 206.5t144 138.5t164 98t140 84t76 98q89 -61 104 -167q2 -18 2 -35q0 -82 -54 -149q-33 -41 -58 -89q-16 79 -85 118q-28 14 -58 14
q-27 0 -58 -14q-48 -25 -69.5 -75t-21.5 -103l-2 -147h306l3 22q18 124 79 206.5t144 138.5t164 98t140 84t76 98q106 -74 169 -145t94 -152t40 -184.5t9 -245.5v-705q0 -51 8 -84t32.5 -49t71.5 -16q48 0 81 28.5t51 71.5t21 90h91q-18 -132 -61 -210q-78 -144 -206 -176
q-55 -13 -110 -13q-68 0 -127 22t-95 70q-67 92 -67 242v956q0 53 -22.5 103t-70.5 75q-28 14 -57 14q-27 0 -58 -14q-48 -25 -70 -75t-22 -103q0 -68 -2 -142v-5h154l-22 -46q-34 -64 -99 -64h-33v-1294q0 -115 -105 -180l-33 -19q-53 -27 -96 -59.5t-76 -89.5z" />
    <glyph glyph-name="uniFB05" unicode="ft" horiz-adv-x="1136" 
d="M711 1129q8 1 16 1v46q0 115 105 180q17 9 33 18q53 28 96 60t76 90v-394h153l-21 -46q-34 -64 -100 -64h-32v-675q0 -86 23.5 -117.5t88.5 -31.5t105.5 54.5t47.5 135.5h90q-18 -131 -60 -211t-96.5 -120.5t-110 -54t-99.5 -13.5q-166 0 -232 92q-67 91 -67 242v698
h-254v-1294q0 -115 -105 -180l-33 -19q-53 -27 -96 -59.5t-76 -89.5v1642h-123l22 47q29 63 105 63l3 22q31 215 223 345q82 56 163.5 98t140.5 84t76 98q106 -73 106 -200q0 -31 -18 -71.5t-48 -64.5t-67 -48q-23 38 -64 62q-28 14 -58 14q-27 0 -58 -14q-48 -25 -69.5 -75
t-21.5 -103l-2 -147h238z" />
    <glyph glyph-name=".notdef" horiz-adv-x="1024" 
 />
    <glyph glyph-name=".null" 
 />
    <glyph glyph-name="nonmarkingreturn" horiz-adv-x="682" 
 />
    <glyph glyph-name="space" unicode=" " horiz-adv-x="508" 
 />
    <glyph glyph-name="space" unicode="&#xa0;" horiz-adv-x="508" 
 />
    <glyph glyph-name="exclam" unicode="!" horiz-adv-x="638" 
d="M164 470v935q0 115 105 180l33 18q53 28 96 60t76 90v-934q0 -116 -105 -181l-33 -18q-53 -28 -96 -60t-76 -90zM319 0l-219 219l219 219l219 -219z" />
    <glyph glyph-name="quotedbl" unicode="&#x22;" horiz-adv-x="1042" 
d="M328 1131l-164 456l164 163l163 -163zM715 1131l-163 456l163 163l163 -163z" />
    <glyph glyph-name="numbersign" unicode="#" horiz-adv-x="1637" 
d="M791 -179l128 724h-287l-66 -376q-17 -86 -67.5 -129.5t-116.5 -74.5q-49 -24 -97.5 -56.5t-90.5 -87.5l128 724h-222l21 47q34 63 102 63h118l47 264h-288l21 47q34 63 102 63h184l67 376q17 87 67.5 130t115.5 74q49 24 98 56.5t90 87.5l-128 -724h287l66 376
q17 87 67.5 130t116.5 74q49 24 97.5 56.5t90.5 87.5l-128 -724h223l-22 -46q-34 -64 -100 -64h-120l-47 -264h289l-22 -47q-34 -63 -100 -63h-186l-67 -376q-17 -86 -67 -129.5t-116 -74.5q-49 -24 -98 -56.5t-90 -87.5zM938 655l47 264h-287l-47 -264h287z" />
    <glyph glyph-name="dollar" unicode="$" horiz-adv-x="1253" 
d="M572 -309v254q-75 -51 -104 -124q-304 211 -304 392q0 65 35.5 128t94 97t131.5 34v-69q0 -76 31 -147t99 -106l17 -8v495l-24 14q-113 59 -209.5 142t-130.5 226q-11 57 -11 107q0 122 63 207.5t180 156.5q39 23 88 49l44 23v200q0 66 63 100l47 21v-254q76 52 103 124
q304 -210 304 -392q0 -65 -35 -128q-80 -130 -225 -130v69q0 76 -31 147t-100 106l-16 7v-494l28 -16q112 -60 207 -142.5t128 -224.5q11 -57 11 -107q0 -122 -63 -207t-180 -156q-36 -22 -81 -45l-50 -27v-199q0 -67 -64 -101zM682 135q29 7 55 22q46 32 69 76.5t23 94.5
q0 51 -24 102q-41 82 -123 137v-432zM572 1007v433q-30 -7 -55 -23q-46 -32 -69.5 -76.5t-23.5 -94.5q0 -51 24 -102q41 -81 124 -137z" />
    <glyph glyph-name="percent" unicode="%" horiz-adv-x="1613" 
d="M485 -67h-175l818 1753h175zM336 750q-47 0 -89 16t-76 50q-34 37 -49 77.5t-18.5 83t-3.5 87.5v201q0 92 37 150.5t91.5 96.5t108.5 66q49 25 85 50.5t46 59.5q117 -81 152 -159t35 -195q0 -46 -2 -69v-186q-8 -116 -65.5 -203.5t-172.5 -116.5q-38 -9 -79 -9zM378 861
q30 0 57 25.5t41.5 77.5t14.5 153v262q0 41 -16.5 78.5t-53.5 55.5q-22 11 -43 11t-44 -11q-36 -18 -52.5 -55.5t-16.5 -78.5v-272q0 -36 2 -73.5t11 -70.5q15 -51 42 -76.5t58 -25.5zM1194 -69q-47 0 -89 16t-76 50q-34 37 -49 77.5t-18.5 83t-3.5 87.5v201q0 92 37 150.5
t91.5 96.5t108.5 66q49 25 85 50.5t46 59.5q117 -81 152 -159t35 -195q0 -46 -2 -69v-186q-8 -116 -65.5 -203.5t-172.5 -116.5q-38 -9 -79 -9zM1236 42q30 0 57 25.5t41.5 77.5t14.5 153v262q0 41 -16.5 78.5t-53.5 55.5q-22 11 -43 11t-44 -11q-36 -18 -52.5 -55.5
t-16.5 -78.5v-272q0 -36 2 -73.5t11 -70.5q15 -51 42 -76.5t58 -25.5z" />
    <glyph glyph-name="ampersand" unicode="&#x26;" horiz-adv-x="1628" 
d="M629 -117q-66 0 -130 15q-202 51 -300.5 168t-98.5 262q0 105 50 214t149 209q26 26 66 60l2 1q-105 50 -151.5 116t-46.5 139q0 81 46.5 163.5t123.5 155t170 125.5l65 35q91 47 158.5 95t86.5 112q304 -208 304 -393q0 -67 -33.5 -125.5t-92 -95t-135.5 -36.5v69
q0 76 -30.5 147t-99.5 106q-42 21 -82 21q-41 0 -83 -21q-54 -27 -89 -82t-35 -115q0 -28 8 -54q44 -130 193 -163l81 -18q-88 -72 -151 -128q-60 -53 -110 -112q-112 -134 -112 -266q0 -65 29 -136q46 -104 131 -151t184 -47q108 0 214 49q111 49 174 151q56 108 56 234v4
l-67 11q-90 19 -147 19q-71 -3 -102 -32q-35 -35 -35 -76l1 -21q-23 21 -43.5 45t-30 52.5t-9.5 58.5q0 40 16 78q27 61 101 91q63 25 142 25l41 -2q58 -8 117 -23q43 -11 84 -19q50 -9 94 -9t80 9q70 21 99 60q26 36 33 73l2 -10q10 -39 12 -82q0 -33 -15 -76
q-21 -61 -82 -117q-80 -64 -196 -64q15 -55 15 -111q0 -134 -68 -260t-173 -203q-177 -125 -380 -125z" />
    <glyph glyph-name="quotesingle" unicode="'" horiz-adv-x="499" 
d="M327 1131l-163 456l163 163l164 -163z" />
    <glyph glyph-name="parenleft" unicode="(" horiz-adv-x="573" 
d="M673 1576q-41 0 -82 -21q-69 -35 -100 -106t-31 -147v-1476q0 -76 31 -147t100 -106q41 -21 82 -21v-142q-36 20 -76 41q-76 40 -154 89t-144.5 116t-107.5 160.5t-41 223.5v1048q0 130 41 223t107.5 160t144.5 116.5t154 88.5q40 21 76 42v-142z" />
    <glyph glyph-name="parenright" unicode=")" horiz-adv-x="623" 
d="M0 1576v142q36 -21 76 -42q76 -39 154 -88.5t144.5 -116.5t107.5 -160t41 -223v-1048q0 -130 -41 -223.5t-107.5 -160.5t-144.5 -116t-154 -89q-40 -21 -76 -41v142q41 0 82 21q69 35 100 106t31 147v1476q0 76 -31 147t-100 106q-41 21 -82 21z" />
    <glyph glyph-name="asterisk" unicode="*" horiz-adv-x="1030" 
d="M771 899l-230 36l32 201l-58 81l-59 -81l32 -201l-230 -36l-36 230l201 32l58 80l-94 30l-181 -92l-106 207l207 106l93 -181l94 -31v99l-144 144l165 165l164 -165l-144 -144v-99l95 31l92 181l208 -106l-106 -207l-182 92l-94 -30l58 -80l201 -32z" />
    <glyph glyph-name="plus" unicode="+" horiz-adv-x="974" 
d="M579 423h-184v295h-295v184h295v295h184v-295h295v-184h-295v-295z" />
    <glyph glyph-name="comma" unicode="," horiz-adv-x="533" 
d="M225 -265q78 121 78 211q0 72 -42 136t-117 137l219 219l220 -219l-132 -132q4 -21 4 -42q0 -100 -66.5 -192.5t-163.5 -117.5z" />
    <glyph glyph-name="hyphen" unicode="-" horiz-adv-x="818" 
d="M620 387h-525q32 19 51.5 44.5t33 50.5t28.5 44.5t36.5 32t57.5 12.5h524q-32 -19 -51.5 -44.5t-33 -50.5t-28 -45t-36.5 -32t-57 -12z" />
    <glyph glyph-name="hyphen" unicode="&#xad;" horiz-adv-x="818" 
d="M620 387h-525q32 19 51.5 44.5t33 50.5t28.5 44.5t36.5 32t57.5 12.5h524q-32 -19 -51.5 -44.5t-33 -50.5t-28 -45t-36.5 -32t-57 -12z" />
    <glyph glyph-name="period" unicode="." horiz-adv-x="532" 
d="M363 0l-219 219l219 219l219 -219z" />
    <glyph glyph-name="slash" unicode="/" horiz-adv-x="1673" 
d="M100 -178l1031 1785q64 103 178 103l81 -1q47 0 91 8t92 36l-1030 -1785q-67 -104 -181 -104l-83 1q-46 0 -89 -8t-90 -35z" />
    <glyph glyph-name="zero" unicode="0" horiz-adv-x="1202" 
d="M542 -12q-86 0 -165 28q-80 31 -143.5 99t-92 143t-35 155.5t-6.5 165.5v379q0 130 41 223t107.5 160t144.5 116.5t154 89.5q92 47 159 95t86 111q150 -104 225.5 -200.5t101 -209.5t26.5 -268v-28q0 -45 -4 -89v-350q-17 -220 -125 -384.5t-324 -218.5q-73 -17 -150 -17
zM623 197q57 0 108 48.5t78 144.5q17 67 21.5 143.5t4.5 144.5v494q0 76 -30.5 147t-99.5 106q-42 21 -82 21q-41 0 -83 -21q-68 -35 -99 -106t-31 -147v-484q0 -74 4 -152t22 -146q27 -96 78.5 -144.5t108.5 -48.5z" />
    <glyph glyph-name="one" unicode="1" horiz-adv-x="934" 
d="M460 -122v1416q-102 -36 -150 -102q-32 -52 -32 -101q1 -54 25 -104l-32 1q-59 5 -111 69q-36 47 -36 112l1 17q8 87 80 177q75 84 199 143q44 22 90 42l48 22q10 8 59 35q45 23 82 49l51 47q20 22 36 52v-1527q0 -115 -105 -181l-29 -16q-55 -28 -98.5 -60t-77.5 -91z
" />
    <glyph glyph-name="two" unicode="2" horiz-adv-x="1142" 
d="M0 0l3 23q10 76 31 165q43 175 115.5 303t175 236.5t234.5 222.5q67 60 94 88q38 39 62.5 83.5t24.5 97.5q0 31 -10 66q-22 71 -74.5 114.5t-120.5 43.5q-34 0 -71 -13q-66 -27 -104.5 -96t-38.5 -141q0 -36 11 -68q14 -39 33.5 -56t60.5 -17q-26 -66 -85 -107
q-51 -33 -106 -33q-58 0 -107 33t-68 93q-11 38 -11 74q0 72 36 133q64 110 211 207q75 49 166 96q73 37 145 87t96 118q73 -51 141 -111.5t117 -135.5q34 -55 58.5 -126.5t25.5 -137.5q0 -90 -37.5 -166t-99.5 -142t-139 -125.5t-159 -116.5q-96 -67 -182 -136t-145 -146
q-45 -67 -60 -120q19 18 61 36q78 31 169 31q75 0 153 -19q51 -13 110 -32.5t118 -35t109 -15.5q70 0 114 44q28 28 35 58l-2 -10q-14 -102 -53 -189q-47 -93 -140 -134q-51 -19 -106 -19q-61 0 -126.5 16t-131.5 36q-160 52 -262 52q-56 0 -101.5 -10t-76.5 -24
q-38 -17 -58.5 -36t-34.5 -39z" />
    <glyph glyph-name="three" unicode="3" horiz-adv-x="1145" 
d="M519 -5q-142 0 -259 69q-93 55 -151.5 139t-58.5 182q0 86 55 175q38 55 94 88t119 33t126 -38q30 -20 47 -44.5t29 -50.5q-22 2 -45 2q-49 0 -83 -21q-12 -7 -22 -17q-66 -60 -66 -138q0 -69 52 -123.5t137 -54.5q25 0 53 6q113 29 167 126t54 204q0 31 -4 61
q-26 139 -129.5 209.5t-237.5 78.5l17 8q62 29 125 67q67 41 108.5 94.5t49.5 132.5l1 24q0 69 -28 117t-71 73.5t-87 25.5q-54 0 -96 -40q-35 -42 -35 -91q0 -81 71 -144q22 -17 44 -23.5t44 -8.5l-3 -3q-41 -60 -98 -95q-39 -19 -78 -19q-103 0 -173 100q-30 58 -30 107
l-1 19q0 125 117 229q59 51 130 90q93 48 161.5 96.5t88.5 112.5q165 -115 242 -223q74 -105 74 -214q0 -113 -70.5 -210t-181.5 -164q88 -27 174 -82q154 -107 195 -290q9 -47 9 -92q0 -109 -49.5 -198t-132.5 -152.5t-186 -98t-208 -34.5z" />
    <glyph glyph-name="four" unicode="4" horiz-adv-x="1169" 
d="M681 -122v531h-681q70 119 141 281t119.5 341t48.5 342q0 160 -55 273q-19 38 -35 55.5t-31 28.5l8 3q44 17 120 20q87 0 150 -42t97 -139q19 -59 19 -136q0 -138 -49 -309t-117.5 -325.5t-131.5 -250.5l397 -2v856q0 116 105 180l33 19q53 27 96 59.5t76 89.5v-1204h154
l-29 -88q-22 -52 -72 -52h-53v-183q0 -115 -106 -181l-31 -17q-54 -27 -97 -59.5t-76 -90.5z" />
    <glyph glyph-name="five" unicode="5" horiz-adv-x="1147" 
d="M467 -5q-94 0 -184 34q-107 43 -170 132.5t-63 195.5q0 72 34 145q28 50 83 79.5t114 29.5q68 0 136 -45q45 -30 69 -70h-13q-117 0 -151 -122q-6 -26 -6 -50q0 -40 21 -78q28 -49 74.5 -73.5t97.5 -24.5q80 0 150 56q63 56 94.5 143.5t31.5 183.5q0 120 -46.5 230
t-137.5 169q-71 43 -169 43q-139 0 -310 -93q58 337 101 701l9 73q133 -51 312 -51q88 0 175 13.5t148 43.5q55 26 83.5 57.5t28.5 86.5l-1 19q12 -5 20 -9.5t28 -26.5q57 -75 57 -161q0 -50 -19 -97.5t-56 -82.5q-112 -103 -302 -103q-94 0 -185 21q-83 20 -176 51
l-38 -297q160 57 297 57q43 0 76 -5q139 -19 226.5 -92t128.5 -181t41 -228q0 -211 -112 -402q-81 -126 -215.5 -199t-281.5 -73z" />
    <glyph glyph-name="six" unicode="6" horiz-adv-x="1199" 
d="M545 -13q-78 0 -149 23q-102 35 -162 99t-88.5 147t-36.5 176.5t-8 186.5l-1 222l1 110q3 149 52 251.5t138 178.5q98 83 252 163q74 36 149 87.5t101 120.5q54 -33 116 -88.5t91 -88.5q47 -76 47 -150q0 -88 -56.5 -157t-154.5 -87q-5 117 -64.5 190.5t-144.5 73.5
q-42 0 -86 -20q-57 -29 -86 -79.5t-37.5 -114.5t-8.5 -131q0 -37 1 -72.5t1 -68.5q64 66 147.5 100.5t172.5 34.5q81 0 160 -31q90 -37 146 -100.5t82 -146t26 -173.5l-1 -36q-9 -147 -68.5 -279.5t-176.5 -224.5q-72 -55 -165.5 -85.5t-188.5 -30.5zM625 196q82 4 126 65.5
t60.5 151t16.5 172.5q0 69 -7 120q-8 60 -32.5 109.5t-62.5 79.5t-88 30t-111 -37q-33 -25 -57 -60q-58 -86 -58 -242q0 -143 48 -257q14 -33 37.5 -63t55 -49.5t69.5 -19.5h3z" />
    <glyph glyph-name="seven" unicode="7" horiz-adv-x="957" 
d="M548 -6q-151 0 -240.5 98.5t-89.5 263.5v9q9 221 216 539q140 215 316 438q-77 5 -171 26q-46 10 -95.5 18.5t-95.5 8.5q-63 0 -111 -26q-35 -23 -46.5 -58.5t-11.5 -75.5h-4q-19 0 -55.5 12t-69.5 39q-68 62 -68 141q6 103 104 163q60 37 155 37q86 0 249 -38
q72 -16 137 -27q73 -12 133 -12q84 0 157 21.5t161 61.5q-80 -126 -155 -251q-102 -164 -212.5 -372.5t-153.5 -383.5q-17 -80 -17 -166q0 -179 65 -345q22 -49 49 -96q-68 -25 -146 -25z" />
    <glyph glyph-name="eight" unicode="8" horiz-adv-x="1045" 
d="M498 -42q-25 0 -50 2q-328 23 -392 310q-13 64 -13 121q0 106 41 192t110.5 159.5t158.5 142.5q-62 52 -116 108t-88.5 122t-34.5 148q0 26 4 53q14 102 62 175.5t147 111.5q94 34 195 34q115 0 221.5 -48t169.5 -149q49 -87 49 -169q0 -73 -31 -140t-81.5 -125.5
t-112.5 -105.5l19 -13q91 -61 159 -131q56 -58 88.5 -127.5t32.5 -156.5q0 -31 -5 -65q-34 -209 -183.5 -329t-349.5 -120zM511 194q68 0 132 43.5t93 122.5q13 39 13 75q0 66 -34.5 121t-85.5 102q-39 36 -113 96l-14 -11q-83 -60 -135 -154q-42 -78 -42 -168
q5 -126 65 -179q54 -48 121 -48zM553 1040q7 0 35 27q57 55 86 116q27 57 27 117q0 57 -29 113q-29 52 -70 78t-82 26q-43 0 -79 -29t-51 -88q-8 -31 -8 -61q0 -58 23.5 -111t60.5 -99.5t79 -84.5z" />
    <glyph glyph-name="nine" unicode="9" horiz-adv-x="1202" 
d="M451 -128q-54 33 -115.5 88.5t-91.5 88.5q-47 76 -47 150q0 88 56.5 157t154.5 87q5 -117 64.5 -190.5t144.5 -73.5q42 0 86 20q57 29 86 79.5t37.5 114.5t8.5 131q0 37 -1 73t-1 69q-64 -66 -147.5 -101t-172.5 -35q-81 0 -160 31q-90 37 -146 100t-81.5 145t-25.5 172
l1 39q8 147 68 279.5t177 224.5q72 55 165 85.5t188 30.5q78 0 149 -23q102 -35 162 -99t88.5 -147t36.5 -176.5t8 -186.5l1 -222l-1 -110q-3 -149 -52 -251.5t-138 -178.5q-98 -83 -252 -163q-74 -36 -149 -87.5t-101 -120.5zM606 700q50 0 111 37q33 26 57 60
q58 86 58 241q0 143 -48 258q-14 33 -37.5 63t-55 49.5t-69.5 19.5q-83 -1 -129 -65q-77 -106 -77 -323q0 -70 7 -121q8 -60 32.5 -109.5t62.5 -79.5t88 -30z" />
    <glyph glyph-name="colon" unicode=":" horiz-adv-x="766" 
d="M383 0l-219 220l219 219l219 -219zM383 524l-219 219l219 220l219 -220z" />
    <glyph glyph-name="semicolon" unicode=";" horiz-adv-x="766" 
d="M244 -264q79 121 79 211q0 72 -42 136t-117 137l219 219l219 -219l-132 -132q4 -22 4 -44q0 -99 -66.5 -191t-163.5 -117zM383 524l-219 219l219 220l219 -220z" />
    <glyph glyph-name="less" unicode="&#x3c;" horiz-adv-x="787" 
d="M687 156l-587 339v151l587 339v-212l-349 -202l349 -202v-213z" />
    <glyph glyph-name="equal" unicode="=" horiz-adv-x="1102" 
d="M938 313h-774v184h774v-184zM938 644h-774v184h774v-184z" />
    <glyph glyph-name="greater" unicode="&#x3e;" horiz-adv-x="787" 
d="M100 156v213l350 202l-350 202v212l587 -339v-151z" />
    <glyph glyph-name="question" unicode="?" horiz-adv-x="1013" 
d="M517 513q-53 0 -97 30t-56 97q-3 18 -3 35q0 54 22 102t55.5 93t70.5 88q50 56 87.5 111.5t43.5 114.5l1 24q0 69 -28 116.5t-71 73t-87 25.5q-54 0 -96 -40q-35 -42 -35 -91q0 -81 71 -144q22 -17 44 -23.5t44 -8.5l-3 -3q-41 -60 -98 -95q-39 -19 -78 -19
q-103 0 -172 100q-30 60 -31 107l-1 19q0 125 117 229q59 51 130 90q93 48 161.5 96.5t88.5 112.5q166 -115 241 -221.5t75 -215.5q0 -95 -52 -180q-45 -69 -101 -124q-48 -48 -86.5 -103.5t-50.5 -135.5q-2 -19 -2 -35q0 -42 20 -64.5t68 -33.5q-19 -43 -57 -79
q-62 -48 -135 -48zM507 0l-219 219l219 219l219 -219z" />
    <glyph glyph-name="at" unicode="@" horiz-adv-x="2188" 
d="M1094 -368q-206 0 -386.5 77.5t-316.5 213.5t-213.5 316.5t-77.5 386.5t77.5 386t213.5 316t316.5 213.5t386.5 77.5q209 -2 388.5 -79t315.5 -213.5t213 -316.5t77 -387q-1 -183 -88 -328q-85 -141 -227 -224.5t-316 -83.5q-106 0 -166 52.5t-84 145.5
q-40 -90 -106.5 -144t-170.5 -54q-153 0 -258 110q-59 64 -88.5 148.5t-29.5 172.5q0 53 11 104q36 153 132.5 248t227.5 166q67 37 143 75q128 61 242 136t164 183v-986q0 -84 23 -116t96 -32q167 5 271 108.5t118 268.5q2 30 2 60q0 250 -136.5 464.5t-364.5 328.5
q-185 89 -389 89q-184 0 -345.5 -69.5t-283 -191t-191 -283t-69.5 -345.5t69.5 -345.5t191 -283.5t283 -191.5t345.5 -69.5q204 0 380 86h204q-124 -91 -272 -140.5t-312 -49.5zM1014 193q27 0 59 15q50 26 70.5 77t20.5 106v530l-54 -32q-122 -69 -175 -149
q-69 -103 -69 -282q0 -148 64 -225q33 -40 84 -40z" />
    <glyph glyph-name="A" unicode="A" horiz-adv-x="1713" 
d="M1402 694l1 639q-176 -130 -291 -339q181 -120 290 -300zM1016 -368q-62 1 -129 32.5t-114 95.5q-53 78 -78.5 196.5t-25.5 249.5q0 94 12 188q40 300 181 548q-60 10 -118 10q-145 -3 -246 -58q-133 -72 -133 -211q0 -41 11 -76q27 -60 65 -76q35 -18 65 -22l-3 -4
q-39 -55 -102 -92q-49 -28 -112 -28q-30 0 -62 8q-104 28 -169 135q-39 73 -39 160q0 185 162 316q126 99 314 131q63 10 129 10q128 0 263 -42l62 -23q244 338 632 546q39 22 72 51t60 76v-1931q-32 54 -74.5 86.5t-87.5 56.5q-40 22 -73 46.5t-54 61.5t-21 97l-1 92
q-2 59 -9 119.5t-29 122.5q-48 131 -153 244q-71 77 -159 126q-109 -253 -109 -522q0 -124 27.5 -241t94 -206.5t181.5 -137.5q-30 -56 -94 -95.5t-136 -39.5z" />
    <glyph glyph-name="B" unicode="B" horiz-adv-x="1422" 
d="M559 -368h-27q-154 0 -281.5 41t-204.5 116t-77 177q0 174 235 373l66 56q-46 -109 -46 -196q0 -78 31.5 -138t87.5 -103t129 -68v1066q0 116 105 181l35 19q53 27 95.5 59t74.5 89v-479q85 70 97 82q106 103 106 196q0 98 -117 199q-101 87 -216 161l-40 27
q-72 47 -144 111t-98 148q-8 30 -8 59q0 68 37 126t91.5 107.5t109.5 91.5l54 44q-39 -49 -60 -82q-27 -43 -27 -91q0 -79 104 -167q80 -67 185 -139q131 -89 243 -188t139 -213q4 -23 4 -45q0 -66 -31.5 -125t-79 -109.5t-96.5 -91.5q224 -27 352 -159t128 -314
q0 -141 -87 -294q-138 -223 -376.5 -369t-492.5 -158zM709 -147q289 0 445 171q110 122 110 272q0 125 -82 233q-134 166 -400 172v-531q0 -60 -20.5 -96.5t-54 -61.5t-73.5 -46q-64 -33 -121 -88q94 -25 196 -25z" />
    <glyph glyph-name="C" unicode="C" horiz-adv-x="1104" 
d="M751 -12q-286 0 -445 203.5t-159 603.5v163q0 130 41 223.5t107.5 160.5t144.5 116t154 89q92 47 159 95t86 111q304 -210 304 -392q0 -65 -35.5 -128t-94 -96.5t-131.5 -33.5v69q0 77 -30.5 147.5t-99.5 105.5q-42 21 -82 21q-41 0 -83 -21q-68 -35 -99 -105.5
t-31 -147.5v-362q0 -104 18.5 -223.5t69 -219.5t144.5 -145q77 -32 172 -32q70 0 139 16.5t119 47.5q101 63 156 170l56 -23q-35 -137 -121 -229t-205.5 -138t-253.5 -46z" />
    <glyph glyph-name="D" unicode="D" horiz-adv-x="1240" 
d="M289 -368h-28q-153 0 -281 41t-205 116t-77 178q0 173 235 372l66 56q-46 -109 -46 -196q0 -78 31.5 -138t87.5 -103t129 -68v1066q0 60 21 97t54 61.5t73 46.5q45 24 87.5 56.5t74.5 86.5v-1134q0 -60 -20.5 -96.5t-54 -61.5t-73.5 -46q-64 -33 -121 -88q94 -25 196 -25
q79 0 158 14q147 28 236.5 109.5t130 199.5t40.5 252q0 132 -34 267q-61 238 -185.5 396t-310.5 309q-35 25 -75 51q-96 62 -183.5 135.5t-115.5 162.5q-8 30 -8 58q0 68 37 126t90.5 107t108.5 92q30 23 56 45q-39 -49 -60 -82q-27 -43 -27 -91q0 -76 94 -157
q72 -63 177 -136q119 -82 249.5 -191t242.5 -258q99 -137 154.5 -310.5t55.5 -351.5q0 -251 -112 -441q-137 -223 -376 -369t-492 -158z" />
    <glyph glyph-name="E" unicode="E" horiz-adv-x="1107" 
d="M619 -111q-89 0 -180 28q-134 42 -225 134t-111 234q-3 22 -3 43q0 87 35.5 173.5t91.5 162t120 129.5l23 19q-105 50 -151.5 115.5t-46.5 139.5q0 81 46.5 163.5t123.5 155t170 125.5l65 36q92 47 159 95t86 111q304 -210 304 -392q0 -67 -33 -126t-92 -95.5t-135 -36.5
v69q0 77 -31 147.5t-100 105.5q-42 21 -82 21t-83 -21q-54 -27 -89 -82t-35 -117q0 -26 8 -52q43 -131 194 -163l80 -18l-49 -40q-56 -46 -112.5 -96t-104 -107t-76.5 -121.5t-29 -139.5q0 -23 3 -46q17 -118 93 -192.5t187 -108.5q100 -32 182 -32q87 0 158 30.5t136 80
t131 108.5l73 63l52 -54l-25 -28q-94 -108 -208.5 -203.5t-246 -156.5t-273.5 -61z" />
    <glyph glyph-name="F" unicode="F" horiz-adv-x="1136" 
d="M66 -590q-92 0 -158 37q-27 15 -35.5 27t-10.5 22q106 0 167 22q42 16 86 47.5t78 77.5q82 121 83 384v343q0 131 50.5 226.5t148.5 179.5l-74 36q-105 50 -151.5 115.5t-46.5 139.5q0 81 46.5 163.5t123.5 155t170 125.5l65 36q92 47 159 95t86 111q304 -210 304 -392
q0 -67 -33 -126t-92 -95.5t-135 -36.5v69q0 77 -31 147.5t-100 105.5q-42 21 -82 21t-82 -21q-55 -27 -90 -82t-35 -117q0 -26 8 -52q23 -68 74 -108t116.5 -56.5t128.5 -16.5h71q-48 -40 -91 -72q-59 -43 -103.5 -85t-69.5 -97.5t-25 -142.5v-540q0 -121 -42 -270.5
t-127 -236.5q-65 -59 -147 -94q-107 -45 -204 -45z" />
    <glyph glyph-name="G" unicode="G" horiz-adv-x="1224" 
d="M585 -621q-54 39 -98 75q-61 53 -89.5 111.5t-28.5 113.5q0 83 57 141.5t158 58.5q0 -54 22 -103.5t70 -74.5q28 -15 58 -15q27 0 58 15q48 25 69.5 74.5t21.5 103.5q0 38 1 81t1 88v67q-122 -111 -280 -111q-98 0 -196 49q-93 50 -162 137q-44 57 -65.5 131t-27.5 164
t-6 195l1 278q0 233 149 384q66 67 144 116t154 89q92 47 159 95t86 111q304 -210 304 -392q0 -67 -33 -126t-92 -95.5t-135 -36.5v69q0 77 -31 147.5t-100 105.5q-42 21 -82 21t-83 -21q-68 -35 -99 -105.5t-31 -147.5v-433q0 -78 4 -161q9 -191 81 -288q58 -79 159 -79
q69 0 121 47.5t58 127.5q3 37 3 77v133q0 116 105 180l33 19q53 27 96 59.5t76 89.5v-867q0 -114 -36.5 -196t-94.5 -140.5t-127 -102t-136 -78.5q-81 -41 -140 -83t-76 -98z" />
    <glyph glyph-name="H" unicode="H" horiz-adv-x="1658" 
d="M1861 -590q-93 0 -200 45q-82 35 -147 94q-85 87 -127 236.5t-42 270.5v830h-45l-168 -168l-169 168h-44v-395q0 -538 -595 -735q-96 -33 -216 -33q-47 0 -93 7q-112 21 -169 85t-57 148q0 55 25.5 113t77.5 112q23 24 48 48l41 40q-37 -50 -37 -94q0 -53 43 -93.5
t106 -64.5t127 -28l42 -1q123 0 199 25q68 23 100 55t40.5 76.5t8.5 104.5v26l-1 -1q0 1135 1 1144q-93 -45 -154.5 -105t-81.5 -160q-6 -34 -6 -66q0 -101 61 -182q12 -16 21 -24t17 -14q-12 -13 -26.5 -25t-37.5 -21q-37 -13 -76 -13q-56 0 -107.5 26t-84.5 77
q-35 57 -35 128q0 29 6 59q21 107 109 199q76 77 180 132t207 99l73 33q106 49 163 92q53 41 81 93v-765h44l169 168l168 -168h45v417q0 116 105 180l33 19q53 27 96 59.5t76 89.5v-1726q1 -263 82 -384q75 -92 164 -125q42 -15 89 -18.5t79 -3.5l-1 -2q-2 -10 -10.5 -21.5
t-33.5 -25t-66 -25.5t-97 -12z" />
    <glyph glyph-name="I" unicode="I" horiz-adv-x="1019" 
d="M609 -178v1583q0 11 1 20l-57 -31q-80 -47 -123 -104q-62 -86 -62 -196q0 -38 9 -75q30 -92 73 -131l17 -14q-18 -26 -64 -46q-33 -13 -78 -13q-28 0 -57 7q-81 20 -133 96q-35 57 -35 129q0 28 6 58q21 107 109 199q89 89 217 151q87 44 171 80q100 45 136 65
q72 36 99 60q31 26 48.5 45.5t32.5 47.5v-1583q0 -60 -21 -97t-54 -61.5t-73 -46.5q-45 -24 -87.5 -56.5t-74.5 -86.5z" />
    <glyph glyph-name="J" unicode="J" horiz-adv-x="971" 
d="M-7 -590q-193 0 -316.5 79.5t-123.5 210.5q0 81 56 177t180 201l45 38h14q-36 -92 -36 -171q0 -102 50.5 -178t132.5 -117.5t175 -41.5q89 0 176 41.5t155 130.5q102 143 110 336q0 1300 1 1309q-92 -45 -154 -105t-82 -160q-6 -34 -6 -65q0 -102 61 -183q12 -16 21 -24
t17 -14q-18 -26 -64 -46q-37 -13 -76 -13q-56 0 -107.5 26t-84.5 77q-35 58 -35 130q0 28 6 57q21 107 109 199q76 77 180 132t207 99l73 33q109 50 162.5 91.5t81.5 93.5v-1413q0 -150 -76.5 -308t-202 -294t-277.5 -224.5t-307 -101.5q-33 -2 -65 -2z" />
    <glyph glyph-name="K" unicode="K" horiz-adv-x="1499" 
d="M1689 -590q-95 0 -204 46q-82 34 -147 93q-122 112 -152 362q-22 209 -23 434q-1 65 -3 121q-3 224 -55 293.5t-169 76.5l-17 1l-1 -563q0 -538 -594 -734q-97 -34 -217 -34q-179 0 -261 93q-57 64 -57 147q0 119 102 225l89 88q-37 -50 -37 -93q0 -54 43 -94.5
t106 -64.5t128 -28l42 -1q216 0 297 78q32 31 41 73.5t9 135.5l-1 -1q0 1341 1 1361q-92 -45 -153.5 -105t-81.5 -160q-7 -35 -7 -67q0 -100 61 -181q17 -22 34 -35l4 -3q-50 -59 -140 -59q-55 0 -107 26t-85 77q-34 58 -34 130q0 135 114 256q77 77 181 132t207 100t159 76
q114 62 158 141v-789q38 32 86 136q51 114 111 276q56 152 109 274q53 118 101.5 179t103.5 90q92 49 200 49q82 -4 124 -25q77 -37 90 -93q-39 18 -79 18q-48 0 -115 -51.5t-150 -216.5q-49 -102 -100 -227q-38 -91 -74 -172q-42 -94 -86 -161t-104 -109q-5 -2 -8 -5
q54 -13 89 -33.5t73 -50.5q84 -59 137 -175q47 -116 54 -321q3 -88 4 -184q0 -137 8 -251q12 -182 76.5 -268.5t164.5 -124.5q60 -22 159 -22q-5 -26 -46 -49q-68 -37 -158 -37z" />
    <glyph glyph-name="L" unicode="L" horiz-adv-x="934" 
d="M1515 -503l-39 2q-128 13 -241 79t-219 149q-193 147 -315 191q-104 38 -179 38l-34 -2q39 67 52.5 119t16.5 134l2 45q0 1164 1 1173q-92 -45 -154 -105t-82 -160q-6 -34 -6 -65q0 -102 61 -183q12 -16 21 -24t17 -14q-18 -26 -64 -46q-37 -13 -76 -13q-56 0 -107.5 26
t-84.5 77q-35 58 -35 130q0 28 6 57q21 107 109 199q76 77 180 132t207 99l73 33q109 50 162.5 91.5t81.5 93.5v-1743q155 -48 321 -118l37 -15q213 -95 335 -95q57 0 97 15q60 23 79 72q11 24 11 53q43 -22 72 -66q21 -39 21 -84q0 -60 -33 -119.5t-88 -98.5
q-89 -57 -206 -57z" />
    <glyph glyph-name="M" unicode="M" horiz-adv-x="2393" 
d="M2566 -590q-97 0 -204 45q-82 35 -147 94q-122 112 -152 362q-19 179 -22 378v883q0 85 -22.5 142t-57.5 85.5t-74 28.5q-57 0 -104 -64t-50 -192v-1002q-2 -87 -45 -130.5t-103 -74.5q-45 -24 -87.5 -56.5t-74.5 -86.5v1350q0 85 -22.5 142t-57.5 85.5t-74 28.5
q-38 0 -73.5 -28.5t-58 -85.5t-22.5 -142l-1 -1002q0 -60 -21 -97t-54 -61.5t-73 -46.5q-45 -24 -87.5 -56.5t-74.5 -86.5q-1 1232 -2 1298q-2 97 -26 212q-59 279 -275 288q-97 0 -162 -42.5t-98.5 -108t-33.5 -134.5q0 -83 49.5 -150.5t150.5 -83.5q16 -2 32 -2
q46 0 90 18.5t79 56.5q23 -53 23 -99q0 -64 -36 -112.5t-95 -75.5t-126 -27t-133 31t-116 99.5t-72 178.5q-6 36 -6 72q0 63 15 121q51 184 200 290t326 106q145 0 270 -75q129 -84 194 -220q62 47 123 85q75 47 130.5 94.5t74.5 110.5q217 -149 285 -294q65 50 129 90
q75 47 130.5 94.5t74.5 109.5q150 -104 225.5 -200.5t101 -209.5t26.5 -268q0 -704 2 -906q0 -135 8 -258q11 -176 77 -268q34 -46 78 -77.5t86 -47.5q61 -22 167 -22q-2 -10 -10.5 -22t-34 -26t-65.5 -26t-94 -12z" />
    <glyph glyph-name="N" unicode="N" horiz-adv-x="1891" 
d="M2060 -590q-95 0 -204 46q-82 34 -147 93q-63 61 -100.5 157.5t-51.5 204.5q-16 147 -16 274v15l-1 89v883q0 77 -30.5 147.5t-99.5 105.5q-43 21 -83 21t-82 -21q-69 -35 -100 -105.5t-31 -147.5v-1002q0 -60 -21 -97t-54 -61.5t-73 -46.5q-45 -24 -87.5 -56.5
t-74.5 -86.5q0 1190 -3 1298q-2 97 -26 212t-88 199t-186 89q-97 0 -162.5 -42.5t-98.5 -108t-33 -134.5q0 -83 49.5 -150.5t150.5 -83.5q16 -2 31 -2q46 0 90 18.5t80 56.5q23 -53 23 -99q0 -64 -36 -112.5t-95 -75.5t-126 -27t-133 31t-116 99.5t-72 178.5q-6 36 -6 72
q0 63 15 121q51 184 200 290t325 106q147 0 270 -75q144 -94 207 -248q95 64 187.5 111.5t159.5 95.5t86 111q150 -104 225.5 -200.5t101 -209.5t26.5 -268q0 -58 -4 -117v-669l2 -128q0 -131 7 -250q12 -176 78 -268q34 -46 78 -77.5t86 -47t89 -19t78 -3.5
q-2 -10 -10.5 -22t-34 -26t-65.5 -26t-94 -12z" />
    <glyph glyph-name="O" unicode="O" horiz-adv-x="1415" 
d="M669 -83q-74 0 -156 22q-143 41 -234.5 130.5t-135 211.5t-43.5 255q0 165 61.5 325.5t176 278.5t275.5 161q-55 -85 -100 -187t-72.5 -215t-27.5 -229q0 -101 25 -201q46 -165 137 -247t194 -82q105 0 200.5 81.5t150.5 241.5q34 106 34 219q0 131 -44 257t-130 221
q-85 88 -199 178l-75 62q-35 25 -75 51q-96 61 -183.5 135t-115.5 163q-8 30 -8 58q0 68 37 126t90.5 107t108.5 92q30 23 56 45q-40 -51 -60 -83q-27 -42 -27 -90q0 -75 95 -157q72 -62 177 -136q150 -103 313 -249q149 -139 230.5 -299t81.5 -333q0 -208 -123 -415
q-132 -223 -266 -345q-168 -153 -368 -153z" />
    <glyph glyph-name="P" unicode="P" horiz-adv-x="1145" 
d="M-50 -590q-56 0 -97 12t-66.5 26t-34 26t-10.5 22q32 0 78.5 3.5t88.5 19t86 47t78 77.5q66 91 78 268q7 119 7 250q2 232 2 795q0 60 21 97t54 61.5t73 46.5q45 24 87.5 56.5t74.5 86.5v-774q85 1 160 14.5t135 59.5q94 75 94 193q0 183 -201 394q-148 156 -349 292
q-85 56 -157 123q-103 95 -103 201q0 69 37 126.5t91.5 107t109.5 92.5l55 44q-31 -37 -59 -80.5t-28 -93.5q0 -75 94 -156q72 -63 176 -136q87 -61 182 -135.5t187 -167.5q70 -71 129 -151q129 -178 129 -348q0 -43 -8 -86q-25 -127 -143 -223q-139 -113 -352 -158
q-93 -15 -179 -15v-374q0 -115 -48 -270t-125 -234q-65 -59 -147 -94q-107 -45 -200 -45z" />
    <glyph glyph-name="Q" unicode="Q" horiz-adv-x="1395" 
d="M1601 -484q-42 0 -85 11q-94 27 -178 85.5t-146 124.5q-124 137 -215 284q-142 -104 -308 -104q-73 0 -156 22q-143 41 -234.5 130.5t-135 211.5t-43.5 256q0 164 61.5 324.5t176 278.5t275.5 161q-54 -85 -99 -187t-72.5 -215t-27.5 -229q0 -101 25 -201q15 -57 37 -105
q19 30 51.5 57.5t81 45.5t114.5 18q110 -2 194.5 -38.5t154.5 -97.5q28 51 49 114q34 106 34 219q0 131 -44 257t-130 221q-85 88 -199 178l-75 62q-35 25 -76 52q-96 61 -183 134.5t-115 162.5q-8 30 -8 58q0 68 37 126t90.5 107t108.5 92q30 23 56 45q-40 -51 -60 -83
q-27 -42 -27 -90q0 -76 95 -158q72 -62 178 -136q149 -102 312 -248q149 -139 230.5 -299t81.5 -333q0 -101 -30 -205q-49 -170 -212 -391q27 -31 62 -74q132 -163 232 -255q152 -140 271 -140q72 0 137 58l1 -25q0 -83 -39 -146.5t-104.5 -99.5t-143.5 -36zM770 140
q56 0 112 24q-48 73 -96.5 124.5t-100.5 71.5q-28 10 -52 10q-39 0 -64.5 -22t-25.5 -54q0 -54 70 -104q76 -50 157 -50z" />
    <glyph glyph-name="R" unicode="R" horiz-adv-x="1159" 
d="M469 274q0 -538 -594 -734q-97 -34 -217 -34q-179 0 -261 93q-57 64 -57 147q0 119 102 225l89 88q-37 -50 -37 -93q0 -54 43 -94.5t106 -64.5t128 -28l42 -1q122 0 199 25q66 22 98 53t41 73.5t9 135.5l-1 -1v892q0 60 21 97t54 61.5t73 46.5q45 24 87.5 56.5t74.5 86.5
v-774q84 1 160 15q128 23 194 125q34 53 34 128q0 184 -200 394q-150 156 -350 291q-85 56 -156 123q-103 96 -103 201q0 68 37 126t90.5 107t108.5 92q30 23 56 45l-4 -6q-30 -35 -56.5 -77t-26.5 -90q0 -75 95 -157q72 -63 176 -136q87 -61 182 -135q194 -152 316 -319
q129 -177 129 -348q0 -265 -305 -403q47 -21 96 -61q80 -60 120 -141t55 -189q8 -55 13 -118q7 -95 25 -189t66 -165q64 -87 164 -125q60 -22 159 -22l-1 -2q-5 -26 -45 -47q-68 -37 -162 -37q-95 0 -200 45q-82 35 -147 94q-87 89 -130.5 242t-47.5 278q-3 224 -54 293
q-32 43 -76.5 56t-92.5 13q-32 0 -62 -2t-57 -2v-153z" />
    <glyph glyph-name="S" unicode="S" horiz-adv-x="1148" 
d="M365 -125q-186 0 -321 68t-208 177.5t-73 234.5q0 79 32.5 158.5t100.5 152.5q-18 -65 -18 -122q0 -112 60 -189.5t160.5 -118t222.5 -40.5q164 0 341 77q142 68 230 186t88 227q0 55 -26.5 100.5t-83.5 73.5q-78 35 -160 35q-102 0 -199.5 -42t-170.5 -106
q-72 -66 -100 -116l-5 -7q-30 32 -48 77q-31 84 -31 168q0 207 159 424q70 95 150 169q163 146 312 248q106 74 178 136q95 82 95 158q0 48 -27 90q-20 32 -60 83q26 -22 56 -45q55 -43 108.5 -92t90.5 -107t37 -126q0 -28 -8 -58q-28 -89 -115 -162.5t-183 -134.5
q-41 -27 -76 -52l-81 -67q-98 -76 -175 -154t-127 -189q117 40 222 40q136 0 243 -59.5t169 -164t62 -238.5q0 -80 -25 -168q-74 -245 -262.5 -372t-447.5 -149q-44 -4 -86 -4z" />
    <glyph glyph-name="T" unicode="T" horiz-adv-x="1407" 
d="M1114 170q0 -60 -21 -97t-54 -61.5t-73 -46.5q-45 -24 -87.5 -56.5t-74.5 -86.5v1660q-25 1 -49 1q-65 0 -125 -12.5t-112 -43.5q-67 -42 -96.5 -105t-29.5 -134q0 -133 85 -244q47 -54 107 -92q-79 -48 -164 -48q-36 0 -71 9q-129 38 -188.5 132.5t-59.5 208.5
q0 108 48 214q68 140 203 216.5t295 94.5q59 7 118 7q112 0 231 -15q10 -1 21 -2q101 -13 193 -13q68 0 137 12.5t147 46.5q88 38 146.5 104t61.5 146q41 -42 60.5 -91.5t19.5 -101.5q0 -78 -38.5 -151t-108.5 -124q-71 -49 -138.5 -68t-134.5 -19q-49 0 -99.5 6.5
t-103.5 15.5q-22 3 -45 7v-1269z" />
    <glyph glyph-name="U" unicode="U" horiz-adv-x="1890" 
d="M2059 -590q-96 0 -202 45q-82 35 -147 94q-63 61 -100.5 157.5t-51.5 204.5q-9 74 -12 140q-55 -70 -147 -119t-194 -49q-78 0 -153 36.5t-136 121.5q-65 91 -87.5 199.5t-23.5 253.5q-1 117 -1 235v236q0 82 -2 156q-2 97 -26 211.5t-88 198.5t-186 89
q-97 0 -162.5 -42.5t-98.5 -108t-33 -134.5q0 -83 49.5 -150.5t150.5 -83.5q16 -2 31 -2q46 0 90 18.5t80 56.5q23 -53 23 -99q0 -64 -36 -112.5t-95 -75.5t-126 -27t-133 31t-116 99.5t-72 178.5q-7 36 -7 72q0 62 16 121q51 184 200 290.5t325 106.5q146 0 270 -76
q87 -56 146 -138q59 -89 85 -222.5t26 -229.5v-695q0 -77 31 -147.5t100 -105.5q42 -21 82 -21t82 21q69 35 100 105.5t31 147.5v1002q0 59 20.5 96t54 62t73.5 46q44 25 87 57.5t75 86.5v-1745q3 -245 83 -360q34 -46 78 -77.5t84 -46.5t83 -19q33 -3 86 -4l-1 -2
q-2 -10 -10.5 -21.5t-33.5 -25t-65.5 -25.5t-95.5 -12z" />
    <glyph glyph-name="V" unicode="V" horiz-adv-x="1233" 
d="M501 -178q-126 88 -198.5 170t-106 169t-41.5 190.5t-8 236.5v1165q32 -54 75 -86.5t87 -57.5q40 -21 73.5 -46t54 -62t20.5 -96l1 -1002q0 -76 31 -147t99 -106q42 -21 83 -21q40 0 82 21q69 35 99.5 106t30.5 147v738q0 105 10 231q25 294 159 426q65 59 147 94
q107 45 201 45q95 0 161 -37q27 -15 35.5 -27t10.5 -22q-106 0 -167 -22q-42 -16 -86 -47q-99 -71 -132 -198q-29 -109 -29 -294q1 -151 1 -731q0 -129 -61 -234.5t-174 -171.5q-129 -76 -261 -152q-75 -40 -128 -82t-69 -97z" />
    <glyph glyph-name="W" unicode="W" horiz-adv-x="1749" 
d="M1119 -178q-217 149 -285 293q-65 -49 -128 -89q-75 -46 -131.5 -93.5t-74.5 -110.5q-150 104 -225.5 200t-101.5 209.5t-26 267.5v1254q32 -54 75 -86.5t87 -57.5q40 -21 73.5 -46t54 -62t20.5 -96v-1002q0 -85 22.5 -142t58 -85.5t73.5 -28.5q39 0 74 28.5t57.5 85.5
t22.5 142v1350q32 -54 75 -86.5t88 -56.5q39 -22 72.5 -47t54.5 -61.5t21 -96.5v-1002q0 -85 22.5 -142t58 -85.5t73.5 -28.5q39 0 74 28.5t57.5 85.5t22.5 142v507q0 344 22 526q30 250 152 362q65 59 147 94q105 45 200 45q56 0 97 -12t66 -25.5t33.5 -25t10.5 -21.5l1 -2
q-32 0 -78.5 -3.5t-88.5 -19t-86 -47t-78 -77.5q-66 -91 -78 -268q-7 -106 -7 -221l-2 -157v-529q-4 -242 -200 -383l-175 -122q-73 -46 -128 -93t-73 -109z" />
    <glyph glyph-name="X" unicode="X" horiz-adv-x="1217" 
d="M-49 -585q-56 0 -96.5 12t-66 26t-34 26t-10.5 22q105 0 167 22q42 16 86 48q138 98 150 305q3 61 3 121v314q0 126 58 229.5t164 169.5q-146 133 -186 277q-36 131 -36 312v454q32 -55 75.5 -87.5t87.5 -56.5q40 -22 73.5 -46.5t54 -61.5t20.5 -96v-217q0 -76 31 -147
t99 -106q43 -21 83 -21t82 21q69 35 100 106t31 147l1 314q0 122 42 271t127 236q65 59 147 94q105 45 201 45q56 0 96.5 -12t66 -26t34 -26t10.5 -22q-105 0 -167 -22q-42 -16 -86 -47q-130 -93 -150 -299q-11 -114 -11 -229v-35q0 -49 -1 -94q-8 -254 -222 -391
q104 -94 151.5 -189.5t59 -209t11.5 -264.5v-461q-32 55 -75 87.5t-88 56.5q-39 22 -72.5 46.5t-54 61.5t-20.5 96v170q-1 6 -1 17v112q0 76 -30.5 147t-99.5 106q-42 21 -82 21q-41 0 -83 -21q-68 -35 -99 -106t-31 -147v-330q0 -97 -9 -205.5t-44 -207.5
q-65 -183 -256 -265q-105 -45 -201 -45z" />
    <glyph glyph-name="Y" unicode="Y" horiz-adv-x="1889" 
d="M1339 -590q-55 0 -95 12t-64 25q-27 15 -35.5 27t-10.5 22h9q33 0 76 4t83.5 19t84.5 46.5t78 78.5t50.5 102.5t20.5 114.5t4 117v67q-56 -68 -146.5 -115t-190.5 -47q-77 0 -152 36.5t-136 121.5q-64 91 -86.5 199.5t-23.5 253.5q-2 140 -2 376q0 177 -1 251
q-2 97 -26.5 211.5t-88.5 198.5t-186 89q-97 0 -162 -42.5t-98.5 -108.5t-33.5 -135q0 -83 49.5 -150t150.5 -83q16 -2 32 -2q46 0 90 18.5t79 56.5q23 -53 23 -99q0 -64 -36 -112.5t-95 -75.5t-126 -27t-133 31t-116 99.5t-72 178.5q-6 36 -6 72q0 63 15 121
q51 184 200 290.5t326 106.5q145 0 270 -76q88 -56 145 -138q59 -89 85.5 -222.5t26.5 -229.5v-695q0 -77 31 -147.5t99 -105.5q42 -21 83 -21q40 0 82 21q69 35 99.5 105.5t30.5 147.5l1 1002q0 59 20.5 96t54 62t73.5 46q44 25 87 57.5t75 86.5v-1615q0 -98 -9 -206
t-44 -207q-66 -185 -256 -265q-107 -45 -203 -45z" />
    <glyph glyph-name="Z" unicode="Z" horiz-adv-x="1355" 
d="M674 -133q-197 0 -346 104q-156 116 -209 300q-19 71 -19 143q0 194 119 398q133 229 358 378q132 87 275 165l40 22q-83 17 -172 39q-219 56 -331 56q-65 0 -123.5 -15t-120.5 -45q52 90 96 158q62 99 126 140q68 45 158 45q112 -4 294 -64q84 -26 167 -47
q96 -25 183 -27q81 0 152.5 24.5t116.5 75.5l-154 -331q-55 -21 -102 -37q-92 -32 -177.5 -69.5t-198.5 -109.5q-202 -129 -319 -304q-103 -159 -103 -317q0 -107 51 -198q74 -134 244 -173q69 -15 139 -15q57 0 111 10q152 31 252 131t122 235q4 30 4 54l-1 37
q50 -80 50 -172q0 -60 -17.5 -115.5t-43 -103t-51.5 -84.5q-79 -122 -221 -200q-166 -88 -349 -88z" />
    <glyph glyph-name="bracketleft" unicode="[" horiz-adv-x="692" 
d="M571 -621h-471v2240h592l-22 -46q-34 -64 -99 -64h-161v-2020h282l-22 -47q-34 -63 -99 -63z" />
    <glyph glyph-name="backslash" unicode="\" horiz-adv-x="1373" 
d="M1423 -178q-47 27 -90 35t-89 8l-83 -1q-114 0 -181 104l-1030 1785q48 -28 92 -36t91 -8l81 1q114 0 178 -103z" />
    <glyph glyph-name="bracketright" unicode="]" horiz-adv-x="692" 
d="M592 -621h-470q-66 0 -100 63l-22 47h282v2020h-160q-66 0 -100 64l-22 46h592v-2240z" />
    <glyph glyph-name="asciicircum" unicode="^" horiz-adv-x="1208" 
d="M1044 809h-203l-237 508l-236 -508h-204l440 944z" />
    <glyph glyph-name="underscore" unicode="_" horiz-adv-x="1175" 
d="M869 -270h-769q32 18 51.5 43.5t33 50.5t28 45t36.5 32.5t57 12.5h769q-32 -19 -51.5 -44.5t-33 -50.5t-28 -45t-36.5 -32t-57 -12z" />
    <glyph glyph-name="grave" unicode="`" horiz-adv-x="867" 
d="M703 1132h-198l-341 487h362z" />
    <glyph glyph-name="a" unicode="a" horiz-adv-x="1173" 
d="M1055 -15q-105 0 -164.5 53t-83.5 145q-40 -89 -106.5 -143.5t-171.5 -54.5q-73 0 -138.5 27.5t-118.5 82.5q-59 63 -88.5 148t-29.5 173q0 53 11 105q36 152 132 247t227 166q67 37 142 74q129 61 243.5 136.5t164.5 183.5v-985q0 -51 8 -84t32.5 -49t71.5 -16
q48 0 81 28.5t51 71.5t21 90h90q-16 -132 -60 -210q-36 -67 -88 -113q-84 -76 -226 -76zM614 191q27 0 59 15q50 26 70.5 77t20.5 106v530l-54 -31q-122 -70 -175 -149q-69 -103 -69 -283q0 -148 64 -225q33 -40 84 -40z" />
    <glyph glyph-name="b" unicode="b" horiz-adv-x="1059" 
d="M548 -15q-85 0 -162 29t-134 87q-84 91 -87 220l1 1087q5 116 105 175l32 18q53 28 96 60t76 89v-750q43 25 85 47q80 42 138 83.5t75 96.5q188 -130 248.5 -255.5t60.5 -312.5l1 -50q0 -122 -25.5 -231.5t-93 -197t-190.5 -145.5q-113 -50 -226 -50zM585 194
q119 0 161 165q28 110 28 296v73q0 53 -22 103t-70 74q-28 15 -57 15q-27 0 -58 -15q-48 -24 -70 -74t-22 -103l-1 -337q0 -47 7 -92.5t30.5 -75t73.5 -29.5z" />
    <glyph glyph-name="c" unicode="c" horiz-adv-x="945" 
d="M582 -18q-126 0 -222 59t-149 172q-36 80 -46.5 154.5t-10.5 161.5q0 114 36 196t94.5 140.5t127 102t134.5 78.5q81 41 139.5 83t75.5 98q56 -38 98 -74q61 -53 90 -112t29 -114q0 -82 -57 -140.5t-159 -58.5q0 53 -21.5 103t-69.5 74q-28 15 -58 15q-27 0 -58 -15
q-48 -24 -69.5 -74t-21.5 -103l-2 -163q0 -100 13 -192q15 -90 71 -150t154 -66l26 -1q131 0 249 54.5t187 173.5h73q-46 -125 -146.5 -212.5t-227.5 -135.5q-135 -50 -279 -54z" />
    <glyph glyph-name="d" unicode="d" horiz-adv-x="1177" 
d="M1059 -15q-105 0 -164.5 53t-83.5 145q-40 -89 -106.5 -143.5t-171.5 -54.5q-73 0 -138.5 27.5t-118.5 82.5q-66 73 -94 176.5t-28 211.5q1 178 72 294q68 110 176.5 184.5t236.5 140.5q64 34 129 71v230q0 114 105 180l31 17q54 28 97.5 60.5t76.5 90.5v-1408
q0 -51 8 -84t32.5 -49t71.5 -16q48 0 81 28.5t51 71.5t21 90h90q-16 -132 -60 -210q-36 -67 -88 -113q-84 -76 -226 -76zM625 194q26 0 52 12q48 25 69.5 74.5t21.5 103.5v642l-54 -32q-105 -60 -158 -126t-70 -152.5t-17 -211.5q0 -114 17 -178q29 -111 95 -127
q24 -5 44 -5z" />
    <glyph glyph-name="e" unicode="e" horiz-adv-x="973" 
d="M464 499l52 28q28 14 67 37q65 38 114.5 98t49.5 124q0 44 -32 85q-46 49 -101 49q-37 0 -71.5 -22t-56.5 -65t-22 -105v-229zM606 -17h-22q-118 0 -217 55.5t-156 174.5q-57 130 -57 265v51q0 114 36 196t94.5 141t127 102t135.5 78q80 42 139 84t76 97q51 -36 93 -70
q134 -116 134 -282l-2 -37q-11 -101 -64.5 -172t-132 -123.5t-163.5 -98.5q-97 -53 -119 -67l-26 -15q23 -107 82 -155.5t137 -49.5l26 -1q130 0 248 54.5t187 173.5h73q-46 -125 -146.5 -212.5t-227.5 -135t-255 -53.5z" />
    <glyph glyph-name="f" unicode="f" horiz-adv-x="566" 
d="M163 -623v1643h-123l22 46q30 64 105 64l3 21q18 124 79.5 207t144 139t163.5 98t140 84t76 97q55 -39 98 -75q61 -53 89.5 -111.5t28.5 -113.5q0 -83 -57 -141.5t-158 -58.5q0 54 -22 103.5t-70 74.5q-28 14 -58 14q-27 0 -58 -14q-48 -25 -69.5 -74.5t-21.5 -103.5
q0 -67 -2 -145v-1h154l-22 -47q-34 -63 -100 -63h-32v-1295q0 -114 -105 -180l-33 -19q-53 -27 -96 -59.5t-76 -89.5z" />
    <glyph glyph-name="g" unicode="g" horiz-adv-x="1072" 
d="M614 191q27 0 59 15q43 22 64.5 63t25.5 89v370q0 53 -22 102.5t-70 74.5q-28 15 -57 15q-27 0 -58 -15q-48 -25 -70 -74.5t-22 -102.5v-199q0 -130 18 -203q15 -55 48 -95t84 -40zM847 -788q-59 0 -115 39q66 5 121 38q35 23 54.5 55t19.5 64q0 37 -27 66.5t-86 38.5
q-24 3 -70 3q-12 0 -19 1q-131 2 -227 23.5t-179 86.5t-177 200q44 12 79 52.5t67 97.5l40 70q-29 21 -56 48q-57 61 -82 127.5t-30.5 138t-5.5 168.5q0 206 131 337q58 58 126.5 101.5t135.5 78.5q80 41 139 83t76 98q137 -95 203.5 -182.5t86.5 -192.5q20 -100 20 -238
v-13q0 -260 -94.5 -407t-302.5 -194q-63 -15 -131 -15q-58 0 -113 14l-32 -56l-1 -7q0 -11 5 -19q25 -48 74.5 -69.5t103.5 -21.5h215q118 0 193.5 -40.5t112 -106t36.5 -140.5q0 -99 -61 -194q-37 -55 -99.5 -94t-130.5 -39z" />
    <glyph glyph-name="h" unicode="h" horiz-adv-x="1183" 
d="M475 170q0 -60 -21 -97t-54 -61.5t-73 -46.5q-45 -24 -87.5 -56.5t-74.5 -86.5v1594q8 111 105 167q17 10 33 19q53 27 96 59.5t76 89.5v-751q44 25 86 48q79 41 137 82.5t74 96.5q188 -130 249 -255.5t61 -312.5l2 -135l-1 -180q0 -51 8 -84t32.5 -49t71.5 -16
q48 0 81 28.5t51 71.5t21 90h91q-18 -132 -61 -210q-36 -67 -87.5 -113t-118.5 -62q-56 -13 -111 -13q-68 0 -126.5 21.5t-94.5 69.5q-67 92 -67 242v408q0 53 -21.5 103t-69.5 74q-28 15 -58 15q-27 0 -58 -15q-48 -24 -69.5 -74t-21.5 -103v-558z" />
    <glyph glyph-name="i" unicode="i" horiz-adv-x="574" 
d="M452 -13q-68 0 -126.5 21.5t-94.5 69.5q-66 92 -66 242v560q0 116 105 180l33 19q53 27 96 59.5t76 89.5v-884q0 -51 8 -84t32 -49t72 -16t80.5 28.5t50.5 71.5t22 90h90q-18 -132 -60 -210q-36 -67 -88 -113q-84 -75 -230 -75zM320 1260l-220 220l220 219l219 -219z" />
    <glyph glyph-name="j" unicode="j" horiz-adv-x="515" 
d="M-134 -623q-55 39 -98 75q-61 53 -90 111.5t-29 114.5q0 82 57.5 140.5t158.5 58.5q0 -53 22 -103t70 -75q28 -14 57 -14q27 0 58 14q48 25 70 75t22 103l1 158v845q0 116 105 180l32 18q54 28 97 60t76 90v-1152q0 -114 -36.5 -196t-94.5 -141t-127 -102.5t-136 -78.5
q-80 -41 -139 -83t-76 -98zM320 1260l-219 220l219 219l220 -219z" />
    <glyph glyph-name="k" unicode="k" horiz-adv-x="1161" 
d="M475 600l127 70q68 42 100.5 87.5t32.5 83.5q0 35 -25.5 57t-72.5 22q-14 0 -30 -2q-53 -7 -92.5 -55.5t-39.5 -134.5v-128zM474 170q0 -60 -21 -97t-54 -61.5t-73 -46.5q-45 -24 -87.5 -56.5t-74.5 -86.5v1593q8 112 105 169q15 8 29 16q55 28 98.5 60t77.5 91v-752
q43 25 84 47q80 41 139 83.5t76 97.5q69 -46 125.5 -100.5t81.5 -132.5q10 -34 10 -65q0 -55 -26 -104t-71 -94q116 -78 146.5 -179t33.5 -241q2 -60 25 -88t86 -28q48 0 81 28.5t51 71.5t21 90h90q-16 -132 -60 -210q-36 -67 -87.5 -113t-119.5 -62q-56 -13 -111 -13
q-68 0 -126 21.5t-94 69.5q-67 92 -67 242q0 48 -9 92.5t-37.5 73.5t-85.5 33h-6q-27 0 -59 -14q-48 -25 -69.5 -75t-21.5 -103v-157z" />
    <glyph glyph-name="l" unicode="l" horiz-adv-x="574" 
d="M464 -13q-165 0 -232 91.5t-67 241.5v1083q0 115 105 181l33 18q53 27 96 59.5t76 89.5v-1407q0 -86 24 -117.5t88 -31.5q65 0 105.5 54.5t47.5 135.5h90q-33 -239 -156 -331q-90 -67 -210 -67z" />
    <glyph glyph-name="m" unicode="m" horiz-adv-x="1630" 
d="M474 170q0 -60 -21 -97t-54 -61.5t-73 -46.5q-45 -24 -87.5 -56.5t-73.5 -86.5v770q0 78 29.5 140t78 111.5t108 91.5t119.5 80l32 20q70 45 106.5 89t51.5 103q203 -140 260 -278q51 49 107 84q53 32 97 75t66 119q188 -130 248.5 -255.5t60.5 -312.5q2 -94 2 -189v-126
q0 -51 8 -84t32 -49t72 -16t80.5 28.5t50.5 71.5t22 90h90q-18 -132 -60 -210q-36 -67 -87.5 -113t-119.5 -62q-56 -13 -111 -13q-68 0 -126.5 21.5t-94.5 69.5q-66 92 -66 242v408q0 47 -17 92t-54 73q-19 13 -39 13q-17 0 -34 -10q-39 -28 -56.5 -74t-17.5 -94v-558
q0 -60 -21 -97t-54 -61.5t-73 -46.5q-45 -24 -87.5 -56.5t-76.5 -86.5v906q0 47 -17 92t-54 73q-19 13 -39 13q-17 0 -33 -10q-39 -28 -56.5 -74t-17.5 -94v-558z" />
    <glyph glyph-name="n" unicode="n" horiz-adv-x="1183" 
d="M476 170q0 -60 -21 -97t-54 -61.5t-73 -46.5q-45 -24 -87.5 -56.5t-75.5 -86.5v711q6 165 83.5 268.5t169.5 160.5q51 33 116 68q82 43 151 91.5t88 105.5q188 -130 248.5 -255.5t60.5 -312.5q2 -94 2 -189v-126q0 -51 8 -84t32 -49t72 -16t80.5 28.5t50.5 71.5t22 90h90
q-18 -132 -60 -210q-36 -67 -87.5 -113t-119.5 -62q-56 -13 -111 -13q-68 0 -126.5 21.5t-94.5 69.5q-66 92 -66 242v408q0 53 -22 103t-70 74q-28 15 -58 15q-27 0 -58 -15q-48 -24 -69.5 -74t-21.5 -103l1 -316v-242z" />
    <glyph glyph-name="o" unicode="o" horiz-adv-x="1048" 
d="M543 -17q-76 0 -145.5 26t-126 86t-81.5 126.5t-30.5 137.5t-5.5 146v22q0 114 36 196t94.5 140.5t127 102t135.5 78.5q80 41 139 83t76 98q132 -92 198 -176.5t88.5 -183.5t23.5 -235v-18q0 -143 -40.5 -271t-128.5 -218.5t-229 -124.5q-63 -15 -131 -15zM614 189
q40 0 76 34t55 102q18 72 18 202v199q0 53 -22 103t-70 74q-30 15 -58 15t-58 -15q-48 -24 -69.5 -74t-21.5 -103v-199q0 -48 3 -101.5t15 -100.5q19 -68 55 -102t77 -34z" />
    <glyph glyph-name="p" unicode="p" horiz-adv-x="1058" 
d="M165 -622v1039l-1 110q0 114 36 196t94.5 140.5t127 102t135.5 78.5q80 41 139 83t76 98q132 -92 198 -176.5t88.5 -183.5t23.5 -235v-28q0 -112 -21 -223t-74 -209q-45 -81 -121.5 -132t-190.5 -51q-141 0 -201 76v-310q0 -67 -21 -119.5t-84 -88.5l-33 -19
q-53 -27 -95.5 -59t-75.5 -89zM571 175q120 0 168 131q34 92 34 221v199q0 53 -22 103t-70 74q-30 15 -58 15t-58 -15q-48 -24 -69.5 -74t-21.5 -103v-413q0 -35 7 -67t28 -51.5t62 -19.5z" />
    <glyph glyph-name="q" unicode="q" horiz-adv-x="1122" 
d="M1072 -622q-33 58 -75.5 90t-95.5 60l-33 18q-106 65 -106 180v383q-84 -123 -234 -123q-73 0 -139 27.5t-119.5 84t-78.5 118t-31 126.5t-6 136v49q0 114 36 196t94.5 140.5t127 102t134.5 78.5q81 41 139.5 83t75.5 98q132 -92 198.5 -176.5t89 -183.5t23.5 -235v-1252
zM612 192q27 0 59 15q50 26 70.5 77t20.5 106v336q0 53 -21.5 103t-69.5 74q-30 15 -58 15t-58 -15q-48 -24 -69.5 -74t-21.5 -103l-1 -155q0 -174 17 -244q15 -55 48 -95t84 -40z" />
    <glyph glyph-name="r" unicode="r" horiz-adv-x="933" 
d="M474 170q0 -60 -21 -97t-54 -61.5t-73 -46.5q-45 -24 -87.5 -56.5t-74.5 -86.5v673q0 57 6 108q18 124 79.5 207t144 139t164.5 98q81 42 139.5 84t75.5 97q55 -39 98 -75q61 -53 90 -111.5t29 -113.5q0 -83 -57.5 -141.5t-158.5 -58.5q0 54 -21.5 103.5t-69.5 74.5
q-28 15 -58 15q-27 0 -58 -15q-48 -25 -70 -74.5t-22 -103.5l-1 -145v-413z" />
    <glyph glyph-name="s" unicode="s" horiz-adv-x="1030" 
d="M583 -13q-109 0 -205 37q-123 52 -185 154q-39 64 -39 130q1 77 38 139q50 77 147 119q26 11 36 11q5 0 5 -4t-6 -14t-11 -23q-10 -22 -10 -55q0 -94 76 -175q63 -58 164 -74q27 -4 55 -4q74 0 144 24q45 16 76.5 39t31.5 49q-2 30 -47 61q-57 40 -244 130
q-62 30 -121 60q-88 46 -239 130l19 32l118 226q100 8 188 54q51 24 92.5 55t68 66.5t44.5 73.5l2 -4q28 -37 45 -90q9 -32 9 -70q0 -33 -9 -66q-41 -112 -126 -171q38 -24 92 -54q60 -31 132 -81q36 -24 67 -56q72 -74 72 -200q0 -43 -8 -87q-16 -111 -102 -205
q-45 -48 -109 -87q-115 -70 -261 -70z" />
    <glyph glyph-name="t" unicode="t" horiz-adv-x="570" 
d="M460 -13q-166 0 -232.5 91.5t-66.5 242.5v699h-123l21 47q35 63 102 63v46q0 115 105 180l33 18q53 28 96 60t76 90v-394h153l-21 -46q-34 -64 -100 -64h-32v-675q0 -86 23.5 -117.5t88.5 -31.5t105.5 54.5t47.5 135.5h90q-33 -239 -157 -331q-90 -68 -209 -68z" />
    <glyph glyph-name="u" unicode="u" horiz-adv-x="1149" 
d="M1028 -13q-68 0 -126 22q-100 37 -139 155q-71 -128 -200 -164q-55 -13 -110 -13q-68 0 -126.5 22t-94.5 70q-67 92 -67 242v560q0 114 105 180l31 17q54 28 97.5 60.5t76.5 90.5v-884q0 -51 8 -84t32.5 -49t71.5 -16q48 0 81 28.5t51 71.5t21 90v495q0 114 105 180
l31 17q54 28 97.5 60.5t76.5 90.5v-884q0 -51 8 -84t32.5 -49t71.5 -16q48 0 81 28.5t51 71.5t21 90h90q-16 -132 -60 -210q-78 -144 -207 -176q-55 -13 -110 -13z" />
    <glyph glyph-name="v" unicode="v" horiz-adv-x="1061" 
d="M164 881q0 129 139 198q53 28 95.5 60t75.5 90v-884q0 -39 7 -73t27 -55t59 -21q103 0 163 133q50 113 78 300q15 104 15 211q0 125 -28 242t-94.5 207t-180.5 137q30 56 94 95t136 39q60 0 119 -32t104 -95q47 -70 67.5 -174t20.5 -222q0 -154 -26 -306.5t-62.5 -257.5
t-82.5 -184t-97 -140q-55 -77 -127.5 -119.5t-173.5 -42.5q-108 0 -181 46t-110 126.5t-37 185.5v536z" />
    <glyph glyph-name="w" unicode="w" horiz-adv-x="1584" 
d="M1015 -13q-97 0 -166 37.5t-109 104.5q-68 -100 -178 -129q-55 -13 -110 -13q-68 0 -126.5 22t-94.5 70q-67 92 -67 242v560q0 114 105 180l31 17q54 28 97.5 60.5t76.5 90.5v-884q0 -51 8 -84t32.5 -49t71.5 -16q35 0 56 28.5t31.5 71.5t13.5 90v495q0 114 106 180
l33 18q53 28 95.5 60t75.5 90v-884q0 -39 7 -73t27 -55t59 -21q59 0 98 39q68 67 102 200q56 204 56 405q0 125 -28 242t-94.5 207t-180.5 137q30 56 94 95t136 39q60 0 119 -32t104 -95q88 -130 88 -396q0 -154 -26 -306.5t-62.5 -257.5t-82.5 -184t-97 -140
q-55 -77 -127 -119.5t-174 -42.5z" />
    <glyph glyph-name="x" unicode="x" horiz-adv-x="926" 
d="M206 -323h-13q-80 7 -125 45t-61 94.5t-16 108.5q0 98 44 186.5t108 168.5t130 150l44 49q-52 129 -87 235l-146 416h321l137 -396q123 142 159 229q23 66 23 124q0 171 -183 261q28 54 88.5 94t128.5 40q82 -2 131 -38q82 -61 82 -193q0 -75 -24.5 -153t-62.5 -139
q-47 -74 -125.5 -167t-168.5 -193q83 -224 180 -334q61 -68 127 -69q75 0 130.5 57t64.5 133h90q-17 -129 -59 -207q-51 -93 -135.5 -142.5t-188.5 -49.5q-97 0 -175 51.5t-140 134t-110 180.5q-37 -43 -67 -84t-48.5 -86t-18.5 -100q0 -184 184 -271q-28 -54 -88.5 -94.5
t-129.5 -40.5z" />
    <glyph glyph-name="y" unicode="y" horiz-adv-x="1054" 
d="M440 -626q-56 39 -98 75q-61 53 -90 111.5t-29 113.5q0 84 57.5 142t158.5 58q0 -54 21.5 -103.5t69.5 -74.5q28 -15 58 -15q27 0 58 15q48 25 69.5 74.5t21.5 103.5l2 253q-68 -98 -177 -127q-55 -13 -110 -13q-68 0 -126.5 22t-94.5 70q-67 92 -67 242v560
q0 114 105 180l33 19q53 27 96 59.5t76 89.5v-884q0 -51 8 -84t32.5 -49t71.5 -16q48 0 80.5 28.5t51 71.5t21.5 90v495q0 114 105 180l33 19q53 27 96 59.5t76 89.5v-1157q0 -114 -36.5 -196t-94.5 -140.5t-127 -102t-136 -78.5q-80 -41 -139 -83t-76 -98z" />
    <glyph glyph-name="z" unicode="z" horiz-adv-x="952" 
d="M799 -245q-5 0 -5 2q0 5 5 14q21 39 21 82q0 19 -4 42q-19 87 -80.5 141t-155.5 63q-47 4 -87 4q-89 0 -162 -19.5t-123 -42t-71 -34.5l-13 -7q8 116 63.5 241.5t133.5 235t153 176.5q35 31 81 66q-4 3 -9 5q-28 19 -89 50q-72 36 -141 81q-67 43 -114 101
q-51 63 -51 145t55 153q48 61 107 97q-11 -26 -11 -58l1 -17q0 -44 62 -104q62 -52 181 -116.5t242 -125.5q176 -86 238 -129q-86 -43 -197.5 -119t-206 -167t-128.5 -179q48 8 98 8q108 0 204 -36q68 -29 114 -70q80 -74 101 -152q8 -32 8 -75q-11 -171 -185 -245
q-26 -11 -35 -11z" />
    <glyph glyph-name="braceleft" unicode="{" horiz-adv-x="1074" 
d="M1013 -625q-19 63 -86.5 111t-158.5 95q-76 40 -154.5 89t-144.5 116t-107.5 160.5t-41.5 223.5v74q0 49 -4.5 99.5t-20.5 95.5q-32 87 -122 121l-9 4l9 4q39 15 72 43q34 34 50 78.5t20.5 95t4.5 99.5v74q0 130 41 223t107.5 160t145 116.5t154.5 89.5q91 47 158.5 95
t86.5 111q66 -42 66 -129q0 -56 -26.5 -98t-61 -68t-62.5 -35q-44 23 -85 23t-83 -21q-69 -35 -100 -106t-31 -147v-207q0 -62 -4 -121t-22 -112t-59 -96t-113 -72q72 -29 113 -72t59 -96t22 -112t4 -121v-207q0 -76 31 -147t100 -106q42 -21 83 -21t85 23q28 -9 62.5 -35
t61 -68t26.5 -99q0 -85 -66 -128z" />
    <glyph glyph-name="bar" unicode="|" horiz-adv-x="638" 
d="M474 -621h-310v2240h310v-2240z" />
    <glyph glyph-name="braceright" unicode="}" horiz-adv-x="1243" 
d="M231 -625q-67 43 -67 127q0 57 26.5 99t61 68.5t62.5 35.5q44 -23 86 -23q40 0 83 21q69 35 99.5 106t30.5 147v203q0 62 4 122t22 113.5t59 97t113 72.5q-72 29 -113 72.5t-59 97t-22 113.5t-4 122v203q0 76 -30.5 147t-99.5 106q-43 21 -83 21q-42 0 -86 -23
q-28 9 -62.5 35.5t-61 68t-26.5 99.5q0 84 67 127q19 -63 86 -111t159 -95q76 -40 154 -89.5t144.5 -116.5t107.5 -160t41 -223v-73q0 -50 4.5 -100.5t20.5 -95.5q32 -87 119 -120l12 -5l-12 -5q-124 -48 -140 -216q-4 -50 -4 -100v-73q0 -130 -41 -223.5t-107.5 -160.5
t-144.5 -116t-154 -89q-92 -47 -159 -95t-86 -111z" />
    <glyph glyph-name="asciitilde" unicode="~" horiz-adv-x="1648" 
d="M1075 306q-51 0 -110 16q-70 20 -143 44q-91 31 -184.5 56t-187.5 25q-155 0 -283 -89l-3 -2q85 151 164 229q108 106 245 106q51 0 110 -15q69 -20 140 -44q91 -31 185 -56t189 -25q155 0 284 89l3 2q-86 -151 -165 -229q-107 -107 -244 -107z" />
    <glyph glyph-name="exclamdown" unicode="&#xa1;" horiz-adv-x="766" 
d="M228 -795v934q0 115 105 180l33 19q53 27 96 59t76 90v-934q0 -115 -105 -181l-33 -18q-53 -27 -96 -59.5t-76 -89.5zM383 520q-110 109 -219 219l219 219l219 -219z" />
    <glyph glyph-name="cent" unicode="&#xa2;" horiz-adv-x="1155" 
d="M559 222v682q-45 -26 -65 -74.5t-20 -100.5l-2 -162q0 -100 13 -192q16 -92 74 -153zM559 -279v264q-234 17 -338 229q-36 80 -46.5 155t-10.5 161q0 115 36.5 197t95 141t127.5 102.5t136 78.5v232q0 66 64 99l46 22v-290q82 50 103 117q55 -39 98 -75q61 -53 90 -111.5
t29 -114.5q0 -82 -57.5 -140.5t-158.5 -58.5q0 53 -22 103t-70 75l-12 5v-749q25 -5 53 -5q69 0 108.5 31t59 76t25.5 91h76q-7 -139 -87.5 -240t-234.5 -127v-145q0 -67 -63 -101z" />
    <glyph glyph-name="sterling" unicode="&#xa3;" horiz-adv-x="1687" 
d="M1182 0q-94 0 -231 51q-46 16 -99 32q-157 47 -293 47q-191 0 -323 -108l-6 -4q0 2 7 11q115 164 126 377q5 84 5 159v186h-204l22 47q34 63 101 63h81v159q0 67 6 133q18 124 79.5 206.5t144 138.5t163.5 98t140 84t76 97q55 -38 98 -74q119 -103 119 -226
q0 -82 -57.5 -140.5t-157.5 -58.5q-1 53 -22.5 103t-69.5 74q-28 15 -58 15q-27 0 -58 -15q-48 -24 -70 -74t-22 -103q-1 -145 -1 -417h415l-21 -47q-34 -63 -100 -63h-294v-93q0 -79 -6 -135.5t-34.5 -109.5t-91.5 -118q46 22 96 41q77 28 159 28t154 -21t138 -47
q105 -44 199 -52q97 0 172 35q39 25 50 42q5 7 8 7q1 -1 1 -6q0 -10 -4 -31q-21 -96 -90 -178q-95 -113 -247 -113z" />
    <glyph glyph-name="currency" unicode="&#xa4;" horiz-adv-x="1153" 
d="M894 375l-117 117q-89 -62 -200 -62t-200 62l-117 -117l-96 95l117 117q-61 89 -61 200t61 200l-117 117l96 96l117 -117q89 61 200 61t200 -61l117 117l95 -96l-116 -117q61 -89 61 -200t-61 -200l116 -117zM577 566q92 0 156.5 64.5t64.5 156.5t-64.5 156.5
t-156.5 64.5t-156.5 -64.5t-64.5 -156.5t64.5 -156.5t156.5 -64.5z" />
    <glyph glyph-name="yen" unicode="&#xa5;" horiz-adv-x="1375" 
d="M443 821l-45 26q-112 66 -173 171.5t-61 234.5v524q32 -54 75 -86.5t88 -57.5q39 -21 72.5 -46t54 -61.5t20.5 -96.5l1 -332q0 -76 30.5 -147t99.5 -106q42 -21 82 -21t83 21q68 35 99 106t31 147v332q0 60 21 96.5t54.5 61.5t72.5 46q45 25 88 57.5t74 86.5v-150
t0.5 -74.5t0.5 -37.5v-262q0 -129 -61 -234.5t-174 -171.5l-45 -26h221l-22 -47q-34 -63 -99 -63h-189v-93h310l-22 -47q-34 -63 -99 -63h-189v-687q-31 55 -74 87.5t-88 56.5q-39 22 -72.5 46.5t-54.5 61.5t-21 96v339h-309l21 46q34 64 102 64h186v93h-309l21 46
q34 64 102 64h97z" />
    <glyph glyph-name="brokenbar" unicode="&#xa6;" horiz-adv-x="638" 
d="M474 565h-310v1054h310v-1054zM474 -621h-310v1053h310v-1053z" />
    <glyph glyph-name="section" unicode="&#xa7;" horiz-adv-x="1527" 
d="M1169 180q17 44 17 87q0 77 -52 143q-52 61 -131.5 110t-154.5 86l-77 42l-42 24q-115 58 -211.5 137t-127.5 210q-12 58 -12 109q0 120 63.5 205.5t179.5 155.5q39 24 88 49q81 41 155 92.5t102 122.5q194 -133 267 -261q38 -64 38 -132q0 -65 -35 -127
q-81 -130 -226 -130v69q0 76 -31 147t-100 106l-10 4q-36 15 -73 15q-52 0 -98 -27q-46 -32 -69.5 -77t-23.5 -95t24 -101q53 -105 147 -160.5t200 -93.5l77 -32q84 -36 154 -90.5t113 -124.5t43 -151q0 -84 -57 -179q-57 -78 -109 -112zM560 -621q-304 210 -304 392
q0 65 35 128q82 130 226 130v-69q0 -76 31 -147t99 -106q37 -20 85 -20q51 0 97 28q46 32 69 76t23 94q0 51 -24 103q-52 103 -145.5 158.5t-197.5 94.5q-41 16 -80 33q-84 36 -154 90.5t-113 124.5t-43 152q0 84 56 178q58 78 109 112l29 20q-18 -44 -18 -87q0 -76 53 -143
q53 -62 132.5 -110.5t154.5 -86.5l75 -40l43 -24q115 -59 211.5 -137.5t127.5 -209.5q11 -58 11 -107q0 -122 -63 -207.5t-180 -156.5q-39 -23 -87 -48q-81 -41 -155.5 -92.5t-102.5 -122.5z" />
    <glyph glyph-name="dieresis" unicode="&#xa8;" horiz-adv-x="1278" 
d="M384 1314l-220 220l220 219l219 -219zM895 1314l-219 220l219 219l219 -219z" />
    <glyph glyph-name="copyright" unicode="&#xa9;" horiz-adv-x="1396" 
d="M708 451h-15q-67 0 -118.5 31.5t-79.5 92.5q-20 43 -25.5 83.5t-5.5 87.5q0 83 33.5 135t82 86t97.5 59q43 23 75 45.5t41 52.5q30 -20 53 -41q33 -28 48.5 -60t15.5 -61q0 -45 -31 -76.5t-86 -31.5q0 29 -11.5 55.5t-37.5 40.5q-15 8 -32 8q-14 0 -31 -8
q-26 -14 -37.5 -40.5t-11.5 -55.5l-1 -92q0 -52 7.5 -100t38.5 -82t89 -35q37 0 58.5 16.5t32 41t13.5 49.5h41q-4 -82 -55 -138.5t-148 -62.5zM698 253q-111 0 -208 41.5t-170 115t-114.5 170t-41.5 207.5t41.5 208t114.5 170t170 114.5t208 41.5q110 0 207 -41.5
t170.5 -114.5t115 -170t41.5 -208t-41.5 -207.5t-115 -170t-170.5 -115t-207 -41.5zM698 338q93 0 174.5 35t143 96.5t96.5 143t35 174.5t-35 174.5t-96.5 143.5t-143 97t-174.5 35t-175 -35t-143.5 -97t-96.5 -143.5t-35 -174.5t35 -174.5t96.5 -143t143.5 -96.5t175 -35z
" />
    <glyph glyph-name="ordfeminine" unicode="&#xaa;" horiz-adv-x="1179" 
d="M454 794q-114 0 -199 85q-46 49 -68.5 114.5t-22.5 134.5q0 41 8 80q28 118 102.5 191.5t175.5 128.5q51 28 109 57q100 47 189 105.5t128 142.5v-763q0 -59 15.5 -87t70.5 -28q30 0 53 15q0 -76 -51 -125t-120 -49q-21 0 -43 5q-102 25 -132 146q-32 -69 -83 -111
t-132 -42zM520 953q20 0 45 11q39 20 55 59.5t16 82.5v410l-42 -24q-94 -54 -136 -115q-53 -79 -53 -220q0 -114 50 -173q25 -31 65 -31z" />
    <glyph glyph-name="guillemotleft" unicode="&#xab;" horiz-adv-x="1238" 
d="M709 52q-47 20 -108 20q-20 0 -38.5 -1t-36.5 -1q-34 0 -66 10t-61 44l-235 280l235 281q29 34 61 44t66 10q18 0 36.5 -1t38.5 -1q61 0 108 20l-296 -353zM1074 52q-47 20 -108 20q-20 0 -38.5 -1t-36.5 -1q-34 0 -66 10t-61 44l-235 280l235 281q29 34 61 44t66 10
q18 0 36.5 -1t38.5 -1q61 0 108 20l-296 -353z" />
    <glyph glyph-name="logicalnot" unicode="&#xac;" horiz-adv-x="1182" 
d="M1018 198h-184v284h-670v184h854v-468z" />
    <glyph glyph-name="registered" unicode="&#xae;" horiz-adv-x="1222" 
d="M611 852q111 0 200 60q-37 14 -64 38q-58 58 -58 140v4q-1 69 -18 96q-16 22 -54 22l-38 -2v-240h-118q1 5 1 512h140q37 0 75 -8q73 -16 114 -60q23 -25 24 -57q0 -69 -99 -115q9 -5 18 -12l8 -5q40 -32 51.5 -69t13.5 -74t12.5 -69t47.5 -55q106 106 106 256t-106 257
q-49 49 -115 77.5t-141 28.5t-141 -28.5t-115.5 -78t-78 -115.5t-28.5 -141t28.5 -141t77.5 -115q107 -106 257 -106zM579 1256q64 0 95 24q31 30 31 67t-31 66q-20 16 -45 20.5t-50 4.5v-182zM611 767q-93 0 -174 35t-142.5 96t-96 142.5t-34.5 173.5q0 93 34.5 174
t96 142.5t142.5 96t174 34.5q92 0 173.5 -34.5t142.5 -96t96 -142.5t35 -174q0 -92 -35 -173.5t-96 -142.5t-142.5 -96t-173.5 -35z" />
    <glyph glyph-name="macron" unicode="&#xaf;" horiz-adv-x="1202" 
d="M831 1442h-667q33 18 52 43.5t33 50.5t28.5 45t36.5 32.5t57 12.5h667q-32 -19 -51.5 -44.5t-33 -50.5t-28.5 -45t-36.5 -32t-57.5 -12z" />
    <glyph glyph-name="degree" unicode="&#xb0;" horiz-adv-x="943" 
d="M472 1004q-128 0 -218 90t-90 217q0 128 90 218t218 90q127 0 217 -90t90 -218q0 -127 -90 -217t-217 -90zM472 1152q66 0 112.5 46.5t46.5 112.5t-46.5 113t-112.5 47t-113 -47t-47 -113t47 -112.5t113 -46.5z" />
    <glyph glyph-name="plusminus" unicode="&#xb1;" horiz-adv-x="1102" 
d="M643 305h-184v296h-295v184h295v295h184v-295h295v-184h-295v-296zM938 0h-774v184h774v-184z" />
    <glyph glyph-name="uni00B2" unicode="&#xb2;" horiz-adv-x="874" 
d="M164 876q5 44 16 94q32 129 98 213.5t165 167.5l8 8q32 26 57.5 56.5t25.5 70.5q0 16 -5 33q-30 79 -99 79q-56 0 -86 -54q-20 -34 -20 -70q0 -18 6.5 -36.5t16 -27t29.5 -8.5q-14 -34 -41 -52t-54 -18q-29 0 -53 17q-40 26 -40 84q0 82 103 155q44 31 104 63
q37 18 72.5 43t47.5 59q77 -49 129 -124q17 -27 29.5 -62.5t12.5 -68.5q0 -61 -32 -108.5t-81 -88.5t-104 -79q-48 -33 -91 -68q-82 -66 -103 -133q10 9 31 18q39 15 84 15q38 0 77 -9q26 -6 55.5 -16t59 -18t53.5 -8q35 0 58 23q14 13 17 29l-2 -10q-7 -48 -26 -90
q-23 -47 -70 -67q-25 -9 -53 -9q-30 0 -62.5 7.5t-65.5 17.5q-82 26 -134 26q-54 0 -87 -17q-28 -12 -46 -37z" />
    <glyph glyph-name="uni00B3" unicode="&#xb3;" horiz-adv-x="852" 
d="M398 874q-98 0 -172 66q-62 55 -62 129q0 42 28 87q44 61 107 61q32 0 63 -19q27 -20 38 -48l-22 1q-22 0 -42 -10q-7 -4 -12 -9q-32 -33 -32 -68t25.5 -62.5t68.5 -27.5q12 0 26 3q57 14 84 62.5t27 102.5q0 16 -2 31q-13 69 -65 104.5t-118 39.5q45 22 70 37
q77 42 80 125q0 52 -30 80.5t-63 28.5q-27 0 -48 -20q-18 -21 -18 -46q0 -40 36 -72q11 -9 22 -12t22 -4q-40 -58 -90 -58q-51 0 -86 50q-15 29 -15 53v10q0 90 112 153l15 8q45 24 78.5 48t42.5 55q83 -58 121 -111q37 -56 37 -107q0 -57 -35 -105.5t-91 -82.5
q44 -13 87 -41q77 -53 98 -145q5 -24 5 -46q0 -73 -43 -127t-109.5 -84t-137.5 -30z" />
    <glyph glyph-name="acute" unicode="&#xb4;" horiz-adv-x="867" 
d="M362 1132h-198l177 487h362z" />
    <glyph glyph-name="mu" unicode="&#xb5;" horiz-adv-x="1213" 
d="M164 -365v1598q33 -57 76 -89.5t96 -59.5l33 -19q105 -66 105 -180v-516q0 -61 20 -97.5t50 -52t61 -15.5q36 1 66 17q68 39 68 148v516q0 114 105 180l31 17q54 28 97.5 60.5t76.5 90.5v-1241l-23 -1q-67 0 -125.5 22t-94.5 70q-27 37 -44 85q-19 -50 -61 -74t-88 -24
q-45 0 -84 22t-55 64v-173q0 -115 -105 -180l-33 -19q-53 -27 -96 -59.5t-76 -89.5z" />
    <glyph glyph-name="paragraph" unicode="&#xb6;" horiz-adv-x="1912" 
d="M1134 -354v2000h-191v-1652q0 -60 -21 -96.5t-54.5 -61.5t-72.5 -47q-45 -24 -88 -56.5t-74 -86.5v1172q-129 0 -235.5 63.5t-170 170t-63.5 235.5t63.5 235.5t170 170t235.5 63.5h1115l-21 -47q-34 -63 -100 -63h-183v-1652q0 -60 -20.5 -96.5t-54 -61.5t-73.5 -47
q-44 -24 -87 -56.5t-75 -86.5z" />
    <glyph glyph-name="periodcentered" unicode="&#xb7;" horiz-adv-x="700" 
d="M350 623l-186 187l186 186l186 -186z" />
    <glyph glyph-name="periodcentered" unicode="&#x2219;" horiz-adv-x="700" 
d="M350 623l-186 187l186 186l186 -186z" />
    <glyph glyph-name="cedilla" unicode="&#xb8;" horiz-adv-x="837" 
d="M309 -428h-10q-49 0 -87 18q-48 33 -48 79q0 24 14 45t40 34q23 11 51 17l11 3l-2 -18l2 -12q3 -18 23 -37q25 -25 81 -28q35 0 68 11q56 20 56 71q0 19 -9 37q-17 31 -48.5 45t-70.5 16h-20q-72 0 -117 -21q14 25 29.5 51.5t38 66t39.5 71.5l10 17h89q-14 -21 -57 -97
q11 6 26 9q22 8 88 10q33 0 67 -7q44 -13 72 -41t28 -69q0 -48 -37 -93q-45 -50 -110 -92q-58 -42 -110 -65q-54 -20 -107 -21z" />
    <glyph glyph-name="uni00B9" unicode="&#xb9;" horiz-adv-x="651" 
d="M332 815v708q-47 -14 -75 -51q-16 -25 -16 -50q1 -32 12 -52q-15 0 -34 5.5t-37 29.5q-18 20 -18 53q0 50 40 100q47 51 150 94q19 9 21.5 11t24.5 14q40 22 62 43l7 7q9 11 18 26v-764q0 -57 -53 -90l-18 -10q-26 -14 -47 -30t-37 -44z" />
    <glyph glyph-name="ordmasculine" unicode="&#xba;" horiz-adv-x="1038" 
d="M465 791q-58 0 -112 19q-54 22 -97.5 68.5t-63.5 98t-24 107t-4 113.5v15q0 88 28 151.5t73 109t98 79t105 60.5q62 32 107.5 65t58.5 76q151 -104 197 -205q43 -97 43 -243v-31q0 -110 -31.5 -208t-99.5 -167.5t-176 -95.5q-49 -12 -102 -12zM520 951q30 0 58 26.5
t42.5 79.5t14.5 155v154q0 41 -17 80t-54 58q-23 11 -44 11q-22 0 -45 -11q-37 -19 -54 -58t-17 -80v-154q0 -37 2.5 -78.5t11.5 -77.5q15 -52 43 -78.5t59 -26.5z" />
    <glyph glyph-name="guillemotright" unicode="&#xbb;" horiz-adv-x="1238" 
d="M529 52l296 352l-296 353q47 -20 108 -20q20 0 38.5 1t36.5 1q34 0 66 -10t61 -44l235 -281l-235 -280q-29 -34 -61 -44t-66 -10q-18 0 -36.5 1t-38.5 1q-61 0 -108 -20zM164 52l296 352l-296 353q47 -20 108 -20q20 0 38.5 1t36.5 1q34 0 66 -10t61 -44l235 -281
l-235 -280q-29 -34 -61 -44t-66 -10q-18 0 -36.5 1t-38.5 1q-61 0 -108 -20z" />
    <glyph glyph-name="onequarter" unicode="&#xbc;" horiz-adv-x="1612" 
d="M1216 -87v266h-340q35 59 70.5 140t59.5 171t24 171q0 76 -27 136q-14 28 -33 42q24 12 65 12q91 0 122 -91q10 -30 10 -68q0 -69 -24.5 -154.5t-59 -162.5t-65.5 -125l198 -2v428q0 59 53 91l15 8q27 14 49 30.5t38 45.5v-603h77l-14 -44q-10 -25 -36 -25h-27v-92
q0 -58 -52 -90l-17 -9q-27 -14 -48.5 -30.5t-37.5 -44.5zM332 815v708q-47 -14 -75 -51q-16 -25 -16 -50q1 -32 12 -52q-15 0 -34 5.5t-37 29.5q-18 20 -18 53q0 50 40 100q47 51 150 94q19 9 21.5 11t24.5 14q40 22 62 43l7 7q9 11 18 26v-764q0 -57 -53 -90l-18 -10
q-26 -14 -47 -30t-37 -44zM309 0h-127l1012 1753h127z" />
    <glyph glyph-name="onehalf" unicode="&#xbd;" horiz-adv-x="1529" 
d="M332 815v708q-45 -13 -75 -51q-16 -25 -16 -50q1 -32 12 -52q-15 0 -34 5.5t-37 29.5q-18 21 -18 56q4 103 139 168q35 17 70 32q5 5 22 14q40 20 65 44l9 8q9 11 18 26v-764q0 -57 -53 -90l-18 -10q-26 -14 -47 -30t-37 -44zM308 0h-127l1013 1753h127zM819 -26
q24 190 115 307q66 84 164 168l6 5q33 27 59 58t26 71q0 16 -5 33q-30 80 -98 80q-17 0 -35 -7q-33 -13 -52 -47.5t-19 -70.5q0 -18 5 -34q7 -20 16.5 -28.5t30.5 -8.5q-13 -33 -42 -53q-26 -17 -54 -17q-29 0 -53 17q-39 26 -39 83q0 83 102 156q45 31 99 60q37 18 74.5 44
t50.5 61q121 -78 159 -186q12 -35 13 -68q0 -61 -32 -109t-82 -89t-105 -79q-47 -34 -90 -68q-83 -66 -103 -133q10 9 31 18q39 15 84 15q38 0 77 -9q25 -6 54 -16t59 -18t55 -8q36 0 58 22q14 14 17 29q-7 -53 -29 -99.5t-68 -66.5q-25 -9 -53 -9q-30 0 -62.5 7.5
t-65.5 17.5q-82 26 -134 26q-55 0 -87 -17q-30 -12 -47 -37z" />
    <glyph glyph-name="threequarters" unicode="&#xbe;" horiz-adv-x="1663" 
d="M398 874q-99 0 -172 66q-62 55 -62 129q0 42 28 87q43 61 107 61q31 0 63 -19q28 -20 37 -48l-21 1q-22 0 -43 -10l-2 -1l-9 -8q-33 -33 -33 -69q0 -35 26 -62t68 -27q13 0 27 3q56 14 83.5 62.5t27.5 102.5q0 16 -2 31q-13 69 -65 104.5t-119 39.5q36 16 71 37
q70 38 79 114l1 13q0 51 -30 79t-63 28q-27 0 -48 -20q-18 -21 -18 -46q0 -40 36 -72q17 -13 44 -16q-40 -58 -90 -58q-51 0 -86 50q-15 29 -15 53v10q0 90 112 153l14 7q45 24 78.5 48.5t43.5 55.5q83 -58 121 -111q37 -55 37 -107q0 -57 -35 -105.5t-91 -82.5
q44 -13 87 -41q77 -53 97 -145q5 -24 5 -47q0 -72 -43 -126.5t-109.5 -84t-136.5 -29.5zM1267 -87v266h-341q35 59 70.5 140t60 170.5t24.5 170.5q0 76 -28 137q-14 28 -33 42q26 12 66 12q90 0 122 -91q10 -30 10 -68q0 -69 -25 -154.5t-59 -162.5t-66 -125l199 -2v428
q0 59 52 91l13 7q28 14 50.5 30.5t39.5 46.5v-603h77l-15 -44q-11 -25 -35 -25h-27v-92q0 -58 -53 -90l-18 -10q-26 -14 -47 -30t-37 -44zM359 0h-127l1012 1753h127z" />
    <glyph glyph-name="questiondown" unicode="&#xbf;" horiz-adv-x="898" 
d="M480 -795q-166 115 -241 221t-75 216q0 95 52 180q45 69 101 124q48 48 86.5 103.5t50.5 135.5q2 19 2 35q0 41 -20 63.5t-68 34.5q20 43 57 79q62 48 135 48q53 0 97 -30t56 -97q3 -18 3 -35q0 -54 -22 -102t-55.5 -93t-70.5 -88q-50 -56 -87.5 -111.5t-43.5 -114.5
l-1 -24q0 -69 28 -117t71 -73t87 -25q54 0 96 40q35 42 35 90q0 82 -71 145q-22 17 -44 23t-44 9l3 3q41 60 98 95q39 19 78 19q103 0 172 -100q31 -60 31 -107l1 -19q0 -125 -117 -229q-59 -52 -130 -90q-93 -48 -161.5 -96.5t-88.5 -112.5zM570 520l-219 219l219 219
l219 -219z" />
    <glyph glyph-name="Agrave" unicode="&#xc0;" horiz-adv-x="1713" 
d="M1402 694l1 639q-176 -130 -291 -339q181 -120 290 -300zM1016 -368q-62 1 -129 32.5t-114 95.5q-53 78 -78.5 196.5t-25.5 249.5q0 94 12 188q40 300 181 548q-60 10 -118 10q-145 -3 -246 -58q-133 -72 -133 -211q0 -41 11 -76q27 -60 65 -76q35 -18 65 -22l-3 -4
q-39 -55 -102 -92q-49 -28 -112 -28q-30 0 -62 8q-104 28 -169 135q-39 73 -39 160q0 185 162 316q126 99 314 131q63 10 129 10q128 0 263 -42l62 -23q244 338 632 546q39 22 72 51t60 76v-1931q-32 54 -74.5 86.5t-87.5 56.5q-40 22 -73 46.5t-54 61.5t-21 97l-1 92
q-2 59 -9 119.5t-29 122.5q-48 131 -153 244q-71 77 -159 126q-109 -253 -109 -522q0 -124 27.5 -241t94 -206.5t181.5 -137.5q-30 -56 -94 -95.5t-136 -39.5zM1508 1736h-21q-117 0 -206.5 41t-140 103t-50.5 123q0 74 72 120q46 26 90 29l6 1l-1 -22q0 -82 35 -157
t91.5 -136t124.5 -102z" />
    <glyph glyph-name="Aacute" unicode="&#xc1;" horiz-adv-x="1713" 
d="M1402 694l1 639q-176 -130 -291 -339q181 -120 290 -300zM1016 -368q-62 1 -129 32.5t-114 95.5q-53 78 -78.5 196.5t-25.5 249.5q0 94 12 188q40 300 181 548q-60 10 -118 10q-145 -3 -246 -58q-133 -72 -133 -211q0 -41 11 -76q27 -60 65 -76q35 -18 65 -22l-3 -4
q-39 -55 -102 -92q-49 -28 -112 -28q-30 0 -62 8q-104 28 -169 135q-39 73 -39 160q0 185 162 316q126 99 314 131q63 10 129 10q128 0 263 -42l62 -23q244 338 632 546q39 22 72 51t60 76v-1931q-32 54 -74.5 86.5t-87.5 56.5q-40 22 -73 46.5t-54 61.5t-21 97l-1 92
q-2 59 -9 119.5t-29 122.5q-48 131 -153 244q-71 77 -159 126q-109 -253 -109 -522q0 -124 27.5 -241t94 -206.5t181.5 -137.5q-30 -56 -94 -95.5t-136 -39.5zM1259 1747h-21q68 41 124.5 102t91.5 136t35 157l-1 22l6 -1q44 -3 90 -29q72 -46 72 -120q0 -61 -50.5 -123
t-140 -103t-206.5 -41z" />
    <glyph glyph-name="Acircumflex" unicode="&#xc2;" horiz-adv-x="1713" 
d="M1402 694l1 639q-176 -130 -291 -339q181 -120 290 -300zM1016 -368q-62 1 -129 32.5t-114 95.5q-53 78 -78.5 196.5t-25.5 249.5q0 94 12 188q40 300 181 548q-60 10 -118 10q-145 -3 -246 -58q-133 -72 -133 -211q0 -41 11 -76q27 -60 65 -76q35 -18 65 -22l-3 -4
q-39 -55 -102 -92q-49 -28 -112 -28q-30 0 -62 8q-104 28 -169 135q-39 73 -39 160q0 185 162 316q126 99 314 131q63 10 129 10q128 0 263 -42l62 -23q244 338 632 546q39 22 72 51t60 76v-1931q-32 54 -74.5 86.5t-87.5 56.5q-40 22 -73 46.5t-54 61.5t-21 97l-1 92
q-2 59 -9 119.5t-29 122.5q-48 131 -153 244q-71 77 -159 126q-109 -253 -109 -522q0 -124 27.5 -241t94 -206.5t181.5 -137.5q-30 -56 -94 -95.5t-136 -39.5zM1553 1721q-67 0 -127.5 64t-86.5 171q-26 -107 -86 -171t-128 -64q-56 0 -107 52q-35 44 -46 89
q130 19 225.5 110t141.5 209q46 -118 141.5 -209t225.5 -110q-11 -45 -45 -89q-51 -52 -108 -52z" />
    <glyph glyph-name="Atilde" unicode="&#xc3;" horiz-adv-x="1713" 
d="M1402 694l1 639q-176 -130 -291 -339q181 -120 290 -300zM1016 -368q-62 1 -129 32.5t-114 95.5q-53 78 -78.5 196.5t-25.5 249.5q0 94 12 188q40 300 181 548q-60 10 -118 10q-145 -3 -246 -58q-133 -72 -133 -211q0 -41 11 -76q27 -60 65 -76q35 -18 65 -22l-3 -4
q-39 -55 -102 -92q-49 -28 -112 -28q-30 0 -62 8q-104 28 -169 135q-39 73 -39 160q0 185 162 316q126 99 314 131q63 10 129 10q128 0 263 -42l62 -23q244 338 632 546q39 22 72 51t60 76v-1931q-32 54 -74.5 86.5t-87.5 56.5q-40 22 -73 46.5t-54 61.5t-21 97l-1 92
q-2 59 -9 119.5t-29 122.5q-48 131 -153 244q-71 77 -159 126q-109 -253 -109 -522q0 -124 27.5 -241t94 -206.5t181.5 -137.5q-30 -56 -94 -95.5t-136 -39.5zM1441 1809q-49 0 -93 16t-87 36q-104 51 -176 51q-46 0 -79 -14q-48 -23 -73 -58l3 8q18 67 54 122q44 60 116 89
q55 22 104 22t93 -16t87 -36q104 -51 176 -51q97 0 149 69l3 3l-3 -8q-18 -67 -54 -122q-44 -59 -116 -89q-55 -22 -104 -22z" />
    <glyph glyph-name="Adieresis" unicode="&#xc4;" horiz-adv-x="1713" 
d="M1402 694l1 639q-176 -130 -291 -339q181 -120 290 -300zM1016 -368q-62 1 -129 32.5t-114 95.5q-53 78 -78.5 196.5t-25.5 249.5q0 94 12 188q40 300 181 548q-60 10 -118 10q-145 -3 -246 -58q-133 -72 -133 -211q0 -41 11 -76q27 -60 65 -76q35 -18 65 -22l-3 -4
q-39 -55 -102 -92q-49 -28 -112 -28q-30 0 -62 8q-104 28 -169 135q-39 73 -39 160q0 185 162 316q126 99 314 131q63 10 129 10q128 0 263 -42l62 -23q244 338 632 546q39 22 72 51t60 76v-1931q-32 54 -74.5 86.5t-87.5 56.5q-40 22 -73 46.5t-54 61.5t-21 97l-1 92
q-2 59 -9 119.5t-29 122.5q-48 131 -153 244q-71 77 -159 126q-109 -253 -109 -522q0 -124 27.5 -241t94 -206.5t181.5 -137.5q-30 -56 -94 -95.5t-136 -39.5zM1491 1735l-220 219l220 219l219 -219zM1008 1735l-219 219l219 219l219 -219z" />
    <glyph glyph-name="Aring" unicode="&#xc5;" horiz-adv-x="1713" 
d="M1402 694l1 639q-176 -130 -291 -339q181 -120 290 -300zM1412 1558q40 0 67.5 28t27.5 67t-27.5 67t-67.5 28q-39 0 -67 -28t-28 -67t28 -67t67 -28zM1625 1654q15 11 28 23q33 29 60 76v-1931q-32 54 -74.5 86.5t-87.5 56.5q-40 22 -73 46.5t-54 61.5t-21 97l-1 92
q-2 59 -9 119.5t-29 122.5q-48 131 -153 244q-71 77 -159 126q-73 -170 -98 -348q-11 -86 -11 -174q0 -124 27.5 -241t94 -206.5t181.5 -137.5q-30 -56 -94 -95.5t-135 -39.5h-2q-61 1 -128 32.5t-114 95.5q-53 78 -78.5 196.5t-25.5 249.5q0 94 12 188q40 300 181 548
q-60 10 -118 10l-28 -1q-128 -8 -218 -57t-120 -129q-13 -41 -13 -82t11 -76q27 -60 65 -76q35 -18 65 -22q-2 -2 -3 -4q-39 -55 -102 -92q-49 -28 -112 -28q-30 0 -62 8q-104 28 -169 135q-39 73 -39 160q0 43 10 87q30 130 152 229q126 99 314 131q63 10 129 10
q128 0 263 -42l62 -23q157 217 373 380q-33 16 -60 43q-62 62 -62 150t62 150t150 62t151 -62q61 -61 62 -149z" />
    <glyph glyph-name="AE" unicode="&#xc6;" horiz-adv-x="2032" 
d="M730 -368q-61 1 -128 32.5t-114 95.5q-53 78 -78.5 197t-25.5 250q0 95 12 188q27 210 107 396q-120 24 -207 24q-84 0 -151 -26.5t-143 -88.5q35 109 135 181t216 103q68 18 141 18q56 0 114 -8q31 52 67 101q164 219 379.5 397.5t373.5 261.5h663l-37 -63
q-56 -90 -154 -90h-472v-717q300 22 499 216q-119 -323 -499 -390v-557h663l-37 -63q-56 -90 -154 -90h-783l1 691q-219 11 -400 52q-59 -192 -59 -393q0 -124 27.5 -240.5t94 -206t180.5 -136.5q-30 -56 -95 -95.5t-136 -39.5zM1118 895v438q-193 -143 -312 -377
q149 -37 312 -61z" />
    <glyph glyph-name="Ccedilla" unicode="&#xc7;" horiz-adv-x="1104" 
d="M705 -11q-253 16 -399 201q-159 205 -159 605v163q0 130 41 223.5t107.5 160.5t144.5 116t154 89q92 47 159 95t86 111q194 -134 267 -260q37 -64 37 -132q0 -65 -35 -128q-36 -63 -94.5 -96.5t-129.5 -33.5h-2v69q0 77 -30.5 147.5t-99.5 105.5q-42 21 -82 21
q-41 0 -83 -21q-68 -35 -99 -105.5t-31 -147.5v-362q0 -104 18.5 -223.5t69 -219.5t144.5 -145q77 -32 172 -32q70 0 139 16.5t119 47.5q101 63 156 170l56 -23q-35 -137 -121 -229t-205 -138q-102 -39 -213 -45q-13 -22 -28 -48q4 2 10 4.5t16 4.5q20 7 62 9l26 1
q33 0 67 -7q44 -13 71 -41q29 -28 29 -69q0 -21 -8.5 -45t-28.5 -48q-45 -50 -110 -92q-58 -42 -110 -65q-54 -20 -107 -21h-10q-49 0 -87 18q-39 27 -47 65q-1 7 -1 14q0 24 13 43q15 23 41 36q23 11 51 17l11 3l-2 -18l2 -12q3 -18 23 -37q21 -20 62 -27l19 -1q35 0 68 11
q38 14 51 44q5 13 5 27q0 19 -9 37q-17 31 -50 45q-30 14 -69 16h-20q-32 0 -61 -4q-33 -6 -56 -17l28 50q17 28 40 68q11 20 22 39z" />
    <glyph glyph-name="Egrave" unicode="&#xc8;" horiz-adv-x="1107" 
d="M619 -111q-89 0 -180 28q-134 42 -225 134t-111 234q-3 22 -3 43q0 87 35.5 173.5t91.5 162t120 129.5l23 19q-105 50 -151.5 115.5t-46.5 139.5q0 81 46.5 163.5t123.5 155t170 125.5l65 36q92 47 159 95t86 111q304 -210 304 -392q0 -67 -33 -126t-92 -95.5t-135 -36.5
v69q0 77 -31 147.5t-100 105.5q-42 21 -82 21t-83 -21q-54 -27 -89 -82t-35 -117q0 -26 8 -52q43 -131 194 -163l80 -18l-49 -40q-56 -46 -112.5 -96t-104 -107t-76.5 -121.5t-29 -139.5q0 -23 3 -46q17 -118 93 -192.5t187 -108.5q100 -32 182 -32q87 0 158 30.5t136 80
t131 108.5l73 63l52 -54l-25 -28q-94 -108 -208.5 -203.5t-246 -156.5t-273.5 -61zM875 1852h-21q-117 0 -206.5 41t-140 103t-50.5 123q0 74 72 120q46 26 90 29l6 1l-1 -22q0 -82 35 -157t91.5 -136t124.5 -102z" />
    <glyph glyph-name="Eacute" unicode="&#xc9;" horiz-adv-x="1107" 
d="M619 -111q-89 0 -180 28q-134 42 -225 134t-111 234q-3 22 -3 43q0 87 35.5 173.5t91.5 162t120 129.5l23 19q-105 50 -151.5 115.5t-46.5 139.5q0 81 46.5 163.5t123.5 155t170 125.5l65 36q92 47 159 95t86 111q304 -210 304 -392q0 -67 -33 -126t-92 -95.5t-135 -36.5
v69q0 77 -31 147.5t-100 105.5q-42 21 -82 21t-83 -21q-54 -27 -89 -82t-35 -117q0 -26 8 -52q43 -131 194 -163l80 -18l-49 -40q-56 -46 -112.5 -96t-104 -107t-76.5 -121.5t-29 -139.5q0 -23 3 -46q17 -118 93 -192.5t187 -108.5q100 -32 182 -32q87 0 158 30.5t136 80
t131 108.5l73 63l52 -54l-25 -28q-94 -108 -208.5 -203.5t-246 -156.5t-273.5 -61zM618 1848h-21q68 41 124.5 102t91.5 136t35 157l-1 22l6 -1q44 -3 90 -29q72 -46 72 -120q0 -61 -50.5 -123t-140 -103t-206.5 -41z" />
    <glyph glyph-name="Ecircumflex" unicode="&#xca;" horiz-adv-x="1107" 
d="M619 -111q-89 0 -180 28q-134 42 -225 134t-111 234q-3 22 -3 43q0 87 35.5 173.5t91.5 162t120 129.5l23 19q-105 50 -151.5 115.5t-46.5 139.5q0 81 46.5 163.5t123.5 155t170 125.5l65 36q92 47 159 95t86 111q304 -210 304 -392q0 -67 -33 -126t-92 -95.5t-135 -36.5
v69q0 77 -31 147.5t-100 105.5q-42 21 -82 21t-83 -21q-54 -27 -89 -82t-35 -117q0 -26 8 -52q43 -131 194 -163l80 -18l-49 -40q-56 -46 -112.5 -96t-104 -107t-76.5 -121.5t-29 -139.5q0 -23 3 -46q17 -118 93 -192.5t187 -108.5q100 -32 182 -32q87 0 158 30.5t136 80
t131 108.5l73 63l52 -54l-25 -28q-94 -108 -208.5 -203.5t-246 -156.5t-273.5 -61zM950 1803q-67 0 -127.5 64t-86.5 171q-26 -107 -86 -171t-128 -64q-56 0 -107 52q-35 44 -46 89q130 19 225.5 110t141.5 209q46 -118 141.5 -209t225.5 -110q-11 -45 -45 -89
q-51 -52 -108 -52z" />
    <glyph glyph-name="Edieresis" unicode="&#xcb;" horiz-adv-x="1107" 
d="M619 -111q-89 0 -180 28q-134 42 -225 134t-111 234q-3 22 -3 43q0 87 35.5 173.5t91.5 162t120 129.5l23 19q-105 50 -151.5 115.5t-46.5 139.5q0 81 46.5 163.5t123.5 155t170 125.5l65 36q92 47 159 95t86 111q304 -210 304 -392q0 -67 -33 -126t-92 -95.5t-135 -36.5
v69q0 77 -31 147.5t-100 105.5q-42 21 -82 21t-83 -21q-54 -27 -89 -82t-35 -117q0 -26 8 -52q43 -131 194 -163l80 -18l-49 -40q-56 -46 -112.5 -96t-104 -107t-76.5 -121.5t-29 -139.5q0 -23 3 -46q17 -118 93 -192.5t187 -108.5q100 -32 182 -32q87 0 158 30.5t136 80
t131 108.5l73 63l52 -54l-25 -28q-94 -108 -208.5 -203.5t-246 -156.5t-273.5 -61zM978 1743l-220 219l220 219l219 -219zM495 1743l-219 219l219 219l219 -219z" />
    <glyph glyph-name="Igrave" unicode="&#xcc;" horiz-adv-x="1019" 
d="M609 -178v1583q0 11 1 20l-57 -31q-80 -47 -123 -104q-62 -86 -62 -196q0 -38 9 -75q30 -92 73 -131l17 -14q-18 -26 -64 -46q-33 -13 -78 -13q-28 0 -57 7q-81 20 -133 96q-35 57 -35 129q0 28 6 58q21 107 109 199q89 89 217 151q87 44 171 80q100 45 136 65
q72 36 99 60q31 26 48.5 45.5t32.5 47.5v-1583q0 -60 -21 -97t-54 -61.5t-73 -46.5q-45 -24 -87.5 -56.5t-74.5 -86.5zM649 1736h-21q-117 0 -206.5 41t-140 103t-50.5 123q0 74 72 120q46 26 90 29l6 1l-1 -22q0 -82 35 -157t91.5 -136t124.5 -102z" />
    <glyph glyph-name="Iacute" unicode="&#xcd;" horiz-adv-x="1019" 
d="M609 -178v1583q0 11 1 20l-57 -31q-80 -47 -123 -104q-62 -86 -62 -196q0 -38 9 -75q30 -92 73 -131l17 -14q-18 -26 -64 -46q-33 -13 -78 -13q-28 0 -57 7q-81 20 -133 96q-35 57 -35 129q0 28 6 58q21 107 109 199q89 89 217 151q87 44 171 80q100 45 136 65
q72 36 99 60q31 26 48.5 45.5t32.5 47.5v-1583q0 -60 -21 -97t-54 -61.5t-73 -46.5q-45 -24 -87.5 -56.5t-74.5 -86.5zM392 1757h-21q68 41 124.5 102t91.5 136t35 157l-1 22l6 -1q44 -3 90 -29q72 -46 72 -120q0 -61 -50.5 -123t-140 -103t-206.5 -41z" />
    <glyph glyph-name="Icircumflex" unicode="&#xce;" horiz-adv-x="1019" 
d="M609 -178v1583q0 11 1 20l-57 -31q-80 -47 -123 -104q-62 -86 -62 -196q0 -38 9 -75q30 -92 73 -131l17 -14q-18 -26 -64 -46q-33 -13 -78 -13q-28 0 -57 7q-81 20 -133 96q-35 57 -35 129q0 28 6 58q21 107 109 199q89 89 217 151q87 44 171 80q100 45 136 65
q72 36 99 60q31 26 48.5 45.5t32.5 47.5v-1583q0 -60 -21 -97t-54 -61.5t-73 -46.5q-45 -24 -87.5 -56.5t-74.5 -86.5zM1003 1803q-67 0 -127.5 64t-86.5 171q-26 -107 -86 -171t-128 -64q-56 0 -107 52q-35 44 -46 89q130 19 225.5 110t141.5 209q46 -118 141.5 -209
t225.5 -110q-11 -45 -45 -89q-51 -52 -108 -52z" />
    <glyph glyph-name="Idieresis" unicode="&#xcf;" horiz-adv-x="1019" 
d="M609 -178v1583q0 11 1 20l-57 -31q-80 -47 -123 -104q-62 -86 -62 -196q0 -38 9 -75q30 -92 73 -131l17 -14q-18 -26 -64 -46q-33 -13 -78 -13q-28 0 -57 7q-81 20 -133 96q-35 57 -35 129q0 28 6 58q21 107 109 199q89 89 217 151q87 44 171 80q100 45 136 65
q72 36 99 60q31 26 48.5 45.5t32.5 47.5v-1583q0 -60 -21 -97t-54 -61.5t-73 -46.5q-45 -24 -87.5 -56.5t-74.5 -86.5zM997 1773l-220 219l220 219l219 -219zM514 1773l-219 219l219 219l219 -219z" />
    <glyph glyph-name="Eth" unicode="&#xd0;" horiz-adv-x="1899" 
d="M977 472v-302q0 -60 -20.5 -96.5t-54 -61.5t-73.5 -46q-64 -33 -121 -88q94 -25 196 -25q79 0 158 14q147 28 236.5 109.5t130 199.5t40.5 252q0 132 -34 267q-61 238 -185.5 396t-310.5 309q-35 25 -75 51q-96 62 -183.5 135.5t-115.5 162.5q-8 30 -8 58q0 68 37 126
t90.5 107t108.5 92q30 23 56 45q-1 -1 -2 -3q-31 -36 -58 -79t-27 -91q0 -17 4 -35q18 -60 90 -122.5t177 -135.5q119 -82 249.5 -191t242.5 -258q99 -137 154.5 -310.5t55.5 -351.5q0 -118 -27 -230.5t-85 -210.5q-137 -223 -376 -369t-492 -158h-28q-153 0 -281 41
t-205 116t-77 178q0 79 55.5 173t179.5 199l66 56q-46 -109 -46 -196q0 -78 31.5 -138t87.5 -103t129 -68v582h-324q32 18 51.5 43.5t33.5 52.5q13 23 27.5 43t36.5 32.5t57 12.5h118v300q0 60 21 97t54 61.5t73 46.5q45 24 87.5 56.5t74.5 86.5v-648h341
q-32 -19 -51.5 -44.5t-33.5 -52.5q-13 -23 -27.5 -43t-36.5 -32t-57 -12h-135z" />
    <glyph glyph-name="Ntilde" unicode="&#xd1;" horiz-adv-x="1891" 
d="M2060 -590q-95 0 -204 46q-82 34 -147 93q-63 61 -100.5 157.5t-51.5 204.5q-16 147 -16 274v15l-1 89v883q0 77 -30.5 147.5t-99.5 105.5q-43 21 -83 21t-82 -21q-69 -35 -100 -105.5t-31 -147.5v-1002q0 -60 -21 -97t-54 -61.5t-73 -46.5q-45 -24 -87.5 -56.5
t-74.5 -86.5q0 1190 -3 1298q-2 97 -26 212t-88 199t-186 89q-97 0 -162.5 -42.5t-98.5 -108t-33 -134.5q0 -83 49.5 -150.5t150.5 -83.5q16 -2 31 -2q46 0 90 18.5t80 56.5q23 -53 23 -99q0 -64 -36 -112.5t-95 -75.5t-126 -27t-133 31t-116 99.5t-72 178.5q-6 36 -6 72
q0 63 15 121q51 184 200 290t325 106q147 0 270 -75q144 -94 207 -248q95 64 187.5 111.5t159.5 95.5t86 111q150 -104 225.5 -200.5t101 -209.5t26.5 -268q0 -58 -4 -117v-669l2 -128q0 -131 7 -250q12 -176 78 -268q34 -46 78 -77.5t86 -47t89 -19t78 -3.5
q-2 -10 -10.5 -22t-34 -26t-65.5 -26t-94 -12zM1489 1868q-49 0 -93 16t-87 36q-104 51 -176 51q-46 0 -79 -14q-48 -23 -73 -58l3 8q18 67 54 122q44 60 116 89q55 22 104 22t93 -16t87 -36q104 -51 176 -51q97 0 149 69l3 3l-3 -8q-18 -67 -54 -122q-44 -59 -116 -89
q-55 -22 -104 -22z" />
    <glyph glyph-name="Ograve" unicode="&#xd2;" horiz-adv-x="1415" 
d="M670 -82q-74 0 -157 22q-143 41 -234.5 130.5t-135 211t-43.5 255.5q0 165 61.5 325.5t176 278.5t275.5 161q-55 -85 -100 -187.5t-72.5 -215.5t-27.5 -229q0 -100 25 -200q46 -166 137 -247.5t194 -81.5q105 0 200.5 81.5t150.5 241.5q39 122 39 232q0 104 -31 199
q-72 213 -287 394q-55 48 -121 80.5t-133 32.5q-25 0 -49 -6l76 45q85 52 154 85.5t136 33.5q61 0 127.5 -37.5t147.5 -124.5q119 -128 183 -271.5t64 -296.5q0 -208 -123 -414q-130 -223 -266 -346q-167 -152 -367 -152zM1040 1716h-21q-117 0 -206.5 41t-140 103
t-50.5 123q0 74 72 120q46 26 90 29l6 1l-1 -22q0 -82 35 -157t91.5 -136t124.5 -102z" />
    <glyph glyph-name="Oacute" unicode="&#xd3;" horiz-adv-x="1415" 
d="M670 -82q-74 0 -157 22q-143 41 -234.5 130.5t-135 211t-43.5 255.5q0 165 61.5 325.5t176 278.5t275.5 161q-55 -85 -100 -187.5t-72.5 -215.5t-27.5 -229q0 -100 25 -200q46 -166 137 -247.5t194 -81.5q105 0 200.5 81.5t150.5 241.5q39 122 39 232q0 104 -31 199
q-72 213 -287 394q-55 48 -121 80.5t-133 32.5q-25 0 -49 -6l76 45q85 52 154 85.5t136 33.5q61 0 127.5 -37.5t147.5 -124.5q119 -128 183 -271.5t64 -296.5q0 -208 -123 -414q-130 -223 -266 -346q-167 -152 -367 -152zM783 1712h-21q68 41 124.5 102t91.5 136t35 157
l-1 22l6 -1q44 -3 90 -29q72 -46 72 -120q0 -61 -50.5 -123t-140 -103t-206.5 -41z" />
    <glyph glyph-name="Ocircumflex" unicode="&#xd4;" horiz-adv-x="1415" 
d="M670 -82q-74 0 -157 22q-143 41 -234.5 130.5t-135 211t-43.5 255.5q0 165 61.5 325.5t176 278.5t275.5 161q-55 -85 -100 -187.5t-72.5 -215.5t-27.5 -229q0 -100 25 -200q46 -166 137 -247.5t194 -81.5q105 0 200.5 81.5t150.5 241.5q39 122 39 232q0 104 -31 199
q-72 213 -287 394q-55 48 -121 80.5t-133 32.5q-25 0 -49 -6l76 45q85 52 154 85.5t136 33.5q61 0 127.5 -37.5t147.5 -124.5q119 -128 183 -271.5t64 -296.5q0 -208 -123 -414q-130 -223 -266 -346q-167 -152 -367 -152zM1115 1672q-67 0 -127.5 64t-86.5 171
q-26 -107 -86 -171t-128 -64q-56 0 -107 52q-35 44 -46 89q130 19 225.5 110t141.5 209q46 -118 141.5 -209t225.5 -110q-11 -45 -45 -89q-51 -52 -108 -52z" />
    <glyph glyph-name="Otilde" unicode="&#xd5;" horiz-adv-x="1415" 
d="M670 -82q-74 0 -157 22q-143 41 -234.5 130.5t-135 211t-43.5 255.5q0 165 61.5 325.5t176 278.5t275.5 161q-55 -85 -100 -187.5t-72.5 -215.5t-27.5 -229q0 -100 25 -200q46 -166 137 -247.5t194 -81.5q105 0 200.5 81.5t150.5 241.5q39 122 39 232q0 104 -31 199
q-72 213 -287 394q-55 48 -121 80.5t-133 32.5q-25 0 -49 -6l76 45q85 52 154 85.5t136 33.5q61 0 127.5 -37.5t147.5 -124.5q119 -128 183 -271.5t64 -296.5q0 -208 -123 -414q-130 -223 -266 -346q-167 -152 -367 -152zM1016 1691q-49 0 -93 16t-87 36q-104 51 -176 51
q-46 0 -79 -14q-48 -23 -73 -58l3 8q18 67 54 122q44 60 116 89q55 22 104 22t93 -16t87 -36q104 -51 176 -51q97 0 149 69l3 3l-3 -8q-18 -67 -54 -122q-44 -59 -116 -89q-55 -22 -104 -22z" />
    <glyph glyph-name="Odieresis" unicode="&#xd6;" horiz-adv-x="1415" 
d="M670 -82q-74 0 -157 22q-143 41 -234.5 130.5t-135 211t-43.5 255.5q0 165 61.5 325.5t176 278.5t275.5 161q-55 -85 -100 -187.5t-72.5 -215.5t-27.5 -229q0 -100 25 -200q46 -166 137 -247.5t194 -81.5q105 0 200.5 81.5t150.5 241.5q39 122 39 232q0 104 -31 199
q-72 213 -287 394q-55 48 -121 80.5t-133 32.5q-25 0 -49 -6l76 45q85 52 154 85.5t136 33.5q61 0 127.5 -37.5t147.5 -124.5q119 -128 183 -271.5t64 -296.5q0 -208 -123 -414q-130 -223 -266 -346q-167 -152 -367 -152zM1143 1645l-220 219l220 219l219 -219zM660 1645
l-219 219l219 219l219 -219z" />
    <glyph glyph-name="multiply" unicode="&#xd7;" horiz-adv-x="1006" 
d="M712 471l-209 209l-209 -209l-130 130l209 209l-209 208l130 131l209 -209l209 209l130 -131l-209 -208l209 -209z" />
    <glyph glyph-name="Oslash" unicode="&#xd8;" horiz-adv-x="1483" 
d="M167 -171l-103 87l190 227q-59 83 -87 184.5t-28 209.5q0 165 61 325.5t175.5 278.5t275.5 161q-54 -85 -99 -187t-72.5 -215t-27.5 -229q0 -129 38 -247l573 682q-73 98 -243 232l-75 62l-75 51q-96 61 -183.5 135.5t-115.5 163.5q-8 30 -8 58q0 68 37 126t90.5 107
t108.5 92q30 23 56 45q-40 -51 -60 -83q-27 -42 -27 -90q0 -76 95 -158q73 -63 178 -136q150 -103 312 -248q60 -57 110 -118l143 171l104 -87l-165 -197q120 -191 120 -402q0 -208 -123 -415q-131 -223 -266 -345q-168 -152 -368 -152q-74 0 -157 22q-120 34 -204 103z
M808 141q104 0 200 81.5t151 241.5q33 105 33 218q0 152 -59 298l-578 -689q51 -75 117 -112.5t136 -37.5z" />
    <glyph glyph-name="Ugrave" unicode="&#xd9;" horiz-adv-x="1890" 
d="M2059 -590q-96 0 -202 45q-82 35 -147 94q-63 61 -100.5 157.5t-51.5 204.5q-9 74 -12 140q-55 -70 -147 -119t-194 -49q-78 0 -153 36.5t-136 121.5q-65 91 -87.5 199.5t-23.5 253.5q-1 117 -1 235v236q0 82 -2 156q-2 97 -26 211.5t-88 198.5t-186 89
q-97 0 -162.5 -42.5t-98.5 -108t-33 -134.5q0 -83 49.5 -150.5t150.5 -83.5q16 -2 31 -2q46 0 90 18.5t80 56.5q23 -53 23 -99q0 -64 -36 -112.5t-95 -75.5t-126 -27t-133 31t-116 99.5t-72 178.5q-7 36 -7 72q0 62 16 121q51 184 200 290.5t325 106.5q146 0 270 -76
q87 -56 146 -138q59 -89 85 -222.5t26 -229.5v-695q0 -77 31 -147.5t100 -105.5q42 -21 82 -21t82 21q69 35 100 105.5t31 147.5v1002q0 59 20.5 96t54 62t73.5 46q44 25 87 57.5t75 86.5v-1745q3 -245 83 -360q34 -46 78 -77.5t84 -46.5t83 -19q33 -3 86 -4l-1 -2
q-2 -10 -10.5 -21.5t-33.5 -25t-65.5 -25.5t-95.5 -12zM1479 1750h-21q-117 0 -206.5 41t-140 103t-50.5 123q0 74 72 120q46 26 90 29l6 1l-1 -22q0 -82 35 -157t91.5 -136t124.5 -102z" />
    <glyph glyph-name="Uacute" unicode="&#xda;" horiz-adv-x="1890" 
d="M2059 -590q-96 0 -202 45q-82 35 -147 94q-63 61 -100.5 157.5t-51.5 204.5q-9 74 -12 140q-55 -70 -147 -119t-194 -49q-78 0 -153 36.5t-136 121.5q-65 91 -87.5 199.5t-23.5 253.5q-1 117 -1 235v236q0 82 -2 156q-2 97 -26 211.5t-88 198.5t-186 89
q-97 0 -162.5 -42.5t-98.5 -108t-33 -134.5q0 -83 49.5 -150.5t150.5 -83.5q16 -2 31 -2q46 0 90 18.5t80 56.5q23 -53 23 -99q0 -64 -36 -112.5t-95 -75.5t-126 -27t-133 31t-116 99.5t-72 178.5q-7 36 -7 72q0 62 16 121q51 184 200 290.5t325 106.5q146 0 270 -76
q87 -56 146 -138q59 -89 85 -222.5t26 -229.5v-695q0 -77 31 -147.5t100 -105.5q42 -21 82 -21t82 21q69 35 100 105.5t31 147.5v1002q0 59 20.5 96t54 62t73.5 46q44 25 87 57.5t75 86.5v-1745q3 -245 83 -360q34 -46 78 -77.5t84 -46.5t83 -19q33 -3 86 -4l-1 -2
q-2 -10 -10.5 -21.5t-33.5 -25t-65.5 -25.5t-95.5 -12zM1167 1755h-21q68 41 124.5 102t91.5 136t35 157l-1 22l6 -1q44 -3 90 -29q72 -46 72 -120q0 -61 -50.5 -123t-140 -103t-206.5 -41z" />
    <glyph glyph-name="Ucircumflex" unicode="&#xdb;" horiz-adv-x="1890" 
d="M2059 -590q-96 0 -202 45q-82 35 -147 94q-63 61 -100.5 157.5t-51.5 204.5q-9 74 -12 140q-55 -70 -147 -119t-194 -49q-78 0 -153 36.5t-136 121.5q-65 91 -87.5 199.5t-23.5 253.5q-1 117 -1 235v236q0 82 -2 156q-2 97 -26 211.5t-88 198.5t-186 89
q-97 0 -162.5 -42.5t-98.5 -108t-33 -134.5q0 -83 49.5 -150.5t150.5 -83.5q16 -2 31 -2q46 0 90 18.5t80 56.5q23 -53 23 -99q0 -64 -36 -112.5t-95 -75.5t-126 -27t-133 31t-116 99.5t-72 178.5q-7 36 -7 72q0 62 16 121q51 184 200 290.5t325 106.5q146 0 270 -76
q87 -56 146 -138q59 -89 85 -222.5t26 -229.5v-695q0 -77 31 -147.5t100 -105.5q42 -21 82 -21t82 21q69 35 100 105.5t31 147.5v1002q0 59 20.5 96t54 62t73.5 46q44 25 87 57.5t75 86.5v-1745q3 -245 83 -360q34 -46 78 -77.5t84 -46.5t83 -19q33 -3 86 -4l-1 -2
q-2 -10 -10.5 -21.5t-33.5 -25t-65.5 -25.5t-95.5 -12zM1577 1788q-67 0 -127.5 64t-86.5 171q-26 -107 -86 -171t-128 -64q-56 0 -107 52q-35 44 -46 89q130 19 225.5 110t141.5 209q46 -118 141.5 -209t225.5 -110q-11 -45 -45 -89q-51 -52 -108 -52z" />
    <glyph glyph-name="Udieresis" unicode="&#xdc;" horiz-adv-x="1890" 
d="M2059 -590q-96 0 -202 45q-82 35 -147 94q-63 61 -100.5 157.5t-51.5 204.5q-9 74 -12 140q-55 -70 -147 -119t-194 -49q-78 0 -153 36.5t-136 121.5q-65 91 -87.5 199.5t-23.5 253.5q-1 117 -1 235v236q0 82 -2 156q-2 97 -26 211.5t-88 198.5t-186 89
q-97 0 -162.5 -42.5t-98.5 -108t-33 -134.5q0 -83 49.5 -150.5t150.5 -83.5q16 -2 31 -2q46 0 90 18.5t80 56.5q23 -53 23 -99q0 -64 -36 -112.5t-95 -75.5t-126 -27t-133 31t-116 99.5t-72 178.5q-7 36 -7 72q0 62 16 121q51 184 200 290.5t325 106.5q146 0 270 -76
q87 -56 146 -138q59 -89 85 -222.5t26 -229.5v-695q0 -77 31 -147.5t100 -105.5q42 -21 82 -21t82 21q69 35 100 105.5t31 147.5v1002q0 59 20.5 96t54 62t73.5 46q44 25 87 57.5t75 86.5v-1745q3 -245 83 -360q34 -46 78 -77.5t84 -46.5t83 -19q33 -3 86 -4l-1 -2
q-2 -10 -10.5 -21.5t-33.5 -25t-65.5 -25.5t-95.5 -12zM1578 1727l-220 219l220 219l219 -219zM1095 1727l-219 219l219 219l219 -219z" />
    <glyph glyph-name="Yacute" unicode="&#xdd;" horiz-adv-x="1889" 
d="M1339 -590q-55 0 -95 12t-64 25q-27 15 -35.5 27t-10.5 22h9q33 0 76 4t83.5 19t84.5 46.5t78 78.5t50.5 102.5t20.5 114.5t4 117v67q-56 -68 -146.5 -115t-190.5 -47q-77 0 -152 36.5t-136 121.5q-64 91 -86.5 199.5t-23.5 253.5q-2 140 -2 376q0 177 -1 251
q-2 97 -26.5 211.5t-88.5 198.5t-186 89q-97 0 -162 -42.5t-98.5 -108.5t-33.5 -135q0 -83 49.5 -150t150.5 -83q16 -2 32 -2q46 0 90 18.5t79 56.5q23 -53 23 -99q0 -64 -36 -112.5t-95 -75.5t-126 -27t-133 31t-116 99.5t-72 178.5q-6 36 -6 72q0 63 15 121
q51 184 200 290.5t326 106.5q145 0 270 -76q88 -56 145 -138q59 -89 85.5 -222.5t26.5 -229.5v-695q0 -77 31 -147.5t99 -105.5q42 -21 83 -21q40 0 82 21q69 35 99.5 105.5t30.5 147.5l1 1002q0 59 20.5 96t54 62t73.5 46q44 25 87 57.5t75 86.5v-1615q0 -98 -9 -206
t-44 -207q-66 -185 -256 -265q-107 -45 -203 -45zM1236 1722h-21q68 41 124.5 102t91.5 136t35 157l-1 22l6 -1q44 -3 90 -29q72 -46 72 -120q0 -61 -50.5 -123t-140 -103t-206.5 -41z" />
    <glyph glyph-name="Thorn" unicode="&#xde;" horiz-adv-x="1193" 
d="M164 -175l1 1583q0 60 21 97t54 61.5t73 46.5q45 24 87.5 56.5t74.5 86.5v-418q70 43 138 79q91 47 157.5 94.5t85.5 110.5q169 -117 244.5 -225.5t94.5 -244.5q7 -43 7 -85q0 -140 -69.5 -259t-196.5 -193q-233 -134 -462 -269v-173q0 -60 -21 -97t-54 -61.5t-73 -46.5
q-45 -24 -87.5 -56.5t-74.5 -86.5zM474 463l295 170q58 29 86.5 77t37 106.5t8.5 118.5l-1 106q0 77 -31 147.5t-100 105.5q-42 21 -82 21t-82 -21q-65 -33 -96 -97.5t-34 -138.5z" />
    <glyph glyph-name="germandbls" unicode="&#xdf;" horiz-adv-x="1262" 
d="M164 -175v1189q0 132 62.5 240t177.5 175l253 146q76 40 129.5 83t69.5 98l48 -33q80 -55 147.5 -108t109 -109.5t41.5 -124.5q0 -82 -77 -187q-26 -34 -47.5 -53t-56.5 -42q150 -41 220.5 -138.5t70.5 -217.5q0 -121 -65.5 -242t-187.5 -206q-51 -34 -104 -65
q-68 -38 -122 -78q-90 -76 -112 -144q-11 -32 -11 -60q0 -25 5 -48q-43 20 -84 66q-59 75 -59 159q0 66 33 136t81 113t101 77q60 38 116 91q77 84 85 165l2 27q0 79 -56.5 128t-130.5 49q-55 0 -109 -31t-107 -62v10l-1 -1v115l183 106q69 34 103 84.5t34 105.5t-34 105.5
t-103 84.5q-42 21 -82 21t-83 -21q-65 -33 -96 -97.5t-34 -138.5v-1019q0 -60 -21 -97t-54 -61.5t-73 -46.5q-45 -24 -87.5 -56.5t-74.5 -86.5z" />
    <glyph glyph-name="agrave" unicode="&#xe0;" horiz-adv-x="1173" 
d="M1055 -15q-105 0 -164.5 53t-83.5 145q-40 -89 -106.5 -143.5t-171.5 -54.5q-73 0 -138.5 27.5t-118.5 82.5q-59 63 -88.5 148t-29.5 173q0 53 11 105q36 152 132 247t227 166q67 37 142 74q129 61 243.5 136.5t164.5 183.5v-985q0 -51 8 -84t32.5 -49t71.5 -16
q48 0 81 28.5t51 71.5t21 90h90q-16 -132 -60 -210q-36 -67 -88 -113q-84 -76 -226 -76zM614 191q27 0 59 15q50 26 70.5 77t20.5 106v530l-54 -31q-122 -70 -175 -149q-69 -103 -69 -283q0 -148 64 -225q33 -40 84 -40zM881 1286h-21q-117 0 -206.5 41t-140 103t-50.5 123
q0 74 72 120q46 26 90 29l6 1l-1 -22q0 -82 35 -157t91.5 -136t124.5 -102z" />
    <glyph glyph-name="aacute" unicode="&#xe1;" horiz-adv-x="1173" 
d="M1055 -15q-105 0 -164.5 53t-83.5 145q-40 -89 -106.5 -143.5t-171.5 -54.5q-73 0 -138.5 27.5t-118.5 82.5q-59 63 -88.5 148t-29.5 173q0 53 11 105q36 152 132 247t227 166q67 37 142 74q129 61 243.5 136.5t164.5 183.5v-985q0 -51 8 -84t32.5 -49t71.5 -16
q48 0 81 28.5t51 71.5t21 90h90q-16 -132 -60 -210q-36 -67 -88 -113q-84 -76 -226 -76zM614 191q27 0 59 15q50 26 70.5 77t20.5 106v530l-54 -31q-122 -70 -175 -149q-69 -103 -69 -283q0 -148 64 -225q33 -40 84 -40zM570 1282h-21q68 41 124.5 102t91.5 136t35 157
l-1 22l6 -1q44 -3 90 -29q72 -46 72 -120q0 -61 -50.5 -123t-140 -103t-206.5 -41z" />
    <glyph glyph-name="acircumflex" unicode="&#xe2;" horiz-adv-x="1173" 
d="M1055 -15q-105 0 -164.5 53t-83.5 145q-40 -89 -106.5 -143.5t-171.5 -54.5q-73 0 -138.5 27.5t-118.5 82.5q-59 63 -88.5 148t-29.5 173q0 53 11 105q36 152 132 247t227 166q67 37 142 74q129 61 243.5 136.5t164.5 183.5v-985q0 -51 8 -84t32.5 -49t71.5 -16
q48 0 81 28.5t51 71.5t21 90h90q-16 -132 -60 -210q-36 -67 -88 -113q-84 -76 -226 -76zM614 191q27 0 59 15q50 26 70.5 77t20.5 106v530l-54 -31q-122 -70 -175 -149q-69 -103 -69 -283q0 -148 64 -225q33 -40 84 -40zM874 1251q-67 0 -127.5 64t-86.5 171
q-26 -107 -86 -171t-128 -64q-56 0 -107 52q-35 44 -46 89q130 19 225.5 110t141.5 209q46 -118 141.5 -209t225.5 -110q-11 -45 -45 -89q-51 -52 -108 -52z" />
    <glyph glyph-name="atilde" unicode="&#xe3;" horiz-adv-x="1173" 
d="M1055 -15q-105 0 -164.5 53t-83.5 145q-40 -89 -106.5 -143.5t-171.5 -54.5q-73 0 -138.5 27.5t-118.5 82.5q-59 63 -88.5 148t-29.5 173q0 53 11 105q36 152 132 247t227 166q67 37 142 74q129 61 243.5 136.5t164.5 183.5v-985q0 -51 8 -84t32.5 -49t71.5 -16
q48 0 81 28.5t51 71.5t21 90h90q-16 -132 -60 -210q-36 -67 -88 -113q-84 -76 -226 -76zM614 191q27 0 59 15q50 26 70.5 77t20.5 106v530l-54 -31q-122 -70 -175 -149q-69 -103 -69 -283q0 -148 64 -225q33 -40 84 -40zM784 1276q-49 0 -93 16t-87 36q-104 51 -176 51
q-46 0 -79 -14q-48 -23 -73 -58l3 8q18 67 54 122q44 60 116 89q55 22 104 22t93 -16t87 -36q104 -51 176 -51q97 0 149 69l3 3l-3 -8q-18 -67 -54 -122q-44 -59 -116 -89q-55 -22 -104 -22z" />
    <glyph glyph-name="adieresis" unicode="&#xe4;" horiz-adv-x="1173" 
d="M1055 -15q-105 0 -164.5 53t-83.5 145q-40 -89 -106.5 -143.5t-171.5 -54.5q-73 0 -138.5 27.5t-118.5 82.5q-59 63 -88.5 148t-29.5 173q0 53 11 105q36 152 132 247t227 166q67 37 142 74q129 61 243.5 136.5t164.5 183.5v-985q0 -51 8 -84t32.5 -49t71.5 -16
q48 0 81 28.5t51 71.5t21 90h90q-16 -132 -60 -210q-36 -67 -88 -113q-84 -76 -226 -76zM614 191q27 0 59 15q50 26 70.5 77t20.5 106v530l-54 -31q-122 -70 -175 -149q-69 -103 -69 -283q0 -148 64 -225q33 -40 84 -40zM874 1259l-220 219l220 219l219 -219zM391 1259
l-219 219l219 219l219 -219z" />
    <glyph glyph-name="aring" unicode="&#xe5;" horiz-adv-x="1173" 
d="M1055 -15q-105 0 -164.5 53t-83.5 145q-40 -89 -106.5 -143.5t-171.5 -54.5q-73 0 -138.5 27.5t-118.5 82.5q-59 63 -88.5 148t-29.5 173q0 53 11 105q36 152 132 247t227 166q67 37 142 74q129 61 243.5 136.5t164.5 183.5v-985q0 -51 8 -84t32.5 -49t71.5 -16
q48 0 81 28.5t51 71.5t21 90h90q-16 -132 -60 -210q-36 -67 -88 -113q-84 -76 -226 -76zM614 191q27 0 59 15q50 26 70.5 77t20.5 106v530l-54 -31q-122 -70 -175 -149q-69 -103 -69 -283q0 -148 64 -225q33 -40 84 -40zM605 1270q-88 0 -150 62t-62 150t62 150t150 62
t150.5 -62t62.5 -150t-62.5 -150t-150.5 -62zM605 1387q40 0 67.5 28t27.5 67t-27.5 67t-67.5 28q-39 0 -67 -28t-28 -67t28 -67t67 -28z" />
    <glyph glyph-name="ae" unicode="&#xe6;" horiz-adv-x="1584" 
d="M1074 501l49 26q30 15 71 39q65 38 114.5 98t49.5 124q0 51 -40.5 92.5t-92.5 41.5q-55 0 -100 -46.5t-50 -135.5v-233l-1 -1v-5zM1216 -15h-23q-115 0 -212.5 53.5t-155.5 168.5l-17 -22q-41 -89 -107.5 -143.5t-170.5 -54.5q-73 0 -139 27.5t-118 82.5
q-59 64 -89 149.5t-30 173.5q0 53 11 103q36 152 132.5 247.5t227.5 166.5q66 37 141 73q129 61 244 136.5t165 183.5v-328q43 25 85 47q79 42 137 83.5t75 96.5q53 -36 93 -70q135 -117 135 -284l-2 -35q-11 -101 -64.5 -172t-132 -123.5t-163.5 -98.5q-103 -56 -120 -67
l-25 -15q23 -107 82 -155t136 -50l26 -1q131 0 249 54.5t187 173.5h73q-47 -125 -147 -212.5t-227.5 -135t-255.5 -53.5zM614 193q27 0 59 15q50 26 71 77t21 106v530l-55 -31q-122 -70 -174 -149q-69 -103 -69 -283q0 -65 16 -129q14 -56 47.5 -96t83.5 -40z" />
    <glyph glyph-name="ccedilla" unicode="&#xe7;" horiz-adv-x="945" 
d="M552 -17q-107 6 -192 58q-96 59 -149 172q-36 80 -46.5 154.5t-10.5 161.5q0 114 36 196t94.5 140.5t127 102t134.5 78.5q81 41 139.5 83t75.5 98q56 -38 98 -74q61 -53 90 -112t29 -114q0 -82 -57 -140.5t-157 -58.5h-2q0 53 -21.5 103t-69.5 74q-28 15 -58 15
q-27 0 -58 -15q-48 -24 -69.5 -74t-21.5 -103q0 -37 -1 -77q-1 -43 -1 -86q0 -100 13 -192q15 -90 71 -150t154 -66l26 -1q131 0 249 54.5t187 173.5h73q-46 -125 -146.5 -212.5t-227.5 -134.5q-110 -42 -221 -52q-12 -20 -25 -44q4 2 10 4.5t16 4.5q20 7 62 9l26 1
q33 0 67 -7q44 -13 71 -41q29 -28 29 -69q0 -21 -8.5 -45t-28.5 -48q-45 -50 -110 -92q-58 -42 -110 -65q-54 -20 -107 -21h-10q-49 0 -87 18q-39 27 -47 65q-1 7 -1 14q0 24 13 43q15 23 41 36q23 11 51 17l11 3l-2 -18l2 -12q3 -18 23 -37q21 -20 62 -27l19 -1q35 0 68 11
q38 14 51 44q5 13 5 27q0 19 -9 37q-17 31 -50 45q-30 14 -69 16h-20q-32 0 -61 -4q-33 -6 -56 -17l28 50q17 28 40 68q9 17 18 33z" />
    <glyph glyph-name="egrave" unicode="&#xe8;" horiz-adv-x="973" 
d="M464 499l52 28q28 14 67 37q65 38 114.5 98t49.5 124q0 44 -32 85q-46 49 -101 49q-37 0 -71.5 -22t-56.5 -65t-22 -105v-229zM606 -17h-22q-118 0 -217 55.5t-156 174.5q-57 130 -57 265v51q0 114 36 196t94.5 141t127 102t135.5 78q80 42 139 84t76 97q51 -36 93 -70
q134 -116 134 -282l-2 -37q-11 -101 -64.5 -172t-132 -123.5t-163.5 -98.5q-97 -53 -119 -67l-26 -15q23 -107 82 -155.5t137 -49.5l26 -1q130 0 248 54.5t187 173.5h73q-46 -125 -146.5 -212.5t-227.5 -135t-255 -53.5zM725 1282h-21q-117 0 -206.5 41t-140 103t-50.5 123
q0 74 72 120q46 26 90 29l6 1l-1 -22q0 -82 35 -157t91.5 -136t124.5 -102z" />
    <glyph glyph-name="eacute" unicode="&#xe9;" horiz-adv-x="973" 
d="M464 499l52 28q28 14 67 37q65 38 114.5 98t49.5 124q0 44 -32 85q-46 49 -101 49q-37 0 -71.5 -22t-56.5 -65t-22 -105v-229zM606 -17h-22q-118 0 -217 55.5t-156 174.5q-57 130 -57 265v51q0 114 36 196t94.5 141t127 102t135.5 78q80 42 139 84t76 97q51 -36 93 -70
q134 -116 134 -282l-2 -37q-11 -101 -64.5 -172t-132 -123.5t-163.5 -98.5q-97 -53 -119 -67l-26 -15q23 -107 82 -155.5t137 -49.5l26 -1q130 0 248 54.5t187 173.5h73q-46 -125 -146.5 -212.5t-227.5 -135t-255 -53.5zM514 1282h-21q68 41 124.5 102t91.5 136t35 157
l-1 22l6 -1q44 -3 90 -29q72 -46 72 -120q0 -61 -50.5 -123t-140 -103t-206.5 -41z" />
    <glyph glyph-name="ecircumflex" unicode="&#xea;" horiz-adv-x="973" 
d="M464 499l52 28q28 14 67 37q65 38 114.5 98t49.5 124q0 44 -32 85q-46 49 -101 49q-37 0 -71.5 -22t-56.5 -65t-22 -105v-229zM606 -17h-22q-118 0 -217 55.5t-156 174.5q-57 130 -57 265v51q0 114 36 196t94.5 141t127 102t135.5 78q80 42 139 84t76 97q51 -36 93 -70
q134 -116 134 -282l-2 -37q-11 -101 -64.5 -172t-132 -123.5t-163.5 -98.5q-97 -53 -119 -67l-26 -15q23 -107 82 -155.5t137 -49.5l26 -1q130 0 248 54.5t187 173.5h73q-46 -125 -146.5 -212.5t-227.5 -135t-255 -53.5zM823 1246q-67 0 -127.5 64t-86.5 171
q-26 -107 -86 -171t-128 -64q-56 0 -107 52q-35 44 -46 89q130 19 225.5 110t141.5 209q46 -118 141.5 -209t225.5 -110q-11 -45 -45 -89q-51 -52 -108 -52z" />
    <glyph glyph-name="edieresis" unicode="&#xeb;" horiz-adv-x="973" 
d="M464 499l52 28q28 14 67 37q65 38 114.5 98t49.5 124q0 44 -32 85q-46 49 -101 49q-37 0 -71.5 -22t-56.5 -65t-22 -105v-229zM606 -17h-22q-118 0 -217 55.5t-156 174.5q-57 130 -57 265v51q0 114 36 196t94.5 141t127 102t135.5 78q80 42 139 84t76 97q51 -36 93 -70
q134 -116 134 -282l-2 -37q-11 -101 -64.5 -172t-132 -123.5t-163.5 -98.5q-97 -53 -119 -67l-26 -15q23 -107 82 -155.5t137 -49.5l26 -1q130 0 248 54.5t187 173.5h73q-46 -125 -146.5 -212.5t-227.5 -135t-255 -53.5zM809 1259l-220 219l220 219l219 -219zM326 1259
l-219 219l219 219l219 -219z" />
    <glyph glyph-name="igrave" unicode="&#xec;" horiz-adv-x="574" 
d="M452 -13q-68 0 -126.5 21.5t-94.5 69.5q-66 92 -66 242v560q0 116 105 180l33 19q53 27 96 59.5t76 89.5v-884q0 -51 8 -84t32 -49t72 -16t80.5 28.5t50.5 71.5t22 90h90q-18 -132 -60 -210q-36 -67 -88 -113q-84 -75 -230 -75zM494 1293h-21q-117 0 -206.5 41t-140 103
t-50.5 123q0 74 72 120q46 26 90 29l6 1l-1 -22q0 -82 35 -157t91.5 -136t124.5 -102z" />
    <glyph glyph-name="iacute" unicode="&#xed;" horiz-adv-x="574" 
d="M452 -13q-68 0 -126.5 21.5t-94.5 69.5q-66 92 -66 242v560q0 116 105 180l33 19q53 27 96 59.5t76 89.5v-884q0 -51 8 -84t32 -49t72 -16t80.5 28.5t50.5 71.5t22 90h90q-18 -132 -60 -210q-36 -67 -88 -113q-84 -75 -230 -75zM209 1283h-21q68 41 124.5 102t91.5 136
t35 157l-1 22l6 -1q44 -3 90 -29q72 -46 72 -120q0 -61 -50.5 -123t-140 -103t-206.5 -41z" />
    <glyph glyph-name="icircumflex" unicode="&#xee;" horiz-adv-x="574" 
d="M452 -13q-68 0 -126.5 21.5t-94.5 69.5q-66 92 -66 242v560q0 116 105 180l33 19q53 27 96 59.5t76 89.5v-884q0 -51 8 -84t32 -49t72 -16t80.5 28.5t50.5 71.5t22 90h90q-18 -132 -60 -210q-36 -67 -88 -113q-84 -75 -230 -75zM569 1247q-67 0 -127.5 64t-86.5 171
q-26 -107 -86 -171t-128 -64q-56 0 -107 52q-35 44 -46 89q130 19 225.5 110t141.5 209q46 -118 141.5 -209t225.5 -110q-11 -45 -45 -89q-51 -52 -108 -52z" />
    <glyph glyph-name="idieresis" unicode="&#xef;" horiz-adv-x="574" 
d="M452 -13q-68 0 -126.5 21.5t-94.5 69.5q-66 92 -66 242v560q0 116 105 180l33 19q53 27 96 59.5t76 89.5v-884q0 -51 8 -84t32 -49t72 -16t80.5 28.5t50.5 71.5t22 90h90q-18 -132 -60 -210q-36 -67 -88 -113q-84 -75 -230 -75zM560 1260l-220 219l220 219l219 -219z
M77 1260l-219 219l219 219l219 -219z" />
    <glyph glyph-name="eth" unicode="&#xf0;" horiz-adv-x="1057" 
d="M529 -13q-76 0 -145.5 26t-126 86t-81.5 126.5t-30.5 137.5t-5.5 146v22q0 113 35.5 194.5t92.5 140t125 101.5q63 35 119.5 55t110.5 20h7l-2 3q-58 91 -102 180q-53 -16 -100 -37q-100 -43 -123 -116l-1 1q-10 17 -10 40q0 49 25.5 88.5t71.5 66.5t104 50
q-10 42 -10 82q0 48 16 93q27 78 97.5 145t182.5 84q-28 -19 -50 -59q-20 -42 -20 -86q0 -67 46 -160q59 24 116 59q88 55 88 123l-1 18q25 -36 28 -81q0 -108 -185 -204q31 -53 70 -113q103 -154 144 -277t43 -308v-18q0 -143 -40.5 -271t-128.5 -218.5t-229 -124.5
q-64 -15 -131 -15zM599 193q40 0 76 34t55 104t19 200v199q0 53 -22 103t-70 74q-30 15 -58 15t-58 -15q-48 -24 -69.5 -74t-21.5 -103v-199q0 -48 3 -101.5t15 -100.5q19 -68 55 -102t76 -34z" />
    <glyph glyph-name="ntilde" unicode="&#xf1;" horiz-adv-x="1183" 
d="M476 170q0 -60 -21 -97t-54 -61.5t-73 -46.5q-45 -24 -87.5 -56.5t-75.5 -86.5v711q6 165 83.5 268.5t169.5 160.5q51 33 116 68q82 43 151 91.5t88 105.5q188 -130 248.5 -255.5t60.5 -312.5q2 -94 2 -189v-126q0 -51 8 -84t32 -49t72 -16t80.5 28.5t50.5 71.5t22 90h90
q-18 -132 -60 -210q-36 -67 -87.5 -113t-119.5 -62q-56 -13 -111 -13q-68 0 -126.5 21.5t-94.5 69.5q-66 92 -66 242v408q0 53 -22 103t-70 74q-28 15 -58 15q-27 0 -58 -15q-48 -24 -69.5 -74t-21.5 -103l1 -316v-242zM774 1313q-49 0 -93 16t-87 36q-104 51 -176 51
q-46 0 -79 -14q-48 -23 -73 -58l3 8q18 67 54 122q44 60 116 89q55 22 104 22t93 -16t87 -36q104 -51 176 -51q97 0 149 69l3 3l-3 -8q-18 -67 -54 -122q-44 -59 -116 -89q-55 -22 -104 -22z" />
    <glyph glyph-name="ograve" unicode="&#xf2;" horiz-adv-x="1048" 
d="M543 -17q-76 0 -145.5 26t-126 86t-81.5 126.5t-30.5 137.5t-5.5 146v22q0 114 36 196t94.5 140.5t127 102t135.5 78.5q80 41 139 83t76 98q132 -92 198 -176.5t88.5 -183.5t23.5 -235v-18q0 -143 -40.5 -271t-128.5 -218.5t-229 -124.5q-63 -15 -131 -15zM614 189
q40 0 76 34t55 102q18 72 18 202v199q0 53 -22 103t-70 74q-30 15 -58 15t-58 -15q-48 -24 -69.5 -74t-21.5 -103v-199q0 -48 3 -101.5t15 -100.5q19 -68 55 -102t77 -34zM715 1248h-21q-117 0 -206.5 41t-140 103t-50.5 123q0 74 72 120q46 26 90 29l6 1l-1 -22
q0 -82 35 -157t91.5 -136t124.5 -102z" />
    <glyph glyph-name="oacute" unicode="&#xf3;" horiz-adv-x="1048" 
d="M543 -17q-76 0 -145.5 26t-126 86t-81.5 126.5t-30.5 137.5t-5.5 146v22q0 114 36 196t94.5 140.5t127 102t135.5 78.5q80 41 139 83t76 98q132 -92 198 -176.5t88.5 -183.5t23.5 -235v-18q0 -143 -40.5 -271t-128.5 -218.5t-229 -124.5q-63 -15 -131 -15zM614 189
q40 0 76 34t55 102q18 72 18 202v199q0 53 -22 103t-70 74q-30 15 -58 15t-58 -15q-48 -24 -69.5 -74t-21.5 -103v-199q0 -48 3 -101.5t15 -100.5q19 -68 55 -102t77 -34zM472 1290h-21q68 41 124.5 102t91.5 136t35 157l-1 22l6 -1q44 -3 90 -29q72 -46 72 -120
q0 -61 -50.5 -123t-140 -103t-206.5 -41z" />
    <glyph glyph-name="ocircumflex" unicode="&#xf4;" horiz-adv-x="1048" 
d="M543 -17q-76 0 -145.5 26t-126 86t-81.5 126.5t-30.5 137.5t-5.5 146v22q0 114 36 196t94.5 140.5t127 102t135.5 78.5q80 41 139 83t76 98q132 -92 198 -176.5t88.5 -183.5t23.5 -235v-18q0 -143 -40.5 -271t-128.5 -218.5t-229 -124.5q-63 -15 -131 -15zM614 189
q40 0 76 34t55 102q18 72 18 202v199q0 53 -22 103t-70 74q-30 15 -58 15t-58 -15q-48 -24 -69.5 -74t-21.5 -103v-199q0 -48 3 -101.5t15 -100.5q19 -68 55 -102t77 -34zM822 1254q-67 0 -127.5 64t-86.5 171q-26 -107 -86 -171t-128 -64q-56 0 -107 52q-35 44 -46 89
q130 19 225.5 110t141.5 209q46 -118 141.5 -209t225.5 -110q-11 -45 -45 -89q-51 -52 -108 -52z" />
    <glyph glyph-name="otilde" unicode="&#xf5;" horiz-adv-x="1048" 
d="M543 -17q-76 0 -145.5 26t-126 86t-81.5 126.5t-30.5 137.5t-5.5 146v22q0 114 36 196t94.5 140.5t127 102t135.5 78.5q80 41 139 83t76 98q132 -92 198 -176.5t88.5 -183.5t23.5 -235v-18q0 -143 -40.5 -271t-128.5 -218.5t-229 -124.5q-63 -15 -131 -15zM614 189
q40 0 76 34t55 102q18 72 18 202v199q0 53 -22 103t-70 74q-30 15 -58 15t-58 -15q-48 -24 -69.5 -74t-21.5 -103v-199q0 -48 3 -101.5t15 -100.5q19 -68 55 -102t77 -34zM728 1318q-49 0 -93 16t-87 36q-104 51 -176 51q-46 0 -79 -14q-48 -23 -73 -58l3 8q18 67 54 122
q44 60 116 89q55 22 104 22t93 -16t87 -36q104 -51 176 -51q97 0 149 69l3 3l-3 -8q-18 -67 -54 -122q-44 -59 -116 -89q-55 -22 -104 -22z" />
    <glyph glyph-name="odieresis" unicode="&#xf6;" horiz-adv-x="1048" 
d="M543 -17q-76 0 -145.5 26t-126 86t-81.5 126.5t-30.5 137.5t-5.5 146v22q0 114 36 196t94.5 140.5t127 102t135.5 78.5q80 41 139 83t76 98q132 -92 198 -176.5t88.5 -183.5t23.5 -235v-18q0 -143 -40.5 -271t-128.5 -218.5t-229 -124.5q-63 -15 -131 -15zM614 189
q40 0 76 34t55 102q18 72 18 202v199q0 53 -22 103t-70 74q-30 15 -58 15t-58 -15q-48 -24 -69.5 -74t-21.5 -103v-199q0 -48 3 -101.5t15 -100.5q19 -68 55 -102t77 -34zM855 1259l-220 219l220 219l219 -219zM372 1259l-219 219l219 219l219 -219z" />
    <glyph glyph-name="divide" unicode="&#xf7;" horiz-adv-x="1102" 
d="M543 383l-130 131l130 130l130 -130zM543 974l-130 130l130 130l130 -130zM930 717h-774v184h774v-184z" />
    <glyph glyph-name="oslash" unicode="&#xf8;" horiz-adv-x="1078" 
d="M141 -98l-104 86l169 201q-36 73 -43.5 152t-7.5 188q0 206 131 337q58 58 126.5 101.5t135.5 78.5q80 41 139 83t76 98q117 -82 182 -157l142 170l104 -87l-170 -202q52 -124 52 -312v-25q0 -143 -40.5 -271.5t-128.5 -219t-229 -123.5q-64 -15 -132 -15q-75 0 -145 24
q-59 24 -109 69zM615 190q40 0 75.5 34t54.5 102q19 73 19 203v115l-277 -330q20 -62 55 -93t73 -31zM465 498l278 331q-22 51 -71 76q-30 14 -58 14t-58 -14q-48 -25 -69.5 -74.5t-21.5 -103.5v-229z" />
    <glyph glyph-name="ugrave" unicode="&#xf9;" horiz-adv-x="1149" 
d="M1028 -13q-68 0 -126 22q-100 37 -139 155q-71 -128 -200 -164q-55 -13 -110 -13q-68 0 -126.5 22t-94.5 70q-67 92 -67 242v560q0 114 105 180l31 17q54 28 97.5 60.5t76.5 90.5v-884q0 -51 8 -84t32.5 -49t71.5 -16q48 0 81 28.5t51 71.5t21 90v495q0 114 105 180
l31 17q54 28 97.5 60.5t76.5 90.5v-884q0 -51 8 -84t32.5 -49t71.5 -16q48 0 81 28.5t51 71.5t21 90h90q-16 -132 -60 -210q-78 -144 -207 -176q-55 -13 -110 -13zM842 1285h-21q-117 0 -206.5 41t-140 103t-50.5 123q0 74 72 120q46 26 90 29l6 1l-1 -22q0 -82 35 -157
t91.5 -136t124.5 -102z" />
    <glyph glyph-name="uacute" unicode="&#xfa;" horiz-adv-x="1149" 
d="M1028 -13q-68 0 -126 22q-100 37 -139 155q-71 -128 -200 -164q-55 -13 -110 -13q-68 0 -126.5 22t-94.5 70q-67 92 -67 242v560q0 114 105 180l31 17q54 28 97.5 60.5t76.5 90.5v-884q0 -51 8 -84t32.5 -49t71.5 -16q48 0 81 28.5t51 71.5t21 90v495q0 114 105 180
l31 17q54 28 97.5 60.5t76.5 90.5v-884q0 -51 8 -84t32.5 -49t71.5 -16q48 0 81 28.5t51 71.5t21 90h90q-16 -132 -60 -210q-78 -144 -207 -176q-55 -13 -110 -13zM551 1285h-21q68 41 124.5 102t91.5 136t35 157l-1 22l6 -1q44 -3 90 -29q72 -46 72 -120q0 -61 -50.5 -123
t-140 -103t-206.5 -41z" />
    <glyph glyph-name="ucircumflex" unicode="&#xfb;" horiz-adv-x="1149" 
d="M1028 -13q-68 0 -126 22q-100 37 -139 155q-71 -128 -200 -164q-55 -13 -110 -13q-68 0 -126.5 22t-94.5 70q-67 92 -67 242v560q0 114 105 180l31 17q54 28 97.5 60.5t76.5 90.5v-884q0 -51 8 -84t32.5 -49t71.5 -16q48 0 81 28.5t51 71.5t21 90v495q0 114 105 180
l31 17q54 28 97.5 60.5t76.5 90.5v-884q0 -51 8 -84t32.5 -49t71.5 -16q48 0 81 28.5t51 71.5t21 90h90q-16 -132 -60 -210q-78 -144 -207 -176q-55 -13 -110 -13zM849 1240q-67 0 -127.5 64t-86.5 171q-26 -107 -86 -171t-128 -64q-56 0 -107 52q-35 44 -46 89
q130 19 225.5 110t141.5 209q46 -118 141.5 -209t225.5 -110q-11 -45 -45 -89q-51 -52 -108 -52z" />
    <glyph glyph-name="udieresis" unicode="&#xfc;" horiz-adv-x="1149" 
d="M1028 -13q-68 0 -126 22q-100 37 -139 155q-71 -128 -200 -164q-55 -13 -110 -13q-68 0 -126.5 22t-94.5 70q-67 92 -67 242v560q0 114 105 180l31 17q54 28 97.5 60.5t76.5 90.5v-884q0 -51 8 -84t32.5 -49t71.5 -16q48 0 81 28.5t51 71.5t21 90v495q0 114 105 180
l31 17q54 28 97.5 60.5t76.5 90.5v-884q0 -51 8 -84t32.5 -49t71.5 -16q48 0 81 28.5t51 71.5t21 90h90q-16 -132 -60 -210q-78 -144 -207 -176q-55 -13 -110 -13zM868 1258l-220 219l220 219l219 -219zM385 1258l-219 219l219 219l219 -219z" />
    <glyph glyph-name="yacute" unicode="&#xfd;" horiz-adv-x="1054" 
d="M440 -626q-56 39 -98 75q-61 53 -90 111.5t-29 113.5q0 84 57.5 142t158.5 58q0 -54 21.5 -103.5t69.5 -74.5q28 -15 58 -15q27 0 58 15q48 25 69.5 74.5t21.5 103.5l2 253q-68 -98 -177 -127q-55 -13 -110 -13q-68 0 -126.5 22t-94.5 70q-67 92 -67 242v560
q0 114 105 180l33 19q53 27 96 59.5t76 89.5v-884q0 -51 8 -84t32.5 -49t71.5 -16q48 0 80.5 28.5t51 71.5t21.5 90v495q0 114 105 180l33 19q53 27 96 59.5t76 89.5v-1157q0 -114 -36.5 -196t-94.5 -140.5t-127 -102t-136 -78.5q-80 -41 -139 -83t-76 -98zM519 1281h-21
q68 41 124.5 102t91.5 136t35 157l-1 22l6 -1q44 -3 90 -29q72 -46 72 -120q0 -61 -50.5 -123t-140 -103t-206.5 -41z" />
    <glyph glyph-name="thorn" unicode="&#xfe;" horiz-adv-x="1078" 
d="M474 493v-180q0 -35 7 -67t28 -51.5t62 -19.5q67 0 107.5 37.5t61 93.5t27 116t6.5 105v199q0 53 -22 103t-70 74q-30 15 -58 15t-58 -15q-48 -24 -69 -74q-17 -39 -21 -80v-256h-1zM475 998q41 25 82 46q80 41 139 83t76 98q132 -92 198 -176.5t88.5 -183.5t23.5 -235
v-28q0 -112 -21 -223t-74 -209q-45 -81 -122 -132q-76 -51 -190 -51q-82 0 -129 23q-48 23 -72 53v-310q0 -67 -21 -119.5t-84 -88.5q-17 -10 -33 -19q-53 -27 -95.5 -59t-75.5 -89v1039l-1 110q0 19 1 37v839q0 115 105 181q17 9 33 18q53 27 96 59.5t76 89.5v-753z" />
    <glyph glyph-name="ydieresis" unicode="&#xff;" horiz-adv-x="1054" 
d="M440 -626q-56 39 -98 75q-61 53 -90 111.5t-29 113.5q0 84 57.5 142t158.5 58q0 -54 21.5 -103.5t69.5 -74.5q28 -15 58 -15q27 0 58 15q48 25 69.5 74.5t21.5 103.5l2 253q-68 -98 -177 -127q-55 -13 -110 -13q-68 0 -126.5 22t-94.5 70q-67 92 -67 242v560
q0 114 105 180l33 19q53 27 96 59.5t76 89.5v-884q0 -51 8 -84t32.5 -49t71.5 -16q48 0 80.5 28.5t51 71.5t21.5 90v495q0 114 105 180l33 19q53 27 96 59.5t76 89.5v-1157q0 -114 -36.5 -196t-94.5 -140.5t-127 -102t-136 -78.5q-80 -41 -139 -83t-76 -98zM849 1254
l-220 219l220 219l219 -219zM366 1254l-219 219l219 219l219 -219z" />
    <glyph glyph-name="dotlessi" unicode="&#x131;" horiz-adv-x="574" 
d="M452 -13q-68 0 -126.5 21.5t-94.5 69.5q-66 92 -66 242v560q0 116 105 180l33 19q53 27 96 59.5t76 89.5v-884q0 -51 8 -84t32 -49t72 -16t80.5 28.5t50.5 71.5t22 90h90q-18 -132 -60 -210q-36 -67 -88 -113q-84 -75 -230 -75z" />
    <glyph glyph-name="gravecomb" unicode="&#x300;" 
d="M207 1276h-21q-117 0 -206.5 41t-140 103t-50.5 123q0 74 72 120q46 26 90 29l6 1l-1 -22q0 -82 35 -157t91.5 -136t124.5 -102z" />
    <glyph glyph-name="acutecomb" unicode="&#x301;" 
d="M-165 1276h-21q68 41 124.5 102t91.5 136t35 157l-1 22l6 -1q44 -3 90 -29q72 -46 72 -120q0 -61 -50.5 -123t-140 -103t-206.5 -41z" />
    <glyph glyph-name="uni0302" unicode="&#x302;" 
d="M219 1240q-67 0 -127.5 64t-86.5 171q-26 -107 -86 -171t-128 -64q-56 0 -107 52q-35 44 -46 89q130 19 225.5 110t141.5 209q46 -118 141.5 -209t225.5 -110q-11 -45 -45 -89q-51 -52 -108 -52z" />
    <glyph glyph-name="tildecomb" unicode="&#x303;" 
d="M3089 1334q-49 0 -93 16t-87 36q-104 51 -176 51q-46 0 -79 -14q-48 -23 -73 -58l3 8q18 67 54 122q44 60 116 89q55 22 104 22t93 -16t87 -36q104 -51 176 -51q97 0 149 69l3 3l-3 -8q-18 -67 -54 -122q-44 -59 -116 -89q-55 -22 -104 -22z" />
    <glyph glyph-name="uni0304" unicode="&#x304;" 
d="M3940 1383h-515q23 52 49.5 95.5t68 70.5t110.5 27h515q-23 -52 -49.5 -95.5t-68 -70.5t-110.5 -27z" />
    <glyph glyph-name="uni0306" unicode="&#x306;" 
d="M-686 1318q-143 0 -246.5 92.5t-125.5 233.5h218q12 -92 54.5 -151t99.5 -59t99.5 59t53.5 151h218q-21 -141 -125 -233.5t-246 -92.5z" />
    <glyph glyph-name="uni0307" unicode="&#x307;" 
d="M1044 1262l-219 219l219 219l219 -219z" />
    <glyph glyph-name="uni0308" unicode="&#x308;" 
d="M1527 1262l-220 219l220 219l219 -219zM1044 1262l-219 219l219 219l219 -219z" />
    <glyph glyph-name="uni030A" unicode="&#x30a;" 
d="M-1341 1269q-88 0 -150 62t-62 150t62 150t150 62t150.5 -62t62.5 -150t-62.5 -150t-150.5 -62zM-1341 1386q40 0 67.5 28t27.5 67t-27.5 67t-67.5 28q-39 0 -67 -28t-28 -67t28 -67t67 -28z" />
    <glyph glyph-name="uni030B" unicode="&#x30b;" 
d="M-394 1276h-21q68 41 124.5 102t91.5 136t35 157l-1 22l6 -1q44 -3 90 -29q72 -46 72 -120q0 -61 -50.5 -123t-140 -103t-206.5 -41zM-69 1276h-21q68 41 124.5 102t91.5 136t35 157l-1 22l6 -1q44 -3 90 -29q72 -46 72 -120q0 -61 -50.5 -123t-140 -103t-206.5 -41z" />
    <glyph glyph-name="uni030C" unicode="&#x30c;" 
d="M5 1240q-46 118 -141.5 209.5t-225.5 109.5q11 45 46 89q51 52 107 52q68 0 128 -64t86 -171q26 107 86.5 171t127.5 64q57 0 108 -52q34 -44 45 -89q-130 -18 -225.5 -109.5t-141.5 -209.5z" />
    <glyph glyph-name="uni030F" unicode="&#x30f;" 
d="M328 1276h-21q-117 0 -206.5 41t-140 103t-50.5 123q0 74 72 120q46 26 90 29l6 1l-1 -22q0 -82 35 -157t91.5 -136t124.5 -102zM3 1276h-21q-117 0 -206.5 41t-140 103t-50.5 123q0 74 72 120q46 26 90 29l6 1l-1 -22q0 -82 35 -157t91.5 -136t124.5 -102z" />
    <glyph glyph-name="uni0310" unicode="&#x310;" 
d="M-686 1318q-143 0 -246.5 92.5t-125.5 233.5h218q12 -92 54.5 -151t99.5 -59t99.5 59t53.5 151h218q-21 -141 -125 -233.5t-246 -92.5zM-686 1583l-146 145l146 146l145 -146z" />
    <glyph glyph-name="uni0311" unicode="&#x311;" 
d="M-315 1318h-218q-11 92 -53.5 151t-99.5 59t-99.5 -59t-54.5 -151h-218q22 141 125.5 233.5t246.5 92.5q142 0 246 -92.5t125 -233.5z" />
    <glyph glyph-name="uni0327" unicode="&#x327;" 
d="M2582 -428h-10q-49 0 -87 18q-48 33 -48 79q0 24 14 45t40 34q23 11 51 17l11 3l-2 -18l2 -12q3 -18 23 -37q25 -25 81 -28q35 0 68 11q56 20 56 71q0 19 -9 37q-17 31 -48.5 45t-70.5 16h-20q-72 0 -117 -21q14 25 29.5 51.5t38 66t39.5 71.5l10 17h89q-14 -21 -57 -97
q11 6 26 9q22 8 88 10q33 0 67 -7q44 -13 72 -41t28 -69q0 -48 -37 -93q-45 -50 -110 -92q-58 -42 -110 -65q-54 -20 -107 -21z" />
    <glyph glyph-name="uni0328" unicode="&#x328;" 
d="M16 -428q-44 0 -87 24q-77 53 -83 160q0 50 22 102t56 95q52 64 136 126l77 56l31 -43q-41 -29 -77 -59t-60 -66q-39 -67 -39 -126q0 -52 29 -80q32 -32 77 -32q22 0 37.5 7.5t25.5 28.5l1 2l2 -40q0 -30 -8 -59q-13 -54 -75 -84q-30 -12 -65 -12z" />
    <glyph glyph-name="endash" unicode="&#x2013;" horiz-adv-x="1024" 
d="M869 387h-769q32 18 51.5 43.5t33 50.5t28 45t36.5 32.5t57 12.5h769q-32 -19 -51.5 -44.5t-33 -50.5t-28 -45t-36.5 -32t-57 -12z" />
    <glyph glyph-name="emdash" unicode="&#x2014;" horiz-adv-x="1833" 
d="M1527 387h-1427q32 18 51.5 43.5t33 50.5t28 45t36.5 32.5t57 12.5h1427q-32 -19 -51.5 -44.5t-33 -50.5t-28 -45t-36.5 -32t-57 -12z" />
    <glyph glyph-name="quoteleft" unicode="&#x2018;" horiz-adv-x="483" 
d="M285 1139q-60 0 -108.5 30.5t-66.5 85.5q-10 32 -10 62q0 104 98 218q70 81 178 165q45 36 75 53l-12 -18q-56 -81 -92 -159q-35 -83 -35 -157t35.5 -125t109.5 -51l26 1q-42 -54 -94 -79.5t-104 -25.5z" />
    <glyph glyph-name="quoteright" unicode="&#x2019;" horiz-adv-x="541" 
d="M132 1139l12 19q55 80 92 158q35 83 35 158q0 73 -35.5 124.5t-109.5 51.5l-26 -2q41 55 93.5 80t103.5 25q60 0 108.5 -30.5t67.5 -85.5q10 -31 10 -62q0 -103 -98 -218q-70 -81 -178 -165q-45 -36 -75 -53z" />
    <glyph glyph-name="quotesinglbase" unicode="&#x201a;" horiz-adv-x="491" 
d="M132 -307l12 18q55 81 92 159q35 83 35 157t-35.5 125t-109.5 51l-26 -1q41 55 93.5 80t103.5 25q60 0 108.5 -30.5t67.5 -85.5q10 -31 10 -62q0 -104 -98 -218q-70 -81 -178 -165q-45 -36 -75 -53z" />
    <glyph glyph-name="quotedblleft" unicode="&#x201c;" horiz-adv-x="895" 
d="M694 1139q-60 0 -108.5 30.5t-66.5 85.5q-10 32 -10 62q0 104 98 218q70 81 178 165q45 36 75 53l-12 -18q-56 -81 -92 -159q-35 -83 -35 -157t35.5 -125t109.5 -51l26 1q-42 -54 -94 -79.5t-104 -25.5zM285 1139q-60 0 -108.5 30.5t-66.5 85.5q-10 32 -10 62
q0 104 98 218q69 81 177 165q46 36 76 53l-5 -7q-61 -86 -99 -170q-36 -83 -36 -157t36 -125t110 -51l26 1q-42 -54 -94 -79.5t-104 -25.5z" />
    <glyph glyph-name="quotedblright" unicode="&#x201d;" horiz-adv-x="949" 
d="M132 1139l12 19q55 80 92 158q35 83 35 158q0 73 -35.5 124.5t-109.5 51.5l-26 -2q41 55 93.5 80t103.5 25q60 0 108.5 -30.5t67.5 -85.5q10 -31 10 -62q0 -103 -98 -218q-70 -81 -178 -165q-45 -36 -75 -53zM541 1139l5 8q61 86 99 169q35 83 35 158q0 73 -35.5 124.5
t-109.5 51.5l-26 -2q41 55 93.5 80t103.5 25q60 0 108.5 -30.5t67.5 -85.5q10 -31 10 -62q0 -103 -98 -218q-69 -81 -177 -165q-46 -36 -76 -53z" />
    <glyph glyph-name="quotedblbase" unicode="&#x201e;" horiz-adv-x="899" 
d="M132 -307l12 18q55 81 92 159q35 83 35 157t-35.5 125t-109.5 51l-26 -1q41 55 93.5 80t103.5 25q60 0 108.5 -30.5t67.5 -85.5q10 -31 10 -62q0 -104 -98 -218q-70 -81 -178 -165q-45 -36 -75 -53zM541 -307l5 7q61 86 99 170q35 83 35 158q0 73 -35.5 124t-109.5 51
l-26 -1q41 55 93.5 80t103.5 25q60 0 108.5 -30.5t67.5 -85.5q10 -31 10 -62q0 -104 -98 -218q-69 -81 -177 -165q-46 -36 -76 -53z" />
    <glyph glyph-name="dagger" unicode="&#x2020;" horiz-adv-x="1170" 
d="M292 -438q-95 0 -161 37q-27 15 -35.5 26.5t-10.5 22.5q32 0 78.5 3t88.5 19t86 47t78 78q65 92 77 267q7 113 7 237l3 141v330l-43 1q-72 0 -123 -16q-55 -21 -55 -55l1 -8q23 15 47 15q33 0 59.5 -23.5t26.5 -61.5q0 -46 -33 -70.5t-77 -24.5q-52 0 -100 38
q-54 42 -58 130q0 74 51 126t123 72q67 16 150 16h31v181q0 47 2 96t12 94q26 108 87.5 182t140 125t155.5 91l23 12q67 -34 120 -105.5t53 -149.5q0 -49 -28 -94q-19 23 -46.5 36.5t-57.5 13.5q-27 0 -58 -14q-48 -25 -70 -75t-22 -103v-312l48 -1q108 0 157 36
q19 15 19 35l-1 8q-23 -15 -47 -15q-33 0 -59.5 23.5t-26.5 61.5q0 46 33 70.5t76 24.5q52 0 100 -38q54 -42 58 -132q0 -74 -51 -125t-122 -71q-67 -17 -149 -17l-36 1l1 -362q0 -117 -10 -244.5t-45 -240.5q-105 -297 -423 -337q-23 -2 -44 -2z" />
    <glyph glyph-name="daggerdbl" unicode="&#x2021;" horiz-adv-x="1145" 
d="M259 -743q-56 0 -96.5 12t-66 26t-34 26t-10.5 22q106 0 167 22q42 16 86 47.5t78 77.5q66 91 77 268q8 123 8 258l2 266l-41 1q-78 0 -124 -17t-55 -47l-1 -8l1 -8q23 15 48 15q35 0 60 -25t25 -60q0 -31 -21 -57q-32 -37 -88 -37q-27 0 -53 9q-95 40 -104 145l-1 16
q0 59 38 108q53 66 135 87q71 17 145 17l36 -1v350q-23 1 -48 1q-73 0 -118 -16.5t-54 -47.5l-1 -7l1 -8q23 15 48 15q35 0 60 -25t25 -60q0 -33 -21 -58q-31 -37 -88 -37q-27 0 -53 9q-95 40 -104 145l-1 16q0 59 38 108q53 66 135 88q59 16 151 16h30v179q0 48 2.5 97.5
t12.5 94.5q26 108 87 182t139.5 125t155.5 91l23 12q68 -34 120.5 -105.5t52.5 -149.5q0 -49 -28 -94q-19 23 -46.5 36.5t-57.5 13.5q-27 0 -58 -14q-48 -25 -70 -75t-22 -103v-313l43 -1q32 0 65 4q59 6 93 31q19 14 24 37l-2 8q-22 -15 -48 -15q-35 0 -60 25t-25 60
q0 32 20 58q32 36 89 36q27 0 53 -9q96 -40 104 -144l1 -16q0 -60 -38 -109q-52 -65 -135 -87q-72 -17 -147 -17l-37 1q-1 -174 -1 -350l44 -1q32 0 65 4q60 6 93 30q19 14 24 38l-2 8q-22 -15 -48 -15q-35 0 -60 25t-25 59q0 33 20 58q32 37 89 37q27 0 53 -9
q96 -40 104 -145l1 -16q0 -59 -38 -108q-52 -66 -135 -88q-70 -16 -142 -16l-43 1l1 -179q0 -117 -10 -244t-45 -240q-105 -298 -423 -338q-23 -2 -44 -2z" />
    <glyph glyph-name="bullet" unicode="&#x2022;" horiz-adv-x="1130" 
d="M415 527l-189 189l189 190l190 -190zM663 774l-190 190l190 190l190 -190zM911 527l-190 189l190 190l190 -190zM663 279l-190 190l190 189l190 -189z" />
    <glyph glyph-name="ellipsis" unicode="&#x2026;" horiz-adv-x="2048" 
d="M363 0l-219 219l219 219l219 -219zM1046 0l-219 219l219 219l219 -219zM1729 0l-219 219l219 219l219 -219z" />
    <glyph glyph-name="guilsinglleft" unicode="&#x2039;" horiz-adv-x="873" 
d="M709 52q-47 20 -108 20q-20 0 -38.5 -1t-36.5 -1q-34 0 -66 10t-61 44l-235 280l235 281q29 34 61 44t66 10q18 0 36.5 -1t38.5 -1q61 0 108 20l-296 -353z" />
    <glyph glyph-name="guilsinglright" unicode="&#x203a;" horiz-adv-x="873" 
d="M164 52l296 352l-296 353q47 -20 108 -20q20 0 38.5 1t36.5 1q34 0 66 -10t61 -44l235 -281l-235 -280q-29 -34 -61 -44t-66 -10q-18 0 -36.5 1t-38.5 1q-61 0 -108 -20z" />
    <glyph glyph-name="fraction" unicode="&#x2044;" horiz-adv-x="1467" 
d="M291 0h-127l1012 1753h127z" />
    <glyph glyph-name="fraction" unicode="&#x2215;" horiz-adv-x="1467" 
d="M291 0h-127l1012 1753h127z" />
    <glyph glyph-name="franc" unicode="&#x20a3;" horiz-adv-x="1524" 
d="M364 -620v894h-200l22 47q34 63 101 63h77v350h-200l48 76q52 76 139 76h13v72q0 130 41 223t107.5 160.5t144.5 116.5t154 89q92 47 159 95t86 112q304 -211 304 -392q0 -65 -35.5 -128t-94 -97t-130.5 -34v70q0 76 -31 147t-100 105q-42 21 -82 21t-83 -21
q-68 -34 -99 -105t-31 -147v-287h353l-48 -75q-52 -77 -139 -77h-166v-350h243l-21 -46q-34 -64 -100 -64h-122v-546q0 -115 -105 -180l-31 -17q-54 -28 -97.5 -60.5t-76.5 -90.5z" />
    <glyph glyph-name="lira" unicode="&#x20a4;" horiz-adv-x="1691" 
d="M371 963v20q0 41 1 85t6 85q18 124 79.5 206.5t144 138.5t164.5 98q80 42 139 84t76 97q55 -38 98 -74q61 -53 89.5 -112t28.5 -114q0 -82 -57 -140.5t-157 -58.5h-1q0 53 -22 103t-70 74q-28 15 -58 15q-27 0 -58 -15q-48 -24 -69.5 -74t-21.5 -103q0 -68 -2 -142v-173
h413l-22 -47q-34 -63 -100 -63h-291v-94h413l-22 -46q-34 -64 -100 -64h-291q0 -73 -6 -126q-6 -57 -34 -110t-91 -118q46 22 95.5 40.5t106.5 25.5q26 3 52 3q82 0 154 -21t138 -47q105 -44 199 -52h11q87 0 161 35q39 24 50 42q6 7 8 7h1q1 -1 1 -6q0 -9 -4.5 -30
t-13.5 -46q-24 -70 -77 -133.5t-129 -93.5q-54 -19 -117 -19q-47 0 -95 10q-65 15 -135 40q-47 17 -100 33q-70 21 -145 34t-149 13q-55 0 -108 -9.5t-102 -30.5q-42 -18 -70.5 -37.5t-40.5 -29.5l-1 -1l-6 -4q0 2 6 10q7 10 20 31q97 156 107 347q4 84 4 159v84h-207l22 47
q34 63 101 63h84v94h-207l22 46q34 64 101 64h84z" />
    <glyph glyph-name="peseta" unicode="&#x20a7;" horiz-adv-x="2879" 
d="M571 648q67 0 107.5 37.5t61 93.5t27 116t6.5 105v199q0 53 -22 103t-70 74q-30 15 -58 15t-58 -15q-48 -24 -69.5 -74t-21.5 -103v-413q0 -35 7 -67t28 -51.5t62 -19.5zM1081 1020q-4 -84 -20 -168q-21 -111 -74 -209q-45 -81 -122 -132q-76 -51 -190 -51q-82 0 -129 23
q-48 23 -72 53v-310q0 -67 -21 -119.5t-84 -88.5q-17 -10 -33 -19q-53 -27 -95.5 -59t-75.5 -89v1039l-1 110q0 114 36 196t94.5 140.5t127 102t135.5 78.5q80 41 139 83t76 98q132 -92 198 -176.5t89 -183.5q20 -89 23 -208h161v46q0 115 105 180q17 9 33 18q53 28 96 60
t76 90v-394h153l-21 -46q-34 -64 -100 -64h-32v-675q0 -86 23.5 -117.5t88.5 -31.5t106 55q23 31 35 71q4 68 38 125q36 56 93 90q28 18 54 29t36 11q5 0 5 -4t-7 -15q-5 -9 -10 -22q-10 -22 -10 -55q0 -20 5 -44q12 -68 71 -131q63 -58 164 -74q27 -4 55 -4q74 0 144 24
q45 16 76.5 39t31.5 49v6q-6 27 -47 55t-102 59q-67 35 -142 71q-62 30 -121 60q-113 59 -214 116q-12 7 -25 14q9 14 19 32t26 50l92 176q44 4 91 16q48 12 97 38q51 24 92 56q42 30 69 66q26 35 44 73l2 -4q28 -37 45 -90q9 -32 9 -70q0 -33 -9 -66q-26 -73 -68 -117
q-34 -37 -58 -54q38 -24 92 -54q60 -31 132 -81q36 -24 67.5 -56t50.5 -76q21 -57 21 -124q0 -43 -8 -87q-16 -111 -102 -205q-45 -48 -109 -87t-144 -58q-57 -12 -117 -12q-109 0 -205 37q-69 29 -114 71q-44 39 -69 79q-41 -79 -95 -119q-55 -41 -110.5 -54.5t-99.5 -13.5
q-166 0 -232 92q-67 91 -67 242v699h-162z" />
    <glyph glyph-name="Euro" unicode="&#x20ac;" horiz-adv-x="1599" 
d="M957 -12q-286 0 -446 202q-127 164 -153 459h-194l22 47q34 63 101 63h66q-1 26 -1 94h-188l22 46q34 64 101 64h66q4 169 72.5 279t170 181t204.5 123q91 48 158.5 96t86.5 111q192 -133 266 -261q38 -64 38 -132q0 -65 -35.5 -127.5t-94 -96t-131.5 -33.5v69
q0 76 -30.5 147t-99.5 106q-43 21 -83 21t-82 -21q-69 -35 -100 -106t-31 -147v-209h431l-22 -47q-33 -63 -99 -63h-310q0 -55 2 -94h429l-22 -46q-33 -64 -99 -64h-300q14 -135 65 -255t157 -173q68 -29 135 -29q109 0 202.5 64.5t147.5 166.5l56 -22q-53 -206 -178 -309.5
t-300 -103.5z" />
    <glyph glyph-name="uni2116" unicode="&#x2116;" horiz-adv-x="3171" 
d="M2479 325q-76 0 -146 26t-126.5 86t-81.5 126.5t-30.5 137.5t-5.5 146v22q0 114 36 196t94.5 141t127 102.5t135.5 78.5q80 41 139 83.5t76 97.5q132 -92 198 -176.5t88.5 -184t23.5 -235.5v-18q0 -143 -40.5 -271t-128 -218.5t-228.5 -124.5q-64 -15 -131 -15zM2738 0
h-618q37 22 59.5 51.5t38.5 58.5t32.5 52t42 37t66.5 14h617q-37 -22 -59.5 -51.5t-38 -58t-32.5 -51.5t-42.5 -37.5t-65.5 -14.5zM2176 -590q-95 0 -203 46q-82 34 -147 93q-63 62 -100 158q-68 173 -68 482v14l-1 86v884q0 76 -30.5 147t-99.5 105q-42 21 -82 21
q-41 0 -83 -21q-68 -34 -99 -105t-31 -147l-1 -1003q0 -59 -20.5 -96t-54 -61.5t-72.5 -46.5q-45 -24 -88 -56.5t-75 -87.5v1143q0 83 -2 156q-2 97 -26 212t-88.5 198.5t-186.5 88.5q-97 0 -162 -42.5t-98.5 -108t-33.5 -134.5q0 -83 50 -150q57 -78 180 -86q99 0 171 76
q23 -53 23 -99q0 -64 -36.5 -112.5t-95 -75.5t-125.5 -27t-133 31t-116 99t-72 179q-6 36 -6 71q0 62 16 121q51 184 200 290.5t325 106.5q145 0 270 -76q143 -93 207 -247q94 63 186 110.5t159.5 96t86.5 111.5q150 -104 225.5 -200.5t101 -210t26.5 -267.5q0 -74 -4 -118
v-669q2 -70 3 -141q0 -124 7 -237q12 -175 77 -267q64 -86 164 -125q42 -16 89 -19t78 -3q-2 -11 -10.5 -22.5t-35.5 -26.5q-67 -38 -159 -38zM2549 531q40 0 76 34t55 102q18 72 18 202v199q0 53 -22 103t-70 75q-30 14 -58 14t-57 -14q-48 -25 -70 -75t-22 -103v-199
q0 -48 3 -101.5t15 -100.5q19 -68 55 -102t77 -34z" />
    <glyph glyph-name="trademark" unicode="&#x2122;" horiz-adv-x="1584" 
d="M541 963q-26 38 -60 53q-23 12 -39 27.5t-16 48.5v487l-22 1q-46 0 -85 -21q-47 -29 -47 -89q0 -49 32 -90q17 -20 40 -35q-29 -18 -61 -18q-13 0 -27 4q-48 14 -70 49t-22 77q0 40 18 80q25 52 76 81q67 37 151 37q27 0 87 -5.5t82 -5.5q50 0 104 22q32 14 54.5 39
t22.5 54q30 -33 30 -72q0 -58 -55 -102q-47 -33 -102 -33q-37 0 -76 9l-15 2v-600zM1344 810l-17 1q-60 6 -113 51q-45 42 -56 134q-8 67 -9 140v328q0 48 -18 71.5t-39 23.5t-39 -23.5t-18 -71.5v-372q0 -33 -16 -48.5t-39 -26.5q-35 -16 -60 -54v501q0 48 -18 71.5
t-39 23.5q-22 0 -40 -23.5t-18 -71.5v-372q0 -33 -16 -48.5t-39 -27.5q-34 -15 -60 -53v462q0 81 68 131l52 37q42 26 64.5 45t29.5 42q80 -55 106 -109q25 19 49 34q28 17 48 34.5t27 40.5q82 -57 106.5 -111t24.5 -135v-152q0 -169 1 -193v-24q0 -35 2 -69q6 -66 29 -99
q28 -35 61 -47q21 -8 62 -8q0 -1 -1 -1q-2 -9 -16 -17q-25 -14 -59 -14z" />
    <glyph glyph-name="minus" unicode="&#x2212;" horiz-adv-x="1102" 
d="M938 718h-774v184h774v-184z" />
    <glyph glyph-name="lessequal" unicode="&#x2264;" horiz-adv-x="915" 
d="M751 276l-587 339v151l587 339v-213l-349 -201l349 -202v-213zM751 0h-587v184h587v-184z" />
    <glyph glyph-name="greaterequal" unicode="&#x2265;" horiz-adv-x="915" 
d="M164 276v213l349 202l-349 201v213l587 -339v-151zM751 0h-587v184h587v-184z" />
    </font>
</defs>
</svg>
